<svg width="84" height="85" viewBox="0 0 84 85" fill="none" xmlns="http://www.w3.org/2000/svg">
<path d="M42 16.821C41.4631 16.821 40.9256 16.92 40.4168 17.1184L1.64678 32.245C0.656862 32.6307 0 33.592 0 34.6546V34.7285V35.7046V35.7785H0.326074C0.602077 36.3724 1.01326 36.8913 1.64678 37.1381L6.3 38.9531V65.3897C5.9813 65.5737 5.71655 65.8382 5.53227 66.1567C5.34799 66.4753 5.25065 66.8366 5.25 67.2046C5.25039 67.3896 5.27521 67.5737 5.32383 67.7522C4.03669 68.4726 3.15 69.8346 3.15 71.4046C3.15 72.1564 3.39889 72.8457 3.71191 73.6626C4.02494 74.4794 4.42981 75.3645 4.83164 76.1912C5.63529 77.8444 6.43535 79.2694 6.43535 79.2694L7.35 80.8998L8.26465 79.2694C8.26465 79.2694 9.0647 77.8444 9.86836 76.1912C10.2702 75.3645 10.6751 74.4794 10.9881 73.6626C11.3011 72.8457 11.55 72.1564 11.55 71.4046C11.55 69.834 10.6621 68.4723 9.37412 67.7522C9.42343 67.5738 9.44895 67.3897 9.45 67.2046C9.44971 66.8363 9.35254 66.4745 9.16824 66.1556C8.98394 65.8367 8.719 65.5718 8.4 65.3876V39.7734L22.0479 45.0972L22.05 45.1526V45.1546L21.2461 45.8293L21.1312 45.6632L21 45.1546L21.041 44.8655C21.041 44.8655 18.9 52.3296 18.9 60.9046C18.9 61.1831 19.0107 61.4502 19.2076 61.6471C19.4045 61.844 19.6715 61.9546 19.95 61.9546C27.685 61.9546 33.0428 63.498 36.4547 65.0144C39.8665 66.5308 41.2576 67.947 41.2576 67.947C41.4545 68.1439 41.7216 68.2544 42 68.2544C42.2784 68.2544 42.5455 68.1439 42.7424 67.947C42.7424 67.947 44.1334 66.5308 47.5453 65.0144C50.9572 63.498 56.315 61.9546 64.05 61.9546C64.3285 61.9546 64.5955 61.844 64.7924 61.6471C64.9893 61.4502 65.1 61.1831 65.1 60.9046C65.1 55.58 64.5366 50.018 62.9549 44.847C62.9424 44.8051 62.9273 44.764 62.9098 44.724L82.3532 37.1381C82.9867 36.8913 83.3979 36.3724 83.6739 35.7785H84V35.7046V34.7285V34.6546C84 33.592 83.3431 32.6307 82.3532 32.245L43.5832 17.1184C43.0744 16.92 42.5369 16.821 42 16.821ZM42 18.921C42.2781 18.921 42.5563 18.9719 42.8203 19.0749L81.5903 34.2014C81.7806 34.2756 81.9 34.451 81.9 34.6546V34.7285C81.9 34.9321 81.7806 35.1075 81.5903 35.1817L42.8203 50.3083C42.2923 50.5142 41.7077 50.5142 41.1797 50.3083L2.40967 35.1817C2.21938 35.1075 2.1 34.9321 2.1 34.7285V34.6546C2.1 34.451 2.21938 34.2756 2.40967 34.2014L41.1797 19.0749C41.4437 18.9719 41.7219 18.921 42 18.921ZM36.75 23.1046C36.4715 23.1046 36.2044 23.2153 36.0075 23.4122C35.8106 23.6091 35.7 23.8762 35.7 24.1546C35.7 24.4331 35.8106 24.7002 36.0075 24.8971C36.2044 25.094 36.4715 25.2046 36.75 25.2046C37.0285 25.2046 37.2955 25.094 37.4925 24.8971C37.6894 24.7002 37.8 24.4331 37.8 24.1546C37.8 23.8762 37.6894 23.6091 37.4925 23.4122C37.2955 23.2153 37.0285 23.1046 36.75 23.1046ZM31.5 25.2046C31.2215 25.2046 30.9544 25.3153 30.7575 25.5122C30.5606 25.7091 30.45 25.9762 30.45 26.2546C30.45 26.5331 30.5606 26.8002 30.7575 26.9971C30.9544 27.194 31.2215 27.3046 31.5 27.3046C31.7785 27.3046 32.0455 27.194 32.2425 26.9971C32.4394 26.8002 32.55 26.5331 32.55 26.2546C32.55 25.9762 32.4394 25.7091 32.2425 25.5122C32.0455 25.3153 31.7785 25.2046 31.5 25.2046ZM26.25 27.3046C25.9715 27.3046 25.7044 27.4153 25.5075 27.6122C25.3106 27.8091 25.2 28.0762 25.2 28.3546C25.2 28.6331 25.3106 28.9002 25.5075 29.0971C25.7044 29.294 25.9715 29.4046 26.25 29.4046C26.5285 29.4046 26.7955 29.294 26.9925 29.0971C27.1894 28.9002 27.3 28.6331 27.3 28.3546C27.3 28.0762 27.1894 27.8091 26.9925 27.6122C26.7955 27.4153 26.5285 27.3046 26.25 27.3046ZM21 29.4046C20.7215 29.4046 20.4544 29.5153 20.2575 29.7122C20.0606 29.9091 19.95 30.1762 19.95 30.4546C19.95 30.7331 20.0606 31.0002 20.2575 31.1971C20.4544 31.394 20.7215 31.5046 21 31.5046C21.2785 31.5046 21.5455 31.394 21.7425 31.1971C21.9394 31.0002 22.05 30.7331 22.05 30.4546C22.05 30.1762 21.9394 29.9091 21.7425 29.7122C21.5455 29.5153 21.2785 29.4046 21 29.4046ZM15.75 31.5046C15.4715 31.5046 15.2045 31.6153 15.0075 31.8122C14.8106 32.0091 14.7 32.2762 14.7 32.5546C14.7 32.8331 14.8106 33.1002 15.0075 33.2971C15.2045 33.494 15.4715 33.6046 15.75 33.6046C16.0285 33.6046 16.2955 33.494 16.4925 33.2971C16.6894 33.1002 16.8 32.8331 16.8 32.5546C16.8 32.2762 16.6894 32.0091 16.4925 31.8122C16.2955 31.6153 16.0285 31.5046 15.75 31.5046ZM10.5 33.6046C10.2215 33.6046 9.95445 33.7153 9.75754 33.9122C9.56062 34.1091 9.45 34.3762 9.45 34.6546C9.45 34.9331 9.56062 35.2002 9.75754 35.3971C9.95445 35.594 10.2215 35.7046 10.5 35.7046C10.7785 35.7046 11.0455 35.594 11.2425 35.3971C11.4394 35.2002 11.55 34.9331 11.55 34.6546C11.55 34.3762 11.4394 34.1091 11.2425 33.9122C11.0455 33.7153 10.7785 33.6046 10.5 33.6046ZM15.75 35.7046C15.4715 35.7046 15.2045 35.8153 15.0075 36.0122C14.8106 36.2091 14.7 36.4762 14.7 36.7546C14.7 37.0331 14.8106 37.3002 15.0075 37.4971C15.2045 37.694 15.4715 37.8046 15.75 37.8046C16.0285 37.8046 16.2955 37.694 16.4925 37.4971C16.6894 37.3002 16.8 37.0331 16.8 36.7546C16.8 36.4762 16.6894 36.2091 16.4925 36.0122C16.2955 35.8153 16.0285 35.7046 15.75 35.7046ZM21 37.8046C20.7215 37.8046 20.4544 37.9153 20.2575 38.1122C20.0606 38.3091 19.95 38.5762 19.95 38.8546C19.95 39.1331 20.0606 39.4002 20.2575 39.5971C20.4544 39.794 20.7215 39.9046 21 39.9046C21.2785 39.9046 21.5455 39.794 21.7425 39.5971C21.9394 39.4002 22.05 39.1331 22.05 38.8546C22.05 38.5762 21.9394 38.3091 21.7425 38.1122C21.5455 37.9153 21.2785 37.8046 21 37.8046ZM26.25 39.9046C25.9715 39.9046 25.7044 40.0153 25.5075 40.2122C25.3106 40.4091 25.2 40.6762 25.2 40.9546C25.2 41.2331 25.3106 41.5002 25.5075 41.6971C25.7044 41.894 25.9715 42.0046 26.25 42.0046C26.5285 42.0046 26.7955 41.894 26.9925 41.6971C27.1894 41.5002 27.3 41.2331 27.3 40.9546C27.3 40.6762 27.1894 40.4091 26.9925 40.2122C26.7955 40.0153 26.5285 39.9046 26.25 39.9046ZM31.5 42.0046C31.2215 42.0046 30.9544 42.1153 30.7575 42.3122C30.5606 42.5091 30.45 42.7762 30.45 43.0546C30.45 43.3331 30.5606 43.6002 30.7575 43.7971C30.9544 43.994 31.2215 44.1046 31.5 44.1046C31.7785 44.1046 32.0455 43.994 32.2425 43.7971C32.4394 43.6002 32.55 43.3331 32.55 43.0546C32.55 42.7762 32.4394 42.5091 32.2425 42.3122C32.0455 42.1153 31.7785 42.0046 31.5 42.0046ZM36.75 44.1046C36.4715 44.1046 36.2044 44.2153 36.0075 44.4122C35.8106 44.6091 35.7 44.8762 35.7 45.1546C35.7 45.4331 35.8106 45.7002 36.0075 45.8971C36.2044 46.094 36.4715 46.2046 36.75 46.2046C37.0285 46.2046 37.2955 46.094 37.4925 45.8971C37.6894 45.7002 37.8 45.4331 37.8 45.1546C37.8 44.8762 37.6894 44.6091 37.4925 44.4122C37.2955 44.2153 37.0285 44.1046 36.75 44.1046ZM60.9533 45.4889C62.3509 50.0708 62.8731 55.0527 62.9405 59.91C55.5453 60.0582 50.185 61.5425 46.6922 63.0949C44.0348 64.2759 42.7134 65.2769 42 65.8696C41.2866 65.2769 39.9651 64.2759 37.3078 63.0949C33.8143 61.5422 28.4528 60.0577 21.0554 59.91C21.213 52.2235 22.9869 45.7266 23.0344 45.5586C23.0433 45.5364 23.0516 45.5138 23.059 45.491L40.4168 52.2647C41.4343 52.6615 42.5657 52.6615 43.5832 52.2647L60.9533 45.4889ZM7.35 69.3046C8.5225 69.3046 9.45 70.2321 9.45 71.4046C9.45 71.5228 9.30514 72.1876 9.02754 72.912C8.74994 73.6364 8.36731 74.479 7.98164 75.2724C7.66659 75.9205 7.61319 75.9851 7.35 76.4844C7.08681 75.9851 7.03341 75.9205 6.71836 75.2724C6.33269 74.479 5.95006 73.6364 5.67246 72.912C5.39486 72.1876 5.25 71.5228 5.25 71.4046C5.25 70.2321 6.1775 69.3046 7.35 69.3046Z" fill="#00A0AD"/>
</svg>
