<svg width="85" height="85" viewBox="0 0 85 85" fill="none" xmlns="http://www.w3.org/2000/svg">
<path d="M41.2832 9.8045C40.8922 9.8045 40.5497 9.91066 40.2065 10.0075C40.0605 10.0035 39.9152 10.0301 39.78 10.0855L39.7103 10.1162C39.6603 10.1362 39.6109 10.1575 39.5667 10.1777L10.4251 22.4865C10.2348 22.5668 10.0723 22.7015 9.95814 22.8737C9.84397 23.0459 9.78311 23.2479 9.7832 23.4545V28.7045C9.78323 28.983 9.89387 29.25 10.0908 29.4469C10.2877 29.6438 10.5547 29.7545 10.8332 29.7545H13.9832V31.8545C13.9832 33.0022 14.9355 33.9545 16.0832 33.9545V61.2545H13.9832C13.7047 61.2545 13.4377 61.3652 13.2408 61.5621C13.0439 61.759 12.9332 62.026 12.9332 62.3045V66.5045H10.8332C10.5547 66.5045 10.2877 66.6152 10.0908 66.8121C9.89387 67.009 9.78323 67.276 9.7832 67.5545V72.8045C9.78323 73.083 9.89387 73.35 10.0908 73.5469C10.2877 73.7438 10.5547 73.8545 10.8332 73.8545H71.7332C72.0117 73.8545 72.2787 73.7438 72.4756 73.5469C72.6725 73.35 72.7832 73.083 72.7832 72.8045V67.5545C72.7832 67.276 72.6725 67.009 72.4756 66.8121C72.2787 66.6152 72.0117 66.5045 71.7332 66.5045H69.6332V62.3045C69.6332 62.026 69.5225 61.759 69.3256 61.5621C69.1287 61.3652 68.8617 61.2545 68.5832 61.2545H66.4832V33.9545C67.6309 33.9545 68.5832 33.0022 68.5832 31.8545V29.7545H71.7332C72.0117 29.7545 72.2787 29.6438 72.4756 29.4469C72.6725 29.25 72.7832 28.983 72.7832 28.7045V23.4545C72.7833 23.2479 72.7224 23.0459 72.6083 22.8737C72.4941 22.7015 72.3317 22.5668 72.1413 22.4865L42.9997 10.1777C42.9329 10.1472 42.885 10.1283 42.8562 10.1162L42.7864 10.0855C42.6514 10.0294 42.5061 10.0021 42.3599 10.0055C42.0168 9.90867 41.674 9.8045 41.2832 9.8045ZM41.2832 11.9045C41.5265 11.9045 41.7653 11.954 42.0112 12.046C42.0322 12.0535 42.0534 12.0604 42.0748 12.0665C42.0958 12.0752 42.1217 12.085 42.1261 12.087C42.1356 12.0913 42.1452 12.0954 42.1548 12.0993L70.6832 24.1518V27.6545H67.5332H15.0332H11.8832V24.1518L40.4116 12.0993C40.4213 12.0954 40.4308 12.0913 40.4403 12.087C40.4564 12.0797 40.4687 12.0737 40.4813 12.0686C40.5062 12.062 40.5308 12.0544 40.5552 12.046C40.8012 11.954 41.0399 11.9045 41.2832 11.9045ZM26.5832 22.4045C26.3047 22.4045 26.0377 22.5151 25.8407 22.712C25.6438 22.909 25.5332 23.176 25.5332 23.4545C25.5332 23.733 25.6438 24.0001 25.8407 24.197C26.0377 24.3939 26.3047 24.5045 26.5832 24.5045C26.8617 24.5045 27.1288 24.3939 27.3257 24.197C27.5226 24.0001 27.6332 23.733 27.6332 23.4545C27.6332 23.176 27.5226 22.909 27.3257 22.712C27.1288 22.5151 26.8617 22.4045 26.5832 22.4045ZM30.7832 22.4045C30.5047 22.4045 30.2377 22.5151 30.0407 22.712C29.8438 22.909 29.7332 23.176 29.7332 23.4545C29.7332 23.733 29.8438 24.0001 30.0407 24.197C30.2377 24.3939 30.5047 24.5045 30.7832 24.5045C31.0617 24.5045 31.3288 24.3939 31.5257 24.197C31.7226 24.0001 31.8332 23.733 31.8332 23.4545C31.8332 23.176 31.7226 22.909 31.5257 22.712C31.3288 22.5151 31.0617 22.4045 30.7832 22.4045ZM34.9832 22.4045C34.7047 22.4045 34.4377 22.5151 34.2407 22.712C34.0438 22.909 33.9332 23.176 33.9332 23.4545C33.9332 23.733 34.0438 24.0001 34.2407 24.197C34.4377 24.3939 34.7047 24.5045 34.9832 24.5045C35.2617 24.5045 35.5288 24.3939 35.7257 24.197C35.9226 24.0001 36.0332 23.733 36.0332 23.4545C36.0332 23.176 35.9226 22.909 35.7257 22.712C35.5288 22.5151 35.2617 22.4045 34.9832 22.4045ZM39.1832 22.4045C38.9047 22.4045 38.6377 22.5151 38.4407 22.712C38.2438 22.909 38.1332 23.176 38.1332 23.4545C38.1332 23.733 38.2438 24.0001 38.4407 24.197C38.6377 24.3939 38.9047 24.5045 39.1832 24.5045C39.4617 24.5045 39.7288 24.3939 39.9257 24.197C40.1226 24.0001 40.2332 23.733 40.2332 23.4545C40.2332 23.176 40.1226 22.909 39.9257 22.712C39.7288 22.5151 39.4617 22.4045 39.1832 22.4045ZM43.3832 22.4045C43.1047 22.4045 42.8377 22.5151 42.6407 22.712C42.4438 22.909 42.3332 23.176 42.3332 23.4545C42.3332 23.733 42.4438 24.0001 42.6407 24.197C42.8377 24.3939 43.1047 24.5045 43.3832 24.5045C43.6617 24.5045 43.9288 24.3939 44.1257 24.197C44.3226 24.0001 44.4332 23.733 44.4332 23.4545C44.4332 23.176 44.3226 22.909 44.1257 22.712C43.9288 22.5151 43.6617 22.4045 43.3832 22.4045ZM47.5832 22.4045C47.3047 22.4045 47.0377 22.5151 46.8407 22.712C46.6438 22.909 46.5332 23.176 46.5332 23.4545C46.5332 23.733 46.6438 24.0001 46.8407 24.197C47.0377 24.3939 47.3047 24.5045 47.5832 24.5045C47.8617 24.5045 48.1288 24.3939 48.3257 24.197C48.5226 24.0001 48.6332 23.733 48.6332 23.4545C48.6332 23.176 48.5226 22.909 48.3257 22.712C48.1288 22.5151 47.8617 22.4045 47.5832 22.4045ZM51.7832 22.4045C51.5047 22.4045 51.2377 22.5151 51.0407 22.712C50.8438 22.909 50.7332 23.176 50.7332 23.4545C50.7332 23.733 50.8438 24.0001 51.0407 24.197C51.2377 24.3939 51.5047 24.5045 51.7832 24.5045C52.0617 24.5045 52.3288 24.3939 52.5257 24.197C52.7226 24.0001 52.8332 23.733 52.8332 23.4545C52.8332 23.176 52.7226 22.909 52.5257 22.712C52.3288 22.5151 52.0617 22.4045 51.7832 22.4045ZM55.9832 22.4045C55.7047 22.4045 55.4377 22.5151 55.2407 22.712C55.0438 22.909 54.9332 23.176 54.9332 23.4545C54.9332 23.733 55.0438 24.0001 55.2407 24.197C55.4377 24.3939 55.7047 24.5045 55.9832 24.5045C56.2617 24.5045 56.5288 24.3939 56.7257 24.197C56.9226 24.0001 57.0332 23.733 57.0332 23.4545C57.0332 23.176 56.9226 22.909 56.7257 22.712C56.5288 22.5151 56.2617 22.4045 55.9832 22.4045ZM16.0832 29.7545H24.4832V31.8545H23.4332C23.1547 31.8545 22.8877 31.9652 22.6908 32.1621C22.4939 32.359 22.3832 32.626 22.3832 32.9045V62.3045C22.3832 62.583 22.4939 62.85 22.6908 63.0469C22.8877 63.2438 23.1547 63.3545 23.4332 63.3545H27.6332C27.9117 63.3545 28.1787 63.2438 28.3756 63.0469C28.5725 62.85 28.6832 62.583 28.6832 62.3045V32.9045C28.6832 32.626 28.5725 32.359 28.3756 32.1621C28.1787 31.9652 27.9117 31.8545 27.6332 31.8545H26.5832V29.7545H34.9832V31.8545H33.9332C33.6547 31.8545 33.3877 31.9652 33.1908 32.1621C32.9939 32.359 32.8832 32.626 32.8832 32.9045V62.3045C32.8832 62.583 32.9939 62.85 33.1908 63.0469C33.3877 63.2438 33.6547 63.3545 33.9332 63.3545H38.1332C38.4117 63.3545 38.6787 63.2438 38.8756 63.0469C39.0725 62.85 39.1832 62.583 39.1832 62.3045V32.9045C39.1832 32.626 39.0725 32.359 38.8756 32.1621C38.6787 31.9652 38.4117 31.8545 38.1332 31.8545H37.0832V29.7545H45.4832V31.8545H44.4332C44.1547 31.8545 43.8877 31.9652 43.6908 32.1621C43.4939 32.359 43.3832 32.626 43.3832 32.9045V62.3045C43.3832 62.583 43.4939 62.85 43.6908 63.0469C43.8877 63.2438 44.1547 63.3545 44.4332 63.3545H48.6332C48.9117 63.3545 49.1787 63.2438 49.3756 63.0469C49.5725 62.85 49.6832 62.583 49.6832 62.3045V32.9045C49.6832 32.626 49.5725 32.359 49.3756 32.1621C49.1787 31.9652 48.9117 31.8545 48.6332 31.8545H47.5832V29.7545H55.9832V31.8545H54.9332C54.6547 31.8545 54.3877 31.9652 54.1908 32.1621C53.9939 32.359 53.8832 32.626 53.8832 32.9045V62.3045C53.8832 62.583 53.9939 62.85 54.1908 63.0469C54.3877 63.2438 54.6547 63.3545 54.9332 63.3545H59.1332C59.4117 63.3545 59.6787 63.2438 59.8756 63.0469C60.0725 62.85 60.1832 62.583 60.1832 62.3045V32.9045C60.1832 32.626 60.0725 32.359 59.8756 32.1621C59.6787 31.9652 59.4117 31.8545 59.1332 31.8545H58.0832V29.7545H66.4832V31.8545H65.4332C65.1547 31.8545 64.8877 31.9652 64.6908 32.1621C64.4939 32.359 64.3832 32.626 64.3832 32.9045V62.3045C64.3832 62.583 64.4939 62.85 64.6908 63.0469C64.8877 63.2438 65.1547 63.3545 65.4332 63.3545H67.5332V67.5545C67.5332 67.833 67.6439 68.1 67.8408 68.2969C68.0377 68.4938 68.3047 68.6045 68.5832 68.6045H70.6832V71.7545H11.8832V68.6045H13.9832C14.2617 68.6045 14.5287 68.4938 14.7256 68.2969C14.9225 68.1 15.0332 67.833 15.0332 67.5545V63.3545H17.1332C17.4117 63.3545 17.6787 63.2438 17.8756 63.0469C18.0725 62.85 18.1832 62.583 18.1832 62.3045V32.9045C18.1832 32.626 18.0725 32.359 17.8756 32.1621C17.6787 31.9652 17.4117 31.8545 17.1332 31.8545H16.0832V29.7545ZM25.5332 33.5156C25.8572 33.7213 26.1763 33.9545 26.5832 33.9545V61.2545H24.4832V33.9545C24.8901 33.9545 25.2092 33.7213 25.5332 33.5156ZM36.0332 33.5156C36.3572 33.7213 36.6763 33.9545 37.0832 33.9545V61.2545H34.9832V33.9545C35.3901 33.9545 35.7092 33.7213 36.0332 33.5156ZM46.5332 33.5156C46.8572 33.7213 47.1763 33.9545 47.5832 33.9545V61.2545H45.4832V33.9545C45.8901 33.9545 46.2092 33.7213 46.5332 33.5156ZM57.0332 33.5156C57.3572 33.7213 57.6763 33.9545 58.0832 33.9545V61.2545H55.9832V33.9545C56.3901 33.9545 56.7092 33.7213 57.0332 33.5156ZM20.2832 61.2545C20.0047 61.2545 19.7377 61.3651 19.5407 61.562C19.3438 61.759 19.2332 62.026 19.2332 62.3045C19.2332 62.583 19.3438 62.8501 19.5407 63.047C19.7377 63.2439 20.0047 63.3545 20.2832 63.3545C20.5617 63.3545 20.8288 63.2439 21.0257 63.047C21.2226 62.8501 21.3332 62.583 21.3332 62.3045C21.3332 62.026 21.2226 61.759 21.0257 61.562C20.8288 61.3651 20.5617 61.2545 20.2832 61.2545ZM30.7832 61.2545C30.5047 61.2545 30.2377 61.3651 30.0407 61.562C29.8438 61.759 29.7332 62.026 29.7332 62.3045C29.7332 62.583 29.8438 62.8501 30.0407 63.047C30.2377 63.2439 30.5047 63.3545 30.7832 63.3545C31.0617 63.3545 31.3288 63.2439 31.5257 63.047C31.7226 62.8501 31.8332 62.583 31.8332 62.3045C31.8332 62.026 31.7226 61.759 31.5257 61.562C31.3288 61.3651 31.0617 61.2545 30.7832 61.2545ZM41.2832 61.2545C41.0047 61.2545 40.7377 61.3651 40.5407 61.562C40.3438 61.759 40.2332 62.026 40.2332 62.3045C40.2332 62.583 40.3438 62.8501 40.5407 63.047C40.7377 63.2439 41.0047 63.3545 41.2832 63.3545C41.5617 63.3545 41.8288 63.2439 42.0257 63.047C42.2226 62.8501 42.3332 62.583 42.3332 62.3045C42.3332 62.026 42.2226 61.759 42.0257 61.562C41.8288 61.3651 41.5617 61.2545 41.2832 61.2545ZM51.7832 61.2545C51.5047 61.2545 51.2377 61.3651 51.0407 61.562C50.8438 61.759 50.7332 62.026 50.7332 62.3045C50.7332 62.583 50.8438 62.8501 51.0407 63.047C51.2377 63.2439 51.5047 63.3545 51.7832 63.3545C52.0617 63.3545 52.3288 63.2439 52.5257 63.047C52.7226 62.8501 52.8332 62.583 52.8332 62.3045C52.8332 62.026 52.7226 61.759 52.5257 61.562C52.3288 61.3651 52.0617 61.2545 51.7832 61.2545ZM62.2832 61.2545C62.0047 61.2545 61.7377 61.3651 61.5407 61.562C61.3438 61.759 61.2332 62.026 61.2332 62.3045C61.2332 62.583 61.3438 62.8501 61.5407 63.047C61.7377 63.2439 62.0047 63.3545 62.2832 63.3545C62.5617 63.3545 62.8288 63.2439 63.0257 63.047C63.2226 62.8501 63.3332 62.583 63.3332 62.3045C63.3332 62.026 63.2226 61.759 63.0257 61.562C62.8288 61.3651 62.5617 61.2545 62.2832 61.2545ZM18.1832 66.5045C17.9047 66.5045 17.6377 66.6151 17.4407 66.812C17.2438 67.009 17.1332 67.276 17.1332 67.5545C17.1332 67.833 17.2438 68.1001 17.4407 68.297C17.6377 68.4939 17.9047 68.6045 18.1832 68.6045C18.4617 68.6045 18.7288 68.4939 18.9257 68.297C19.1226 68.1001 19.2332 67.833 19.2332 67.5545C19.2332 67.276 19.1226 67.009 18.9257 66.812C18.7288 66.6151 18.4617 66.5045 18.1832 66.5045ZM22.3832 66.5045C22.1047 66.5045 21.8377 66.6151 21.6407 66.812C21.4438 67.009 21.3332 67.276 21.3332 67.5545C21.3332 67.833 21.4438 68.1001 21.6407 68.297C21.8377 68.4939 22.1047 68.6045 22.3832 68.6045C22.6617 68.6045 22.9288 68.4939 23.1257 68.297C23.3226 68.1001 23.4332 67.833 23.4332 67.5545C23.4332 67.276 23.3226 67.009 23.1257 66.812C22.9288 66.6151 22.6617 66.5045 22.3832 66.5045ZM26.5832 66.5045C26.3047 66.5045 26.0377 66.6151 25.8407 66.812C25.6438 67.009 25.5332 67.276 25.5332 67.5545C25.5332 67.833 25.6438 68.1001 25.8407 68.297C26.0377 68.4939 26.3047 68.6045 26.5832 68.6045C26.8617 68.6045 27.1288 68.4939 27.3257 68.297C27.5226 68.1001 27.6332 67.833 27.6332 67.5545C27.6332 67.276 27.5226 67.009 27.3257 66.812C27.1288 66.6151 26.8617 66.5045 26.5832 66.5045ZM30.7832 66.5045C30.5047 66.5045 30.2377 66.6151 30.0407 66.812C29.8438 67.009 29.7332 67.276 29.7332 67.5545C29.7332 67.833 29.8438 68.1001 30.0407 68.297C30.2377 68.4939 30.5047 68.6045 30.7832 68.6045C31.0617 68.6045 31.3288 68.4939 31.5257 68.297C31.7226 68.1001 31.8332 67.833 31.8332 67.5545C31.8332 67.276 31.7226 67.009 31.5257 66.812C31.3288 66.6151 31.0617 66.5045 30.7832 66.5045ZM34.9832 66.5045C34.7047 66.5045 34.4377 66.6151 34.2407 66.812C34.0438 67.009 33.9332 67.276 33.9332 67.5545C33.9332 67.833 34.0438 68.1001 34.2407 68.297C34.4377 68.4939 34.7047 68.6045 34.9832 68.6045C35.2617 68.6045 35.5288 68.4939 35.7257 68.297C35.9226 68.1001 36.0332 67.833 36.0332 67.5545C36.0332 67.276 35.9226 67.009 35.7257 66.812C35.5288 66.6151 35.2617 66.5045 34.9832 66.5045ZM39.1832 66.5045C38.9047 66.5045 38.6377 66.6151 38.4407 66.812C38.2438 67.009 38.1332 67.276 38.1332 67.5545C38.1332 67.833 38.2438 68.1001 38.4407 68.297C38.6377 68.4939 38.9047 68.6045 39.1832 68.6045C39.4617 68.6045 39.7288 68.4939 39.9257 68.297C40.1226 68.1001 40.2332 67.833 40.2332 67.5545C40.2332 67.276 40.1226 67.009 39.9257 66.812C39.7288 66.6151 39.4617 66.5045 39.1832 66.5045ZM43.3832 66.5045C43.1047 66.5045 42.8377 66.6151 42.6407 66.812C42.4438 67.009 42.3332 67.276 42.3332 67.5545C42.3332 67.833 42.4438 68.1001 42.6407 68.297C42.8377 68.4939 43.1047 68.6045 43.3832 68.6045C43.6617 68.6045 43.9288 68.4939 44.1257 68.297C44.3226 68.1001 44.4332 67.833 44.4332 67.5545C44.4332 67.276 44.3226 67.009 44.1257 66.812C43.9288 66.6151 43.6617 66.5045 43.3832 66.5045ZM47.5832 66.5045C47.3047 66.5045 47.0377 66.6151 46.8407 66.812C46.6438 67.009 46.5332 67.276 46.5332 67.5545C46.5332 67.833 46.6438 68.1001 46.8407 68.297C47.0377 68.4939 47.3047 68.6045 47.5832 68.6045C47.8617 68.6045 48.1288 68.4939 48.3257 68.297C48.5226 68.1001 48.6332 67.833 48.6332 67.5545C48.6332 67.276 48.5226 67.009 48.3257 66.812C48.1288 66.6151 47.8617 66.5045 47.5832 66.5045ZM51.7832 66.5045C51.5047 66.5045 51.2377 66.6151 51.0407 66.812C50.8438 67.009 50.7332 67.276 50.7332 67.5545C50.7332 67.833 50.8438 68.1001 51.0407 68.297C51.2377 68.4939 51.5047 68.6045 51.7832 68.6045C52.0617 68.6045 52.3288 68.4939 52.5257 68.297C52.7226 68.1001 52.8332 67.833 52.8332 67.5545C52.8332 67.276 52.7226 67.009 52.5257 66.812C52.3288 66.6151 52.0617 66.5045 51.7832 66.5045ZM55.9832 66.5045C55.7047 66.5045 55.4377 66.6151 55.2407 66.812C55.0438 67.009 54.9332 67.276 54.9332 67.5545C54.9332 67.833 55.0438 68.1001 55.2407 68.297C55.4377 68.4939 55.7047 68.6045 55.9832 68.6045C56.2617 68.6045 56.5288 68.4939 56.7257 68.297C56.9226 68.1001 57.0332 67.833 57.0332 67.5545C57.0332 67.276 56.9226 67.009 56.7257 66.812C56.5288 66.6151 56.2617 66.5045 55.9832 66.5045ZM60.1832 66.5045C59.9047 66.5045 59.6377 66.6151 59.4407 66.812C59.2438 67.009 59.1332 67.276 59.1332 67.5545C59.1332 67.833 59.2438 68.1001 59.4407 68.297C59.6377 68.4939 59.9047 68.6045 60.1832 68.6045C60.4617 68.6045 60.7288 68.4939 60.9257 68.297C61.1226 68.1001 61.2332 67.833 61.2332 67.5545C61.2332 67.276 61.1226 67.009 60.9257 66.812C60.7288 66.6151 60.4617 66.5045 60.1832 66.5045ZM64.3832 66.5045C64.1047 66.5045 63.8377 66.6151 63.6407 66.812C63.4438 67.009 63.3332 67.276 63.3332 67.5545C63.3332 67.833 63.4438 68.1001 63.6407 68.297C63.8377 68.4939 64.1047 68.6045 64.3832 68.6045C64.6617 68.6045 64.9288 68.4939 65.1257 68.297C65.3226 68.1001 65.4332 67.833 65.4332 67.5545C65.4332 67.276 65.3226 67.009 65.1257 66.812C64.9288 66.6151 64.6617 66.5045 64.3832 66.5045Z" fill="#7A236A"/>
</svg>
