<svg width="85" height="85" viewBox="0 0 85 85" fill="none" xmlns="http://www.w3.org/2000/svg">
<path d="M3.80851 21.4529C3.23429 21.4406 2.76261 21.8877 2.738 22.4578C2.71749 23.0279 3.15226 23.5119 3.72238 23.5488L25.7232 25.5504L36.0181 25.5545C37.954 25.5545 40.4437 26.7644 42.0843 28.2287L30.0667 40.2011V40.6359C30.0667 42.3257 31.129 43.9336 32.6097 45.2584C34.0903 46.5832 36.0755 47.6045 38.2493 47.6045C40.6159 47.6045 42.3386 47.0343 43.6839 46.1648C45.0333 45.2994 45.9849 44.1961 47.039 43.1584C48.0972 42.1166 49.5409 40.8123 50.8985 39.7951C51.3497 39.4546 51.7804 39.1634 52.1905 38.9091L66.628 54.0726L66.6362 54.0849C67.2269 54.6755 67.596 55.3933 67.7642 56.148C67.6657 56.4433 67.7067 56.7673 67.8708 57.0339C67.8749 58.1127 67.4648 59.1955 66.6362 60.024C65.5657 61.0945 64.081 61.4513 62.7028 61.1273L61.054 60.7418L61.4396 62.3865C61.5216 62.7228 61.5667 63.0386 61.5667 63.3545C61.5667 65.6841 59.6964 67.5545 57.3667 67.5545C57.055 67.5545 56.7392 67.5093 56.4069 67.4314L54.754 67.0418L55.1437 68.6947C55.2216 69.0269 55.2667 69.3427 55.2667 69.6545C55.2667 71.9841 53.3964 73.8545 51.0667 73.8545C50.7755 73.8545 50.4925 73.8257 50.2136 73.7683L48.9216 73.5017L48.9544 74.8224C48.9749 75.6755 48.6714 76.5164 48.0192 77.1521C46.92 78.2308 45.263 78.3457 44.0448 77.5089C44.4878 76.7379 44.7667 75.856 44.7667 74.9045C44.7667 72.382 42.9292 70.3599 40.5462 69.8636C40.5503 69.7939 40.5667 69.7242 40.5667 69.6545C40.5667 66.1886 37.7325 63.3545 34.2667 63.3545C34.2667 59.8886 31.4325 57.0545 27.9667 57.0545C27.9667 53.5886 25.1325 50.7545 21.6667 50.7545C21.2484 50.7545 20.8382 50.7996 20.4403 50.8775L18.3937 48.6545H3.81671C3.43937 48.6504 3.08663 48.8472 2.89386 49.1754C2.70519 49.5035 2.70519 49.9054 2.89386 50.2336C3.08663 50.5617 3.43937 50.7586 3.81671 50.7545H17.4708L18.3526 51.7101C16.5644 52.8257 15.3667 54.8027 15.3667 57.0545C15.3667 60.5203 18.2009 63.3545 21.6667 63.3545C21.6667 66.8203 24.5009 69.6545 27.9667 69.6545C27.9667 73.1203 30.8009 75.9545 34.2667 75.9545C34.3364 75.9545 34.4062 75.938 34.4759 75.9339C34.9722 78.317 36.9943 80.1545 39.5167 80.1545C40.6939 80.1545 41.7726 79.7484 42.6503 79.0881C44.6888 80.622 47.6132 80.4908 49.4917 78.6574C50.2669 77.8945 50.6525 76.9265 50.8493 75.9339C50.9232 75.9339 50.9929 75.9545 51.0667 75.9545C54.5325 75.9545 57.3667 73.1203 57.3667 69.6545C60.8325 69.6545 63.6667 66.8203 63.6667 63.3545C63.6667 63.2806 63.6421 63.2191 63.638 63.1453C65.2622 63.1576 66.8864 62.7433 68.121 61.5088C69.3228 60.307 69.9339 58.7361 69.9544 57.1529C71.636 56.4638 75.3521 54.5648 76.8573 50.7545H81.5167C81.8941 50.7586 82.2468 50.5617 82.4396 50.2336C82.6282 49.9054 82.6282 49.5035 82.4396 49.1754C82.2468 48.8472 81.8941 48.6504 81.5167 48.6545H75.4669L75.2536 49.4255C74.4087 52.473 71.3079 54.2449 69.614 55.0078C69.3146 54.1259 68.8224 53.3015 68.121 52.6002L54.3685 38.1545H58.4167C58.7941 38.1586 59.1468 37.9617 59.3396 37.6336C59.5282 37.3054 59.5282 36.9035 59.3396 36.5754C59.1468 36.2472 58.7941 36.0504 58.4167 36.0545H53.8886C53.138 36.0545 52.49 36.3334 51.7927 36.7066C51.0954 37.0757 50.3694 37.5638 49.6353 38.1175C48.1669 39.2168 46.678 40.5662 45.5665 41.6654C44.4468 42.7646 43.5773 43.7367 42.5478 44.4052C41.5142 45.0697 40.3001 45.5045 38.2493 45.5045C36.7605 45.5045 35.1814 44.7416 34.0083 43.6957C32.9747 42.7687 32.4169 41.6736 32.2816 40.9599L45.2753 28.0154C46.8667 26.424 48.9667 25.5545 51.2144 25.5545H59.5159L81.611 23.5488C82.1771 23.4996 82.5995 23.0115 82.5667 22.4455C82.538 21.8795 82.0622 21.4406 81.4962 21.4529C81.4716 21.4529 81.447 21.4529 81.4224 21.457L59.4175 23.4545H51.2144C48.4212 23.4545 45.7675 24.5496 43.7864 26.5265L43.5732 26.7398C41.5962 24.8982 38.7784 23.4545 36.0181 23.4545L25.8175 23.4504L3.91105 21.457C3.87824 21.4529 3.84132 21.4529 3.80851 21.4529ZM76.2667 40.2545C75.6884 40.2545 75.2167 40.7261 75.2167 41.3045C75.2167 41.8828 75.6884 42.3545 76.2667 42.3545C76.845 42.3545 77.3167 41.8828 77.3167 41.3045C77.3167 40.7261 76.845 40.2545 76.2667 40.2545ZM76.2667 44.4545C75.6884 44.4545 75.2167 44.9261 75.2167 45.5045C75.2167 46.0828 75.6884 46.5545 76.2667 46.5545C76.845 46.5545 77.3167 46.0828 77.3167 45.5045C77.3167 44.9261 76.845 44.4545 76.2667 44.4545ZM21.6667 52.8545C23.9964 52.8545 25.8667 54.7248 25.8667 57.0545C25.8667 57.3662 25.8216 57.682 25.7437 58.0142L25.354 59.6671L27.0069 59.2775C27.3392 59.1996 27.655 59.1545 27.9667 59.1545C30.2964 59.1545 32.1667 61.0248 32.1667 63.3545C32.1667 63.6662 32.1216 63.982 32.0437 64.3142L31.654 65.9672L33.3069 65.5775C33.6392 65.4996 33.955 65.4545 34.2667 65.4545C36.5964 65.4545 38.4667 67.3248 38.4667 69.6545C38.4667 69.9457 38.438 70.2328 38.3806 70.5035L38.114 71.8037L39.4388 71.7668C39.6398 71.7586 39.6603 71.7545 39.5167 71.7545C41.2681 71.7545 42.6667 73.1531 42.6667 74.9045C42.6667 76.6558 41.2681 78.0545 39.5167 78.0545C37.7653 78.0545 36.3667 76.6558 36.3667 74.9045C36.3667 75.048 36.3708 75.0275 36.379 74.8265L36.4159 73.5017L35.1157 73.7683C34.8409 73.8257 34.5579 73.8545 34.2667 73.8545C31.937 73.8545 30.0667 71.9841 30.0667 69.6545C30.0667 69.3427 30.1118 69.0269 30.1898 68.6947L30.5794 67.0418L28.9265 67.4314C28.5942 67.5093 28.2784 67.5545 27.9667 67.5545C25.637 67.5545 23.7667 65.6841 23.7667 63.3545C23.7667 63.0427 23.8118 62.7269 23.8898 62.3947L24.2794 60.7418L22.6265 61.1314C22.2943 61.2093 21.9784 61.2545 21.6667 61.2545C19.337 61.2545 17.4667 59.3841 17.4667 57.0545C17.4667 54.7248 19.337 52.8545 21.6667 52.8545ZM56.3167 54.9545C55.7384 54.9545 55.2667 55.4261 55.2667 56.0045C55.2667 56.5828 55.7384 57.0545 56.3167 57.0545C56.895 57.0545 57.3667 56.5828 57.3667 56.0045C57.3667 55.4261 56.895 54.9545 56.3167 54.9545ZM59.4667 58.1045C58.8884 58.1045 58.4167 58.5761 58.4167 59.1545C58.4167 59.7328 58.8884 60.2045 59.4667 60.2045C60.045 60.2045 60.5167 59.7328 60.5167 59.1545C60.5167 58.5761 60.045 58.1045 59.4667 58.1045ZM50.0167 61.2545C49.4384 61.2545 48.9667 61.7261 48.9667 62.3045C48.9667 62.8828 49.4384 63.3545 50.0167 63.3545C50.595 63.3545 51.0667 62.8828 51.0667 62.3045C51.0667 61.7261 50.595 61.2545 50.0167 61.2545ZM53.1667 64.4045C52.5884 64.4045 52.1167 64.8761 52.1167 65.4545C52.1167 66.0328 52.5884 66.5045 53.1667 66.5045C53.745 66.5045 54.2167 66.0328 54.2167 65.4545C54.2167 64.8761 53.745 64.4045 53.1667 64.4045ZM44.7667 67.5545C44.1884 67.5545 43.7167 68.0261 43.7167 68.6045C43.7167 69.1828 44.1884 69.6545 44.7667 69.6545C45.345 69.6545 45.8167 69.1828 45.8167 68.6045C45.8167 68.0261 45.345 67.5545 44.7667 67.5545ZM47.9167 70.7045C47.3384 70.7045 46.8667 71.1761 46.8667 71.7545C46.8667 72.3328 47.3384 72.8045 47.9167 72.8045C48.495 72.8045 48.9667 72.3328 48.9667 71.7545C48.9667 71.1761 48.495 70.7045 47.9167 70.7045Z" fill="#F6901E"/>
</svg>
