<svg width="24" height="25" viewBox="0 0 24 25" fill="none" xmlns="http://www.w3.org/2000/svg">
<g id="surface427">
<path id="Vector" d="M6.66667 0.677246C2.98611 0.677246 0 3.66336 0 7.34391V18.0106C0 21.6911 2.98611 24.6772 6.66667 24.6772H17.3333C21.0139 24.6772 24 21.6911 24 18.0106V7.34391C24 3.66336 21.0139 0.677246 17.3333 0.677246H6.66667ZM20 3.34391C20.7361 3.34391 21.3333 3.94114 21.3333 4.67725C21.3333 5.41336 20.7361 6.01058 20 6.01058C19.2639 6.01058 18.6667 5.41336 18.6667 4.67725C18.6667 3.94114 19.2639 3.34391 20 3.34391ZM12 6.01058C15.6806 6.01058 18.6667 8.99669 18.6667 12.6772C18.6667 16.3578 15.6806 19.3439 12 19.3439C8.31945 19.3439 5.33333 16.3578 5.33333 12.6772C5.33333 8.99669 8.31945 6.01058 12 6.01058ZM12 8.67725C9.79167 8.67725 8 10.4689 8 12.6772C8 14.8856 9.79167 16.6772 12 16.6772C14.2083 16.6772 16 14.8856 16 12.6772C16 10.4689 14.2083 8.67725 12 8.67725Z" fill="#FDC25A"/>
</g>
</svg>
