<svg width="24" height="25" viewBox="0 0 24 25" fill="none" xmlns="http://www.w3.org/2000/svg">
<g id="link">
<path id="Vector" d="M4.22181 13.0611C2.24191 15.041 2.24191 18.1523 4.22181 20.1322C6.20171 22.1121 9.31298 22.1121 11.2929 20.1322L14.1213 17.3038L12.7071 15.8896L9.87867 18.718C8.67659 19.9201 6.83811 19.9201 5.63603 18.718C5.48577 18.5677 5.35374 18.4078 5.24104 18.2401C4.45217 17.0665 4.58421 15.5272 5.63603 14.4754L8.46445 11.6469L7.05024 10.2327L4.22181 13.0611ZM9.87867 7.40429L11.2929 8.81851L14.1213 5.99008C15.3234 4.788 17.1619 4.788 18.3639 5.99008C19.566 7.19216 19.566 9.03064 18.3639 10.2327L15.5355 13.0611L16.9497 14.4754L19.7782 11.6469C21.7581 9.66703 21.7581 6.55576 19.7782 4.57586C17.7983 2.59597 14.687 2.59597 12.7071 4.57586L9.87867 7.40429ZM7.75735 15.1825L9.17156 16.5967L15.5355 10.2327L16.2426 9.52561L14.8284 8.1114L14.1213 8.81851L7.75735 15.1825Z" fill="#CDCDCD"/>
</g>
</svg>
