<svg width="18" height="24" viewBox="0 0 18 24" fill="none" xmlns="http://www.w3.org/2000/svg">
<g clip-path="url(#clip0_1863_15848)">
<path d="M10.1109 23.431C12.5156 20.4216 18 13.1279 18 9.031C18 4.06226 13.9688 0.0310059 9 0.0310059C4.03125 0.0310059 0 4.06226 0 9.031C0 13.1279 5.48438 20.4216 7.88906 23.431C8.46562 24.1482 9.53438 24.1482 10.1109 23.431ZM9 6.03101C9.79565 6.03101 10.5587 6.34708 11.1213 6.90968C11.6839 7.47229 12 8.23536 12 9.031C12 9.82665 11.6839 10.5897 11.1213 11.1523C10.5587 11.7149 9.79565 12.031 9 12.031C8.20435 12.031 7.44129 11.7149 6.87868 11.1523C6.31607 10.5897 6 9.82665 6 9.031C6 8.23536 6.31607 7.47229 6.87868 6.90968C7.44129 6.34708 8.20435 6.03101 9 6.03101Z" fill="#CDCDCD"/>
</g>
<defs>
<clipPath id="clip0_1863_15848">
<rect width="18" height="24" fill="white"/>
</clipPath>
</defs>
</svg>
