<svg width="225" height="83" viewBox="0 0 225 83" fill="none" xmlns="http://www.w3.org/2000/svg">
<path d="M62.7579 0.933116H94.5718V7.63079H70.3486V15.1099H91.7811V21.361H70.3486V31.7424H95.13V38.3285H62.7579V0.933116Z" fill="white"/>
<path d="M124.042 0.933187L142.126 38.3285H134.2L131.186 32.0774H109.307L106.405 38.3285H98.3674L115.893 0.933187H124.042ZM128.172 25.8262L120.135 8.85877L112.321 25.8262H128.284H128.172Z" fill="white"/>
<path d="M147.149 27.1657C148.488 27.9471 149.828 28.6168 151.279 29.2866C152.618 29.8447 154.069 30.4029 155.632 30.8494C157.083 31.2959 158.758 31.6308 160.321 31.854C161.883 32.0773 163.781 32.1889 165.567 32.1889C167.353 32.1889 169.697 32.0773 171.26 31.7424C172.823 31.4075 174.163 31.0726 175.167 30.5145C176.172 29.9564 176.842 29.3982 177.4 28.6168C177.958 27.8354 178.07 27.1657 178.07 26.2726C178.07 24.9331 177.511 23.8168 176.395 23.0354C175.279 22.254 173.493 21.8075 171.149 21.8075C168.804 21.8075 169.028 21.8075 167.911 22.0308C166.795 22.1424 165.567 22.3657 164.451 22.4773C163.335 22.5889 162.107 22.8122 160.99 22.9238C159.874 23.0354 158.758 23.1471 157.753 23.1471C156.079 23.1471 154.516 22.9238 152.953 22.4773C151.39 22.0308 150.051 21.361 148.823 20.5796C147.595 19.7982 146.702 18.682 146.032 17.3424C145.363 16.0029 145.028 14.5517 145.028 12.8773C145.028 11.2029 145.139 10.868 145.474 9.86335C145.697 8.8587 146.144 7.85405 146.814 6.96102C147.372 6.068 148.265 5.17498 149.158 4.39358C150.163 3.61219 151.279 2.94242 152.73 2.38428C154.07 1.82614 155.744 1.37963 157.53 1.04474C159.316 0.70986 161.437 0.598232 163.67 0.598232C165.902 0.598232 167.018 0.598233 168.693 0.821488C170.367 1.04474 172.042 1.268 173.604 1.60288C175.167 1.93777 176.73 2.38428 178.181 2.83079C179.632 3.2773 181.083 3.83544 182.311 4.39358L178.963 10.5331C177.958 10.0866 176.73 9.64009 175.614 9.30521C174.386 8.8587 173.158 8.52381 171.818 8.30056C170.479 7.96567 169.139 7.74242 167.688 7.63079C166.237 7.51916 164.897 7.40753 163.335 7.40753C161.214 7.40753 159.539 7.51916 158.2 7.85405C156.86 8.18893 155.744 8.52381 154.963 8.97032C154.181 9.41684 153.623 9.97498 153.288 10.5331C152.953 11.0913 152.842 11.6494 152.842 12.3192C152.842 13.4354 153.288 14.3285 154.404 15.1099C155.409 15.7796 156.972 16.2261 158.981 16.2261C160.99 16.2261 160.767 16.2261 161.883 16.0029C163 15.8913 164.116 15.7796 165.232 15.5564C166.46 15.4447 167.576 15.3331 168.916 15.1099C170.144 14.9982 171.372 14.8866 172.488 14.8866C174.721 14.8866 176.618 15.1099 178.293 15.668C179.967 16.1145 181.418 16.8959 182.535 17.7889C183.651 18.682 184.544 19.7982 185.102 21.1378C185.66 22.4773 185.995 23.9285 185.995 25.4913C185.995 27.054 185.549 29.5099 184.544 31.2959C183.539 32.9703 182.088 34.4215 180.302 35.5378C178.516 36.654 176.283 37.5471 173.604 38.2168C171.037 38.775 168.135 39.1099 164.897 39.1099C161.66 39.1099 160.767 38.9982 158.758 38.6633C156.749 38.4401 154.851 37.9936 152.953 37.5471C151.167 37.1006 149.381 36.4308 147.707 35.761C146.032 35.0913 144.469 34.3099 143.13 33.5285L147.149 27.3889V27.1657Z" fill="white"/>
<path d="M200.73 7.63086H186.888V0.933187H222.051V7.63086H208.209V38.3285H200.618V7.63086H200.73Z" fill="white"/>
<path d="M129.511 45.0261C131.967 45.0261 134.088 45.2494 135.874 45.8075C137.66 46.3657 139.223 47.0354 140.339 47.9285C141.456 48.8215 142.46 49.9378 143.018 51.1657C143.576 52.3936 143.911 53.7331 143.911 55.1843C143.911 57.5285 143.13 59.6494 141.679 61.4354C143.353 62.4401 144.693 63.7796 145.474 65.454C146.367 67.1285 146.702 68.9145 146.702 71.0354C146.702 73.1564 146.367 74.3843 145.809 75.7238C145.251 77.175 144.358 78.2912 143.13 79.2959C141.902 80.3005 140.451 81.082 138.665 81.6401C136.879 82.1982 134.758 82.4215 132.302 82.4215H109.418V45.0261H129.511ZM132.414 59.3145C133.083 59.3145 133.753 59.3145 134.311 59.3145C135.428 58.3099 135.874 57.082 135.874 55.854C135.874 54.6261 135.316 53.3982 134.311 52.7285C133.195 51.9471 131.744 51.6122 129.623 51.6122H117.009V59.3145H132.414ZM132.525 75.7238C134.535 75.7238 136.097 75.2773 137.214 74.3843C138.218 73.4913 138.776 72.2633 138.776 70.7006C138.776 69.1378 138.218 67.9099 137.214 67.0168C136.097 66.1238 134.646 65.6773 132.525 65.6773H117.121V75.7238H132.525Z" fill="white"/>
<path d="M173.27 45.0263L191.354 82.4216H183.428L180.414 76.1705H158.535L155.633 82.4216H147.596L165.121 45.0263H173.27ZM177.4 69.8077L169.363 52.8402L161.549 69.8077H177.512H177.4Z" fill="white"/>
<path d="M200.73 73.0448L184.433 44.9145H193.028L204.526 66.1238L215.912 44.9145H224.507L208.433 72.9331V82.1982H200.842V72.9331L200.73 73.0448Z" fill="white"/>
<path d="M1.02758 31.0725C1.02758 30.0679 1.25083 29.0632 1.58572 28.2818C1.9206 27.3888 2.47874 26.6074 3.26013 26.0493C3.9299 25.3795 4.82293 24.933 5.9392 24.4865C6.94386 24.1516 8.17176 23.9283 9.5113 23.9283C10.8508 23.9283 11.7439 24.04 12.7485 24.2632C13.7532 24.4865 14.6462 24.8214 15.4276 25.3795L14.088 27.612C13.8648 27.5004 13.5299 27.2772 13.195 27.1655C12.8601 27.0539 12.5253 26.9423 12.1904 26.8307C11.8555 26.8307 11.409 26.719 11.0741 26.6074C10.6276 26.6074 10.2927 26.6074 9.95781 26.6074C9.06479 26.6074 8.17176 26.719 7.50199 26.9423C6.83223 27.1655 6.16246 27.5004 5.71595 27.9469C5.26944 28.3934 4.82293 28.84 4.59967 29.3981C4.37641 29.9562 4.26479 30.626 4.26479 31.2958C4.26479 31.9655 4.37641 32.6353 4.7113 33.1934C4.93455 33.7516 5.38106 34.3097 5.82758 34.7562C6.38572 35.2027 6.94385 35.5376 7.72525 35.7609C8.50665 35.9841 9.28804 36.0958 10.1811 36.0958C11.0741 36.0958 10.9625 36.0958 11.409 36.0958C11.8555 36.0958 12.1904 35.9841 12.6369 35.8725C12.9718 35.8725 13.4183 35.6493 13.7532 35.5376C14.088 35.426 14.4229 35.2027 14.7578 35.0911L16.0973 37.3237C15.3159 37.7702 14.4229 38.2167 13.4183 38.44C12.4136 38.6632 11.2973 38.8865 10.1811 38.8865C9.06479 38.8865 7.39037 38.6632 6.27409 38.3283C5.15781 37.9934 4.26479 37.4353 3.48339 36.7655C2.70199 36.0958 2.14386 35.3144 1.80897 34.4213C1.47409 33.5283 1.25083 32.5237 1.25083 31.519L1.02758 31.0725Z" fill="white"/>
<path d="M25.3628 24.0401H28.3768L35.2977 38.3284H32.2838L31.1675 35.9843H22.907L21.7907 38.3284H18.7768L25.4745 24.0401H25.3628ZM29.9396 33.5284L26.814 27.054L23.8 33.5284H29.9396Z" fill="white"/>
<path d="M38.9811 24.04H41.8834V35.7609H50.1439V38.3283H38.9811V24.04Z" fill="white"/>
<path d="M2.47874 55.0725C3.03688 55.4074 3.48339 55.6307 4.04153 55.8539C4.59967 56.0772 5.15781 56.3004 5.71595 56.412C6.27409 56.5237 6.83223 56.7469 7.50199 56.7469C8.17176 56.7469 8.84153 56.8586 9.5113 56.8586C10.1811 56.8586 11.0741 56.8586 11.7439 56.6353C12.302 56.6353 12.8601 56.412 13.195 56.1888C13.5299 55.9655 13.8648 55.7423 13.9764 55.519C14.088 55.2958 14.1997 54.9609 14.1997 54.626C14.1997 54.0679 13.9764 53.733 13.5299 53.3981C13.0834 53.0632 12.4136 52.9516 11.5206 52.9516C10.6276 52.9516 10.7392 52.9516 10.2927 52.9516C9.84618 52.9516 9.39967 52.9516 8.95316 53.1748C8.50665 53.1748 8.06013 53.2865 7.61362 53.3981C7.16711 53.3981 6.7206 53.3981 6.38572 53.3981C5.71595 53.3981 5.15781 53.3981 4.59967 53.1748C4.04153 53.0632 3.48339 52.7283 3.03688 52.3934C2.59037 52.0586 2.25548 51.612 1.9206 51.1655C1.69734 50.719 1.47409 50.0493 1.47409 49.4911C1.47409 48.933 1.47409 48.7097 1.58572 48.3748C1.58572 48.04 1.80897 47.5934 2.14386 47.2586C2.36711 46.9237 2.70199 46.5888 3.03688 46.2539C3.37176 45.919 3.81827 45.6958 4.37641 45.4725C4.93455 45.2493 5.49269 45.1376 6.16246 44.9144C6.83223 44.8027 7.61362 44.6911 8.50665 44.6911C9.39967 44.6911 9.73455 44.6911 10.4043 44.6911C11.0741 44.6911 11.6322 44.9144 12.302 45.026C12.9718 45.1376 13.5299 45.3609 14.088 45.4725C14.6462 45.6958 15.2043 45.8074 15.6508 46.0307L14.4229 48.3748C13.9764 48.1516 13.6415 48.04 13.0834 47.9283C12.6369 47.8167 12.1904 47.7051 11.6322 47.5934C11.0741 47.5934 10.6276 47.3702 10.0694 47.3702C9.5113 47.3702 8.95316 47.3702 8.39502 47.3702C7.61362 47.3702 6.94386 47.3702 6.38572 47.5934C5.82758 47.7051 5.49269 47.8167 5.15781 48.04C4.82293 48.2632 4.59967 48.3748 4.48804 48.5981C4.37641 48.8214 4.26479 49.0446 4.26479 49.2679C4.26479 49.7144 4.48804 50.0493 4.82293 50.2725C5.15781 50.4958 5.82758 50.719 6.60897 50.719C7.39037 50.719 7.27874 50.719 7.72525 50.719C8.17176 50.719 8.61827 50.719 9.06479 50.6074C9.5113 50.6074 9.95781 50.6074 10.4043 50.4958C10.8508 50.4958 11.2973 50.4958 11.7439 50.4958C12.6369 50.4958 13.3066 50.4958 13.9764 50.8307C14.6462 51.0539 15.2043 51.2772 15.6508 51.612C16.0973 51.9469 16.4322 52.3934 16.6555 52.84C16.8787 53.2865 16.9904 53.8446 16.9904 54.5144C16.9904 55.1841 16.7671 56.0772 16.4322 56.7469C16.0973 57.4167 15.5392 57.9748 14.7578 58.4214C14.088 58.8679 13.195 59.2027 12.1904 59.426C11.1857 59.6493 10.0694 59.7609 8.84153 59.7609C7.61362 59.7609 7.27874 59.7609 6.49734 59.6493C5.71595 59.5376 5.04618 59.426 4.26479 59.2027C3.59502 58.9795 2.92525 58.7562 2.25548 58.533C1.58572 58.3097 1.02758 57.9748 0.469437 57.64L2.03223 55.2958L2.47874 55.0725Z" fill="white"/>
<path d="M25.5857 47.5934H20.3392V45.026H33.7346V47.5934H28.488V59.3144H25.5857V47.5934Z" fill="white"/>
<path d="M42.3304 45.026H45.3443L52.2653 59.3144H49.2513L48.135 56.9702H39.8746L38.7583 59.3144H35.7443L42.442 45.026H42.3304ZM47.0187 54.5144L43.8932 48.04L40.8792 54.5144H47.0187Z" fill="white"/>
<path d="M59.5206 47.5934H54.2741V45.026H67.6694V47.5934H62.4229V59.3144H59.5206V47.5934Z" fill="white"/>
<path d="M72.8039 45.0259H84.9713V47.5933H75.7062V50.384H83.855V52.7282H75.7062V56.6352H85.083V59.2026H72.8039V44.9143V45.0259Z" fill="white"/>
</svg>
