<svg width="303" height="90" viewBox="0 0 303 90" fill="none" xmlns="http://www.w3.org/2000/svg">
<path d="M179.021 60.0549L178.709 61.8212L178.397 60.0549C177.774 57.1457 175.488 54.8599 172.579 54.2365L170.812 53.9248L172.579 53.6131C175.488 52.9897 177.774 50.7038 178.397 47.7946L178.709 46.0283L179.021 47.7946C179.644 50.7038 181.93 52.9897 184.839 53.6131L186.605 53.9248L184.839 54.2365C181.93 54.8599 179.644 57.1457 179.021 60.0549Z" fill="#D50032"/>
<path d="M147.02 6.75311H176.631V12.9871H154.085V19.9485H174.034V25.7669H154.085V35.4297H177.151V41.5598H147.02V6.75311Z" fill="white"/>
<path d="M203.957 6.75317L220.789 41.5599H213.412L210.606 35.7414H190.242L187.54 41.5599H180.06L196.372 6.75317H203.957ZM207.801 29.923L200.32 14.1301L193.047 29.923H207.905H207.801Z" fill="white"/>
<path d="M225.568 31.1697C226.815 31.897 228.062 32.5204 229.413 33.1438C230.659 33.6634 232.01 34.1829 233.465 34.5985C234.816 35.0141 236.374 35.3258 237.829 35.5336C239.387 35.7414 241.05 35.8453 242.712 35.8453C244.374 35.8453 246.556 35.7414 248.011 35.4297C249.465 35.118 250.712 34.8063 251.647 34.2868C252.583 33.7673 253.206 33.2477 253.725 32.5204C254.141 31.897 254.349 31.1697 254.349 30.3385C254.349 29.0917 253.829 28.0527 252.79 27.3254C251.751 26.5981 250.089 26.1825 247.907 26.1825C245.725 26.1825 245.933 26.1825 244.894 26.3903C243.855 26.4942 242.712 26.702 241.673 26.8059C240.53 26.9098 239.491 27.1176 238.452 27.2215C237.413 27.3254 236.374 27.4293 235.439 27.4293C233.88 27.4293 232.426 27.2215 230.971 26.8059C229.517 26.3903 228.27 25.7669 227.127 25.0396C225.984 24.2084 225.153 23.2733 224.529 22.0265C223.906 20.7797 223.594 19.429 223.594 17.8705C223.594 16.312 223.698 16.0003 224.01 15.0652C224.322 14.13 224.633 13.1949 225.257 12.3637C225.88 11.5325 226.607 10.7013 227.439 9.97403C228.374 9.24672 229.413 8.62332 230.763 8.10382C232.01 7.58431 233.569 7.16871 235.231 6.85701C236.894 6.54531 238.868 6.44141 240.946 6.44141C243.024 6.44141 244.063 6.44141 245.621 6.64921C247.18 6.85701 248.738 7.06481 250.193 7.37651C251.647 7.68821 253.102 8.10382 254.453 8.51942C255.803 8.93502 257.154 9.45452 258.297 9.97403L255.18 15.6886C254.245 15.273 253.102 14.8574 252.063 14.5456C250.92 14.13 249.777 13.8183 248.53 13.6105C247.284 13.4027 246.037 13.091 244.686 12.9871C243.335 12.8832 241.985 12.7793 240.634 12.7793C238.66 12.7793 237.101 12.8832 235.855 13.1949C234.608 13.5066 233.569 13.8183 232.841 14.2339C232.114 14.6495 231.595 15.1691 231.283 15.6886C230.971 16.2081 230.867 16.7276 230.867 17.351C230.867 18.39 231.387 19.2212 232.322 19.9485C233.257 20.5719 234.712 20.9875 236.582 20.9875C238.452 20.9875 238.244 20.9875 239.283 20.7797C240.322 20.6758 241.361 20.5719 242.4 20.3641C243.543 20.2602 244.582 20.1563 245.829 19.9485C246.972 19.8446 248.115 19.7407 249.154 19.7407C251.232 19.7407 252.998 19.9485 254.557 20.468C256.115 20.8836 257.466 21.6109 258.505 22.4421C259.544 23.2733 260.375 24.3123 260.895 25.5591C261.414 26.8059 261.726 28.1566 261.726 29.6112C261.726 31.0658 261.31 33.3516 260.375 35.0141C259.44 36.5726 258.089 37.9233 256.427 38.9623C254.764 40.0013 252.686 40.8325 250.193 41.4559C247.803 41.9754 245.102 42.2871 242.089 42.2871C239.075 42.2871 238.244 42.1832 236.374 41.8715C234.504 41.6637 232.738 41.2481 230.971 40.8325C229.205 40.4169 227.646 39.7935 226.088 39.1701C224.529 38.5467 223.075 37.8194 221.828 37.0921L225.568 31.3775V31.1697Z" fill="white"/>
<path d="M275.44 12.9872H262.557V6.75317H295.285V12.9872H282.402V41.5599H275.336V12.9872H275.44Z" fill="white"/>
<path d="M209.152 47.7938C211.438 47.7938 213.412 48.0016 215.074 48.5211C216.737 49.0406 218.191 49.664 219.23 50.4952C220.373 51.3264 221.205 52.3655 221.724 53.5084C222.244 54.6513 222.555 55.8981 222.555 57.2488C222.555 59.4307 221.828 61.4048 220.477 63.0672C222.036 64.0023 223.283 65.2491 224.01 66.8076C224.737 68.3661 225.153 70.0286 225.153 72.0027C225.153 73.9768 224.841 75.1197 224.322 76.3665C223.802 77.6133 222.971 78.7562 221.828 79.6913C220.685 80.6264 219.334 81.3537 217.672 81.8732C216.009 82.3927 214.035 82.6005 211.75 82.6005H190.45V47.7938H209.152ZM211.853 61.0931C212.477 61.0931 213.1 61.0931 213.62 61.0931C214.659 60.158 215.074 59.0151 215.074 57.8722C215.074 56.7293 214.555 55.5864 213.62 54.963C212.581 54.2357 211.23 53.924 209.256 53.924H197.515V61.0931H211.853ZM211.957 76.3665C213.828 76.3665 215.282 75.9509 216.321 75.1197C217.36 74.2885 217.776 73.1456 217.776 71.691C217.776 70.2363 217.256 69.0934 216.321 68.2622C215.386 67.431 213.931 67.0154 211.957 67.0154H197.619V76.3665H211.957Z" fill="white"/>
<path d="M249.882 47.7939L266.713 82.6006H259.336L256.531 76.7822H236.167L233.465 82.6006H225.984L242.297 47.7939H249.882ZM253.726 70.8599L246.245 55.067L238.972 70.8599H253.83H253.726Z" fill="white"/>
<path d="M275.441 73.8729L260.271 47.6899H268.272L278.974 67.431L289.571 47.6899H297.572L282.61 73.769V82.3927H275.545V73.769L275.441 73.8729Z" fill="white"/>
<path d="M5.92188 34.8062C5.92188 33.8711 6.12968 32.936 6.44138 32.2087C6.75308 31.3774 7.27258 30.6501 7.99989 30.1306C8.72719 29.5072 9.45449 29.0916 10.4935 28.676C11.4286 28.3643 12.5715 28.1565 13.8183 28.1565C15.0651 28.1565 15.8963 28.2604 16.8314 28.4682C17.7665 28.676 18.5977 28.9877 19.325 29.5072L18.0782 31.5852C17.8704 31.4813 17.5587 31.2735 17.247 31.1696C16.9353 31.0657 16.6236 30.9618 16.3119 30.8579C16.0002 30.8579 15.5846 30.754 15.2729 30.6501C14.8573 30.6501 14.5456 30.6501 14.2339 30.6501C13.4027 30.6501 12.5715 30.754 11.9481 30.9618C11.3247 31.1696 10.7013 31.4813 10.2857 31.897C9.8701 32.3126 9.45449 32.7282 9.24669 33.2477C9.03889 33.7672 8.93499 34.3906 8.93499 35.014C8.93499 35.6374 9.03889 36.2608 9.35059 36.7803C9.55839 37.2998 9.974 37.8193 10.3896 38.2349C10.9091 38.6505 11.4286 38.9622 12.1559 39.17C12.8832 39.3778 13.6105 39.4817 14.4417 39.4817C15.2729 39.4817 15.169 39.4817 15.5846 39.4817C16.0002 39.4817 16.3119 39.3778 16.7275 39.2739C17.0392 39.2739 17.4548 39.0661 17.7665 38.9622C18.0782 38.8583 18.3899 38.6505 18.7016 38.5466L19.9485 40.6246C19.2211 41.0402 18.3899 41.4558 17.4548 41.6636C16.5197 41.8714 15.4807 42.0792 14.4417 42.0792C13.4027 42.0792 11.8442 41.8714 10.8052 41.5597C9.7662 41.248 8.93499 40.7285 8.20769 40.1051C7.48038 39.4817 6.96088 38.7544 6.64918 37.9232C6.33748 37.092 6.12968 36.1569 6.12968 35.2218L5.92188 34.8062Z" fill="white"/>
<path d="M27.8449 28.2604H30.6502L37.092 41.5597H34.2867L33.2477 39.3778H25.5591L24.5201 41.5597H21.7148L27.9488 28.2604H27.8449ZM32.2087 37.092L29.2995 31.0657L26.4942 37.092H32.2087Z" fill="white"/>
<path d="M40.1055 28.2605H42.8069V39.1701H50.4955V41.5598H40.1055V28.2605Z" fill="white"/>
<path d="M60.6778 37.6115C61.1973 37.9232 61.6129 38.131 62.1324 38.3388C62.6519 38.5466 63.1714 38.7544 63.6909 38.8583C64.2104 38.9622 64.73 39.17 65.3534 39.17C65.9768 39.17 66.6002 39.2739 67.2236 39.2739C67.847 39.2739 68.6782 39.2739 69.3016 39.0661C69.8211 39.0661 70.3406 38.8583 70.6523 38.6505C70.964 38.4427 71.2757 38.2349 71.3796 38.0271C71.4835 37.8193 71.5874 37.5076 71.5874 37.1959C71.5874 36.6764 71.3796 36.3647 70.964 36.053C70.5484 35.7413 69.925 35.6374 69.0938 35.6374C68.2626 35.6374 68.3665 35.6374 67.9509 35.6374C67.5353 35.6374 67.1197 35.6374 66.7041 35.8452C66.2885 35.8452 65.8729 35.9491 65.4573 36.053C65.0417 36.053 64.6261 36.053 64.3144 36.053C63.6909 36.053 63.1714 36.053 62.6519 35.8452C62.1324 35.7413 61.6129 35.4296 61.1973 35.1179C60.7817 34.8062 60.47 34.3906 60.1583 33.975C59.9505 33.5594 59.7427 32.936 59.7427 32.4165C59.7427 31.897 59.7427 31.6892 59.8466 31.3775C59.8466 31.0658 60.0544 30.6501 60.3661 30.3384C60.5739 30.0267 60.8856 29.715 61.1973 29.4033C61.509 29.0916 61.9246 28.8838 62.4441 28.676C62.9636 28.4682 63.4831 28.3643 64.1065 28.1565C64.7299 28.0526 65.4573 27.9487 66.2885 27.9487C67.1197 27.9487 67.4314 27.9487 68.0548 27.9487C68.6782 27.9487 69.1977 28.1565 69.8211 28.2604C70.4445 28.3643 70.964 28.5721 71.4835 28.676C72.003 28.8838 72.5225 28.9877 72.9381 29.1955L71.7952 31.3775C71.3796 31.1696 71.0679 31.0657 70.5484 30.9618C70.1328 30.8579 69.7172 30.754 69.1977 30.6501C68.6782 30.6501 68.2626 30.4423 67.7431 30.4423C67.2236 30.4423 66.7041 30.4423 66.1846 30.4423C65.4573 30.4423 64.8339 30.4423 64.3144 30.6501C63.7948 30.754 63.4831 30.8579 63.1714 31.0657C62.8597 31.2736 62.6519 31.3774 62.548 31.5853C62.4441 31.7931 62.3402 32.0009 62.3402 32.2087C62.3402 32.6243 62.548 32.936 62.8597 33.1438C63.1714 33.3516 63.7948 33.5594 64.5221 33.5594C65.2495 33.5594 65.1455 33.5594 65.5612 33.5594C65.9768 33.5594 66.3924 33.5594 66.808 33.4555C67.2236 33.4555 67.6392 33.4555 68.0548 33.3516C68.4704 33.3516 68.886 33.3516 69.3016 33.3516C70.1328 33.3516 70.7562 33.3516 71.3796 33.6633C72.003 33.8711 72.5225 34.0789 72.9381 34.3906C73.3537 34.7023 73.6654 35.1179 73.8732 35.5335C74.081 35.9491 74.1849 36.4686 74.1849 37.092C74.1849 37.7154 73.9771 38.5466 73.6654 39.17C73.3537 39.7934 72.8342 40.3129 72.1069 40.7285C71.4835 41.1441 70.6523 41.4558 69.7172 41.6636C68.7821 41.8714 67.7431 41.9753 66.6002 41.9753C65.4573 41.9753 65.1455 41.9753 64.4182 41.8714C63.6909 41.7675 63.0675 41.6636 62.3402 41.4558C61.7168 41.248 61.0934 41.0402 60.47 40.8324C59.8466 40.6246 59.3271 40.3129 58.8076 40.0012L60.2622 37.8193L60.6778 37.6115Z" fill="white"/>
<path d="M82.0806 30.6502H77.1973V28.2605H89.6653V30.6502H84.782V41.5598H82.0806V30.6502Z" fill="white"/>
<path d="M97.1466 28.2604H99.9519L106.394 41.5597H103.588L102.549 39.3778H94.8607L93.8217 41.5597H91.0164L97.2505 28.2604H97.1466ZM101.51 37.092L98.6012 31.0657L95.7959 37.092H101.51Z" fill="white"/>
<path d="M112.627 30.6502H107.744V28.2605H120.212V30.6502H115.329V41.5598H112.627V30.6502Z" fill="white"/>
<path d="M123.849 28.2604H135.174V30.6501H126.55V33.2476H134.135V35.4295H126.55V39.0661H135.278V41.4558H123.849V28.1565V28.2604Z" fill="white"/>
<path d="M22.6494 47.7937H25.3508V55.0667C25.3508 55.6901 25.3508 56.2096 25.5586 56.6252C25.7664 57.0409 25.9742 57.4565 26.2859 57.7682C26.5976 58.0799 27.0132 58.2877 27.5327 58.4955C28.0522 58.7033 28.5717 58.7033 29.1952 58.7033C29.8186 58.7033 30.3381 58.7033 30.8576 58.4955C31.3771 58.2877 31.7927 58.0799 32.1044 57.7682C32.4161 57.4565 32.6239 57.0409 32.8317 56.6252C33.0395 56.2096 33.0395 55.5862 33.0395 55.0667V47.7937H35.7409V55.3784C35.7409 56.2096 35.637 57.0409 35.3253 57.7682C35.0136 58.4955 34.598 59.1189 34.0785 59.6384C33.559 60.1579 32.8317 60.5735 32.0005 60.7813C31.1693 61.093 30.2342 61.1969 29.1952 61.1969C28.1561 61.1969 27.221 61.093 26.3898 60.7813C25.5586 60.4696 24.9352 60.1579 24.3118 59.6384C23.6884 59.1189 23.3767 58.4955 23.065 57.7682C22.7533 57.0409 22.6494 56.3135 22.6494 55.3784V47.7937Z" fill="white"/>
<path d="M40.1055 47.7937H42.8069L51.015 52.1575V47.7937H53.7164V61.093H51.015V54.9628L42.8069 50.7029V61.093H40.1055V47.7937Z" fill="white"/>
<path d="M58.1836 47.7937H60.885V61.093H58.1836V47.7937Z" fill="white"/>
<path d="M63.5867 47.7937H66.5998L70.7558 57.8721L74.9118 47.7937H77.925L72.1065 61.093H69.4051L63.5867 47.7937Z" fill="white"/>
<path d="M80.9385 47.7938H92.2636V50.1836H83.6399V52.7811H91.2246V54.963H83.6399V58.5995H92.3675V60.9892H80.9385V47.6899V47.7938Z" fill="white"/>
<path d="M96.4193 47.7937H103.173C104.212 47.7937 105.043 47.8976 105.77 48.1054C106.498 48.3132 107.121 48.6249 107.641 49.0405C108.16 49.4561 108.472 49.9756 108.783 50.4951C108.991 51.1185 109.095 51.742 109.095 52.4693C109.095 53.1966 109.095 53.4044 108.887 53.9239C108.783 54.3395 108.576 54.7551 108.368 55.1707C108.16 55.5863 107.848 55.898 107.433 56.2097C107.017 56.5214 106.602 56.7292 106.082 56.937L108.991 61.1969H105.666L103.173 57.4565H99.0168V61.1969H96.3154V47.8976L96.4193 47.7937ZM103.277 54.9629C103.796 54.9629 104.212 54.9629 104.627 54.7551C105.043 54.5473 105.355 54.4434 105.563 54.2356C105.77 54.0278 105.978 53.7161 106.186 53.4044C106.29 53.0927 106.394 52.781 106.394 52.3654C106.394 51.6381 106.186 51.0147 105.666 50.5991C105.147 50.1834 104.42 49.9756 103.381 49.9756H99.2246V54.7551H103.381L103.277 54.9629Z" fill="white"/>
<path d="M113.978 57.1448C114.498 57.4565 114.914 57.6643 115.433 57.8721C115.953 58.0799 116.472 58.2877 116.992 58.3916C117.511 58.4955 118.031 58.7033 118.654 58.7033C119.277 58.7033 119.901 58.8072 120.524 58.8072C121.148 58.8072 121.979 58.8072 122.602 58.5994C123.122 58.5994 123.641 58.3916 123.953 58.1838C124.265 57.976 124.576 57.7682 124.68 57.5604C124.784 57.3526 124.888 57.0409 124.888 56.7292C124.888 56.2097 124.68 55.898 124.265 55.5863C123.849 55.2746 123.226 55.1707 122.394 55.1707C121.563 55.1707 121.667 55.1707 121.251 55.1707C120.836 55.1707 120.42 55.1707 120.005 55.3785C119.589 55.3785 119.173 55.4824 118.758 55.5863C118.342 55.5863 117.927 55.5863 117.615 55.5863C116.992 55.5863 116.472 55.5863 115.953 55.3785C115.433 55.2746 114.914 54.9629 114.498 54.6512C114.082 54.3395 113.771 53.9239 113.459 53.5083C113.251 53.0927 113.043 52.4693 113.043 51.9498C113.043 51.4303 113.043 51.2225 113.147 50.9108C113.147 50.599 113.355 50.1834 113.667 49.8717C113.875 49.56 114.186 49.2483 114.498 48.9366C114.81 48.6249 115.225 48.4171 115.745 48.2093C116.264 48.0015 116.784 47.8976 117.407 47.6898C118.031 47.5859 118.758 47.482 119.589 47.482C120.42 47.482 120.732 47.482 121.355 47.482C121.979 47.482 122.498 47.6898 123.122 47.7937C123.745 47.8976 124.265 48.1054 124.784 48.2093C125.304 48.4171 125.823 48.521 126.239 48.7288L125.096 50.9108C124.68 50.7029 124.369 50.599 123.849 50.4951C123.433 50.3912 123.018 50.2873 122.498 50.1834C121.979 50.1834 121.563 49.9756 121.044 49.9756C120.524 49.9756 120.005 49.9756 119.485 49.9756C118.758 49.9756 118.134 49.9756 117.615 50.1834C117.095 50.2873 116.784 50.3913 116.472 50.5991C116.16 50.8069 115.953 50.9108 115.849 51.1186C115.745 51.3264 115.641 51.5342 115.641 51.742C115.641 52.1576 115.849 52.4693 116.16 52.6771C116.472 52.8849 117.095 53.0927 117.823 53.0927C118.55 53.0927 118.446 53.0927 118.862 53.0927C119.277 53.0927 119.693 53.0927 120.109 52.9888C120.524 52.9888 120.94 52.9888 121.355 52.8849C121.771 52.8849 122.187 52.8849 122.602 52.8849C123.433 52.8849 124.057 52.8849 124.68 53.1966C125.304 53.4044 125.823 53.6122 126.239 53.9239C126.654 54.2356 126.966 54.6512 127.174 55.0668C127.382 55.4824 127.486 56.0019 127.486 56.6253C127.486 57.2487 127.278 58.0799 126.966 58.7033C126.654 59.3267 126.135 59.8462 125.408 60.2618C124.784 60.6774 123.953 60.9891 123.018 61.1969C122.083 61.4047 121.044 61.5086 119.901 61.5086C118.758 61.5086 118.446 61.5086 117.719 61.4047C116.992 61.3008 116.368 61.1969 115.641 60.9891C115.017 60.7813 114.394 60.5735 113.771 60.3657C113.147 60.1579 112.628 59.8462 112.108 59.5345L113.563 57.3526L113.978 57.1448Z" fill="white"/>
<path d="M131.434 47.7937H134.135V61.093H131.434V47.7937Z" fill="white"/>
<path d="M142.655 50.1834H137.772V47.7937H150.24V50.1834H145.356V61.093H142.655V50.1834Z" fill="white"/>
<path d="M158.24 57.7682L152.422 47.7937H155.435L159.487 55.3785L163.539 47.7937H166.552L160.838 57.7682V61.093H158.136V57.7682H158.24Z" fill="white"/>
</svg>
