<svg width="494" height="121" viewBox="0 0 494 121" fill="none" xmlns="http://www.w3.org/2000/svg">
<path d="M87.8469 120.065H83.8225L-0.00170898 0.353516H4.02173L87.8469 120.065ZM109.133 120.065H105.111L21.2883 0.353516H25.3118L109.133 120.065ZM130.42 120.065H126.397L42.5745 0.353516H46.5979L130.42 120.065ZM151.706 120.065H147.683L63.8616 0.353516H67.884L151.706 120.065ZM172.993 120.065H168.97L85.1477 0.353516H89.1711L172.993 120.065ZM194.285 120.065H190.262L106.438 0.353516H110.46L194.285 120.065ZM215.573 120.065H211.548L127.724 0.353516H131.747L215.573 120.065ZM236.859 120.065H232.836L149.014 0.353516H153.037L236.859 120.065ZM258.146 120.065H254.122L170.3 0.353516H174.323L258.146 120.065ZM279.432 120.065H275.409L191.587 0.353516H195.611L279.432 120.065ZM300.725 120.065H296.701L212.876 0.353516H216.9L300.725 120.065ZM322.012 120.065H317.988L234.163 0.353516H238.187L322.012 120.065ZM343.298 120.065H339.274L255.449 0.353516H259.473L343.298 120.065ZM364.584 120.065H360.562L276.74 0.353516H280.763L364.584 120.065ZM385.871 120.065H381.848L298.027 0.353516H302.049L385.871 120.065ZM407.157 120.065H403.135L319.313 0.353516H323.336L407.157 120.065ZM428.45 120.065H424.426L340.602 0.353516H344.625L428.45 120.065ZM449.738 120.065H445.713L361.889 0.353516H365.912L449.738 120.065ZM471.024 120.065H466.999L383.175 0.353516H387.198L471.024 120.065ZM492.311 120.065H488.287L404.465 0.353516H408.489L492.311 120.065ZM513.597 120.065H509.573L425.752 0.353516H429.775L513.597 120.065ZM534.89 120.065H530.865L447.041 0.353516H451.065L534.89 120.065ZM556.176 120.065H552.153L468.327 0.353516H472.351L556.176 120.065Z" fill="#D50032"/>
</svg>
