<svg width="248" height="112" viewBox="0 0 248 112" fill="none" xmlns="http://www.w3.org/2000/svg">
<path d="M79.4365 111.141H77.4736L0 0.5H1.96289L79.4365 111.141ZM89.8262 111.141H87.8633L10.3926 0.5H12.3555L89.8262 111.141ZM100.215 111.141H98.252L20.7812 0.5H22.7441L100.215 111.141ZM110.604 111.141H108.641L31.1699 0.5H33.1328L110.604 111.141ZM120.992 111.141H119.029L41.5586 0.5H43.5215L120.992 111.141ZM131.383 111.141H129.42L51.9473 0.5H53.9102L131.383 111.141ZM141.771 111.141H139.809L62.3359 0.5H64.2988L141.771 111.141ZM152.161 111.141H150.198L72.7275 0.5H74.6904L152.161 111.141ZM162.55 111.141H160.587L83.1162 0.5H85.0791L162.55 111.141ZM172.938 111.141H170.976L93.5049 0.5H95.4678L172.938 111.141ZM183.329 111.141H181.366L103.894 0.5H105.856L183.329 111.141ZM193.718 111.141H191.755L114.282 0.5H116.245L193.718 111.141ZM204.106 111.141H202.144L124.671 0.5H126.634L204.106 111.141ZM214.496 111.141H212.533L135.062 0.5H137.025L214.496 111.141ZM224.885 111.141H222.922L145.451 0.5H147.414L224.885 111.141ZM235.273 111.141H233.311L155.84 0.5H157.803L235.273 111.141ZM245.664 111.141H243.701L166.229 0.5H168.191L245.664 111.141ZM256.053 111.141H254.09L176.617 0.5H178.58L256.053 111.141ZM266.441 111.141H264.479L187.006 0.5H188.969L266.441 111.141ZM276.831 111.141H274.867L197.396 0.5H199.36L276.831 111.141ZM287.22 111.141H285.256L207.785 0.5H209.749L287.22 111.141ZM297.61 111.141H295.647L218.175 0.5H220.138L297.61 111.141ZM307.999 111.141H306.036L228.563 0.5H230.526L307.999 111.141Z" fill="#D50032"/>
</svg>
