<svg width="261" height="279" viewBox="0 0 261 279" fill="none" xmlns="http://www.w3.org/2000/svg">
<path d="M246.113 270.87C246.113 270.87 249.278 270.87 253.178 270.87C257.078 270.87 260.242 270.87 260.242 270.87C260.242 274.772 257.078 277.938 253.178 277.938C249.278 277.938 246.113 274.772 246.113 270.87Z" fill="url(#paint0_linear_12754_71308)" fill-opacity="0.15"/>
<path d="M246.113 248.686C246.113 248.686 249.278 248.686 253.178 248.686C257.078 248.686 260.242 248.686 260.242 248.686C260.242 252.588 257.078 255.754 253.178 255.754C249.278 255.754 246.113 252.588 246.113 248.686Z" fill="url(#paint1_linear_12754_71308)" fill-opacity="0.15"/>
<path d="M247.626 224.415L254.311 226.692C258.004 227.947 260.996 228.968 260.996 228.968C259.741 232.662 255.729 234.64 252.036 233.38C248.344 232.125 246.367 228.11 247.626 224.415Z" fill="url(#paint2_linear_12754_71308)" fill-opacity="0.15"/>
<path d="M249.491 198.776L255.233 202.89C258.406 205.162 260.974 207.005 260.974 207.005C258.704 210.18 254.294 210.911 251.121 208.639C247.947 206.368 247.216 201.955 249.487 198.78L249.491 198.776Z" fill="url(#paint3_linear_12754_71308)" fill-opacity="0.15"/>
<path d="M251.485 172.408C251.485 172.408 253.471 174.87 255.926 177.905C258.377 180.94 260.368 183.401 260.368 183.401C257.335 185.854 252.888 185.384 250.437 182.349C247.986 179.314 248.456 174.865 251.489 172.413L251.485 172.408Z" fill="url(#paint4_linear_12754_71308)" fill-opacity="0.15"/>
<path d="M253.549 145.866L256.406 152.329C257.986 155.897 259.263 158.792 259.263 158.792C255.697 160.373 251.527 158.76 249.947 155.192C248.367 151.624 249.978 147.451 253.544 145.87L253.549 145.866Z" fill="url(#paint5_linear_12754_71308)" fill-opacity="0.15"/>
<path d="M228.957 145.843L231.588 152.401C233.042 156.023 234.22 158.959 234.22 158.959C230.6 160.413 226.488 158.656 225.034 155.034C223.581 151.412 225.337 147.297 228.957 145.843Z" fill="url(#paint6_linear_12754_71308)" fill-opacity="0.15"/>
<path d="M204.369 145.829L206.77 152.473C208.097 156.145 209.172 159.117 209.172 159.117C205.502 160.445 201.453 158.543 200.131 154.876C198.803 151.204 200.704 147.153 204.369 145.829Z" fill="url(#paint7_linear_12754_71308)" fill-opacity="0.15"/>
<path d="M179.782 145.834C179.782 145.834 180.752 148.846 181.948 152.559C183.145 156.271 184.115 159.284 184.115 159.284C180.405 160.481 176.423 158.444 175.227 154.727C174.031 151.014 176.067 147.031 179.782 145.834Z" fill="url(#paint8_linear_12754_71308)" fill-opacity="0.15"/>
<path d="M155.195 145.847C155.195 145.847 156.061 148.891 157.126 152.645C158.192 156.398 159.058 159.442 159.058 159.442C155.307 160.508 151.398 158.331 150.333 154.578C149.268 150.824 151.444 146.913 155.195 145.847Z" fill="url(#paint9_linear_12754_71308)" fill-opacity="0.15"/>
<path d="M130.614 145.875L132.307 152.735C133.241 156.524 134 159.595 134 159.595C130.212 160.53 126.385 158.218 125.45 154.429C124.516 150.639 126.827 146.809 130.614 145.875Z" fill="url(#paint10_linear_12754_71308)" fill-opacity="0.15"/>
<path d="M106.025 145.91L107.479 152.825C108.282 156.646 108.932 159.74 108.932 159.74C105.113 160.544 101.371 158.096 100.568 154.279C99.7643 150.459 102.211 146.714 106.025 145.91Z" fill="url(#paint11_linear_12754_71308)" fill-opacity="0.15"/>
<path d="M81.4428 145.965L82.6525 152.925C83.3206 156.768 83.8622 159.885 83.8622 159.885C80.0209 160.553 76.3602 157.979 75.6921 154.135C75.0241 150.292 77.597 146.629 81.4383 145.961L81.4428 145.965Z" fill="url(#paint12_linear_12754_71308)" fill-opacity="0.15"/>
<path d="M57.1045 146.1L57.8268 153.128C58.224 157.012 58.549 160.155 58.549 160.155C54.6671 160.553 51.2004 157.73 50.7987 153.851C50.4015 149.966 53.2226 146.498 57.1 146.096L57.1045 146.1Z" fill="url(#paint13_linear_12754_71308)" fill-opacity="0.15"/>
<path d="M32.7623 146.29L32.9925 153.354C33.1189 157.256 33.2227 160.417 33.2227 160.417C29.3227 160.544 26.0592 157.486 25.9328 153.584C25.8064 149.682 28.8623 146.417 32.7623 146.29Z" fill="url(#paint14_linear_12754_71308)" fill-opacity="0.15"/>
<path d="M8.41818 146.529C8.41818 146.529 8.30081 149.691 8.15637 153.593C8.01193 157.495 7.89458 160.657 7.89458 160.657C3.9946 160.512 0.952271 157.233 1.09671 153.331C1.24115 149.429 4.51822 146.385 8.41818 146.529Z" fill="url(#paint15_linear_12754_71308)" fill-opacity="0.15"/>
<path d="M226.879 172.3C226.879 172.3 228.78 174.829 231.123 177.95C233.465 181.071 235.366 183.6 235.366 183.6C232.246 185.944 227.818 185.321 225.476 182.2C223.133 179.079 223.756 174.649 226.875 172.305L226.879 172.3Z" fill="url(#paint16_linear_12754_71308)" fill-opacity="0.15"/>
<path d="M202.274 172.205C202.274 172.205 204.084 174.798 206.319 178C208.553 181.198 210.363 183.795 210.363 183.795C207.167 186.03 202.762 185.249 200.527 182.051C198.293 178.854 199.074 174.446 202.27 172.21L202.274 172.205Z" fill="url(#paint17_linear_12754_71308)" fill-opacity="0.15"/>
<path d="M177.904 172.047C177.904 172.047 179.529 174.762 181.538 178.108C183.542 181.455 185.172 184.169 185.172 184.169C181.827 186.175 177.489 185.091 175.48 181.744C173.476 178.397 174.56 174.057 177.904 172.047Z" fill="url(#paint18_linear_12754_71308)" fill-opacity="0.15"/>
<path d="M153.54 171.93C153.54 171.93 154.971 174.748 156.741 178.23C158.51 181.708 159.941 184.531 159.941 184.531C156.465 186.301 152.213 184.914 150.444 181.432C148.674 177.955 150.06 173.7 153.54 171.93Z" fill="url(#paint19_linear_12754_71308)" fill-opacity="0.15"/>
<path d="M129.182 171.857C129.182 171.857 130.414 174.771 131.935 178.366C133.456 181.961 134.689 184.874 134.689 184.874C131.096 186.396 126.952 184.716 125.431 181.121C123.91 177.526 125.589 173.379 129.182 171.857Z" fill="url(#paint20_linear_12754_71308)" fill-opacity="0.15"/>
<path d="M104.829 171.831C104.829 171.831 105.853 174.825 107.122 178.515C108.39 182.205 109.415 185.199 109.415 185.199C105.727 186.468 101.709 184.499 100.441 180.809C99.1727 177.119 101.141 173.1 104.829 171.831Z" fill="url(#paint21_linear_12754_71308)" fill-opacity="0.15"/>
<path d="M80.4824 171.853C80.4824 171.853 81.2994 174.911 82.306 178.682C83.3126 182.453 84.1296 185.511 84.1296 185.511C80.3605 186.518 76.4922 184.278 75.4856 180.507C74.479 176.735 76.7179 172.865 80.4869 171.858L80.4824 171.853Z" fill="url(#paint22_linear_12754_71308)" fill-opacity="0.15"/>
<path d="M56.1395 171.925C56.1395 171.925 56.7398 175.033 57.4801 178.863C58.2204 182.693 58.8207 185.8 58.8207 185.8C54.993 186.54 51.2871 184.034 50.5468 180.204C49.8066 176.374 52.3118 172.666 56.1395 171.925Z" fill="url(#paint23_linear_12754_71308)" fill-opacity="0.15"/>
<path d="M31.8013 172.047C31.8013 172.047 32.1849 175.186 32.6543 179.061C33.1283 182.936 33.5075 186.075 33.5075 186.075C29.6346 186.549 26.1138 183.79 25.6443 179.915C25.1704 176.04 27.9284 172.517 31.8013 172.047Z" fill="url(#paint24_linear_12754_71308)" fill-opacity="0.15"/>
<path d="M7.45679 172.223C7.45679 172.223 7.61928 175.385 7.81789 179.283C8.01649 183.18 8.17903 186.342 8.17903 186.342C4.28357 186.54 0.961334 183.546 0.762726 179.648C0.564117 175.751 3.55682 172.427 7.45229 172.228L7.45679 172.223Z" fill="url(#paint25_linear_12754_71308)" fill-opacity="0.15"/>
<path d="M225.065 198.437C225.065 198.437 227.503 200.451 230.509 202.94C233.515 205.428 235.953 207.443 235.953 207.443C233.465 210.45 229.015 210.871 226.009 208.386C223.002 205.898 222.583 201.445 225.065 198.437Z" fill="url(#paint26_linear_12754_71308)" fill-opacity="0.15"/>
<path d="M200.654 198.125L205.769 202.998C208.594 205.69 210.883 207.872 210.883 207.872C208.193 210.699 203.724 210.807 200.898 208.116C198.072 205.424 197.964 200.952 200.654 198.125Z" fill="url(#paint27_linear_12754_71308)" fill-opacity="0.15"/>
<path d="M176.254 197.85C176.254 197.85 178.385 200.185 181.016 203.066C183.648 205.948 185.778 208.283 185.778 208.283C182.898 210.916 178.43 210.712 175.798 207.831C173.167 204.949 173.37 200.478 176.25 197.845L176.254 197.85Z" fill="url(#paint28_linear_12754_71308)" fill-opacity="0.15"/>
<path d="M151.864 197.615C151.864 197.615 153.828 200.094 156.251 203.152C158.675 206.209 160.639 208.689 160.639 208.689C157.583 211.114 153.141 210.599 150.717 207.542C148.294 204.484 148.808 200.04 151.864 197.615Z" fill="url(#paint29_linear_12754_71308)" fill-opacity="0.15"/>
<path d="M127.945 197.249C127.945 197.249 129.548 199.976 131.52 203.341C133.493 206.706 135.095 209.434 135.095 209.434C131.732 211.407 127.404 210.283 125.431 206.918C123.459 203.553 124.582 199.222 127.945 197.249Z" fill="url(#paint30_linear_12754_71308)" fill-opacity="0.15"/>
<path d="M104.049 197.059C104.049 197.059 105.254 199.986 106.744 203.595C108.229 207.203 109.439 210.13 109.439 210.13C105.832 211.616 101.702 209.899 100.217 206.291C98.7316 202.682 100.447 198.55 104.053 197.064L104.049 197.059Z" fill="url(#paint31_linear_12754_71308)" fill-opacity="0.15"/>
<path d="M80.1765 197.054C80.1765 197.054 80.9619 200.116 81.9324 203.896C82.9029 207.677 83.6883 210.739 83.6883 210.739C79.9102 211.71 76.0598 209.434 75.0894 205.653C74.1189 201.873 76.3939 198.021 80.172 197.05L80.1765 197.054Z" fill="url(#paint32_linear_12754_71308)" fill-opacity="0.15"/>
<path d="M55.7112 197.113C55.7112 197.113 56.3387 200.216 57.1105 204.041C57.8824 207.867 58.5098 210.969 58.5098 210.969C54.6866 211.742 50.9627 209.267 50.1908 205.441C49.4189 201.616 51.8925 197.89 55.7158 197.118L55.7112 197.113Z" fill="url(#paint33_linear_12754_71308)" fill-opacity="0.15"/>
<path d="M31.2488 197.195C31.2488 197.195 31.7092 200.325 32.2825 204.186C32.8512 208.048 33.3162 211.177 33.3162 211.177C29.4568 211.747 25.8683 209.082 25.2951 205.22C24.7263 201.359 27.3895 197.768 31.2488 197.195Z" fill="url(#paint34_linear_12754_71308)" fill-opacity="0.15"/>
<path d="M6.78856 197.308C6.78856 197.308 7.08647 200.456 7.4566 204.344C7.82222 208.229 8.12468 211.381 8.12468 211.381C4.24277 211.747 0.794159 208.897 0.428528 205.013C0.0628967 201.129 2.91113 197.678 6.79306 197.312L6.78856 197.308Z" fill="url(#paint35_linear_12754_71308)" fill-opacity="0.15"/>
<path d="M223.143 223.973L229.656 226.71C233.254 228.223 236.17 229.447 236.17 229.447C234.658 233.046 230.519 234.735 226.921 233.227C223.324 231.714 221.635 227.572 223.143 223.973Z" fill="url(#paint36_linear_12754_71308)" fill-opacity="0.15"/>
<path d="M198.673 223.548C198.673 223.548 201.494 224.975 204.979 226.732C208.459 228.489 211.285 229.916 211.285 229.916C209.529 233.398 205.277 234.798 201.797 233.041C198.317 231.285 196.917 227.03 198.673 223.548Z" fill="url(#paint37_linear_12754_71308)" fill-opacity="0.15"/>
<path d="M174.217 223.146C174.217 223.146 176.934 224.767 180.283 226.764C183.633 228.76 186.35 230.381 186.35 230.381C184.355 233.732 180.017 234.834 176.668 232.834C173.319 230.837 172.217 226.497 174.217 223.146Z" fill="url(#paint38_linear_12754_71308)" fill-opacity="0.15"/>
<path d="M149.78 222.771C149.78 222.771 152.375 224.577 155.58 226.804C158.785 229.03 161.38 230.837 161.38 230.837C159.155 234.044 154.754 234.834 151.549 232.607C148.344 230.381 147.554 225.977 149.78 222.771Z" fill="url(#paint39_linear_12754_71308)" fill-opacity="0.15"/>
<path d="M125.349 222.423C125.349 222.423 127.814 224.406 130.856 226.849C133.898 229.293 136.363 231.275 136.363 231.275C133.921 234.319 129.475 234.803 126.432 232.359C123.39 229.916 122.907 225.467 125.349 222.423Z" fill="url(#paint40_linear_12754_71308)" fill-opacity="0.15"/>
<path d="M100.94 222.107C100.94 222.107 103.26 224.257 106.122 226.908C108.984 229.559 111.304 231.709 111.304 231.709C108.654 234.573 104.186 234.744 101.324 232.093C98.462 229.442 98.2905 224.971 100.94 222.107Z" fill="url(#paint41_linear_12754_71308)" fill-opacity="0.15"/>
<path d="M76.9796 221.574L81.4438 227.048C83.9084 230.074 85.9081 232.522 85.9081 232.522C82.8838 234.988 78.4376 234.537 75.9685 231.515C73.4995 228.494 73.9554 224.04 76.9751 221.57L76.9796 221.574Z" fill="url(#paint42_linear_12754_71308)" fill-opacity="0.15"/>
<path d="M53.0559 221.195C53.0559 221.195 54.6945 223.9 56.7167 227.238C58.7389 230.575 60.3774 233.281 60.3774 233.281C57.0417 235.304 52.6993 234.238 50.6771 230.9C48.6549 227.563 49.7202 223.218 53.0559 221.195Z" fill="url(#paint43_linear_12754_71308)" fill-opacity="0.15"/>
<path d="M29.1614 220.987L31.9465 227.482C33.4857 231.068 34.7315 233.976 34.7315 233.976C31.1475 235.516 26.9948 233.854 25.4555 230.268C23.9163 226.682 25.5774 222.527 29.1614 220.987Z" fill="url(#paint44_linear_12754_71308)" fill-opacity="0.15"/>
<path d="M6.72525 221.398L7.24887 228.444C7.53775 232.337 7.77248 235.489 7.77248 235.489C3.88153 235.778 0.496124 232.856 0.207245 228.968C-0.0816345 225.074 2.83881 221.687 6.72525 221.398Z" fill="url(#paint45_linear_12754_71308)" fill-opacity="0.15"/>
<path d="M221.549 248.203C221.549 248.203 224.705 248.424 228.596 248.695C232.486 248.966 235.642 249.187 235.642 249.187C235.371 253.08 231.994 256.016 228.104 255.745C224.213 255.474 221.279 252.096 221.549 248.203Z" fill="url(#paint46_linear_12754_71308)" fill-opacity="0.15"/>
<path d="M197.005 247.72L203.997 248.704C207.861 249.246 210.989 249.689 210.989 249.689C210.448 253.555 206.877 256.247 203.013 255.705C199.149 255.163 196.459 251.59 197.001 247.724L197.005 247.72Z" fill="url(#paint47_linear_12754_71308)" fill-opacity="0.15"/>
<path d="M172.479 247.241L179.385 248.709C183.199 249.522 186.291 250.176 186.291 250.176C185.479 253.993 181.728 256.432 177.914 255.619C174.099 254.806 171.662 251.053 172.474 247.236L172.479 247.241Z" fill="url(#paint48_linear_12754_71308)" fill-opacity="0.15"/>
<path d="M147.964 246.776L154.752 248.722C158.503 249.797 161.541 250.669 161.541 250.669C160.467 254.422 156.553 256.59 152.807 255.515C149.06 254.44 146.889 250.524 147.964 246.776Z" fill="url(#paint49_linear_12754_71308)" fill-opacity="0.15"/>
<path d="M123.83 245.895C123.83 245.895 126.718 247.182 130.28 248.767C133.841 250.352 136.73 251.64 136.73 251.64C135.146 255.203 130.971 256.806 127.405 255.221C123.839 253.636 122.241 249.458 123.825 245.89L123.83 245.895Z" fill="url(#paint50_linear_12754_71308)" fill-opacity="0.15"/>
<path d="M99.7568 245.086C99.7568 245.086 102.438 246.762 105.747 248.83C109.055 250.899 111.737 252.574 111.737 252.574C109.669 255.885 105.313 256.892 102.005 254.823C98.696 252.755 97.6894 248.396 99.7568 245.086Z" fill="url(#paint51_linear_12754_71308)" fill-opacity="0.15"/>
<path d="M75.7339 244.382C75.7339 244.382 78.1578 246.414 81.146 248.925C84.1342 251.432 86.5581 253.469 86.5581 253.469C84.0529 256.459 79.5977 256.847 76.6096 254.34C73.6214 251.834 73.2332 247.376 75.7384 244.386L75.7339 244.382Z" fill="url(#paint52_linear_12754_71308)" fill-opacity="0.15"/>
<path d="M51.7603 243.799C51.7603 243.799 53.8772 246.152 56.4863 249.052C59.0953 251.951 61.2123 254.304 61.2123 254.304C58.3144 256.915 53.8457 256.68 51.2366 253.78C48.6276 250.881 48.8624 246.41 51.7603 243.799Z" fill="url(#paint53_linear_12754_71308)" fill-opacity="0.15"/>
<path d="M28.5266 243.122C28.5266 243.122 30.0117 245.917 31.8443 249.363C33.6769 252.809 35.162 255.605 35.162 255.605C31.7179 257.439 27.4433 256.129 25.6107 252.683C23.778 249.237 25.0871 244.96 28.5311 243.126L28.5266 243.122Z" fill="url(#paint54_linear_12754_71308)" fill-opacity="0.15"/>
<path d="M5.35326 242.968C5.35326 242.968 6.11609 246.04 7.064 249.824C8.00739 253.609 8.77473 256.68 8.77473 256.68C4.99213 257.624 1.15533 255.321 0.211945 251.532C-0.731445 247.742 1.57065 243.908 5.35777 242.964L5.35326 242.968Z" fill="url(#paint55_linear_12754_71308)" fill-opacity="0.15"/>
<path d="M221.351 270.749C221.351 270.749 224.51 270.803 228.41 270.871C232.31 270.938 235.47 270.993 235.47 270.993C235.402 274.895 232.184 278.002 228.284 277.934C224.384 277.867 221.278 274.646 221.346 270.744L221.351 270.749Z" fill="url(#paint56_linear_12754_71308)" fill-opacity="0.15"/>
<path d="M196.587 270.622C196.587 270.622 199.747 270.731 203.647 270.871C207.547 271.006 210.707 271.119 210.707 271.119C210.571 275.021 207.299 278.07 203.403 277.934C199.508 277.799 196.456 274.524 196.592 270.627L196.587 270.622Z" fill="url(#paint57_linear_12754_71308)" fill-opacity="0.15"/>
<path d="M171.965 270.261C171.965 270.261 175.116 270.536 179.002 270.875C182.889 271.214 186.039 271.489 186.039 271.489C185.701 275.378 182.275 278.255 178.388 277.912C174.502 277.573 171.626 274.145 171.969 270.256L171.965 270.261Z" fill="url(#paint58_linear_12754_71308)" fill-opacity="0.15"/>
<path d="M147.346 269.895C147.346 269.895 150.479 270.333 154.338 270.88C158.202 271.422 161.33 271.864 161.33 271.864C160.789 275.73 157.218 278.422 153.354 277.88C149.49 277.338 146.8 273.766 147.342 269.9L147.346 269.895Z" fill="url(#paint59_linear_12754_71308)" fill-opacity="0.15"/>
<path d="M123.146 268.969C123.146 268.969 126.184 269.841 129.935 270.916C133.686 271.991 136.724 272.862 136.724 272.862C135.649 276.615 131.736 278.783 127.989 277.708C124.238 276.633 122.072 272.718 123.146 268.969Z" fill="url(#paint60_linear_12754_71308)" fill-opacity="0.15"/>
<path d="M99.0143 268.084C99.0143 268.084 101.903 269.371 105.465 270.956C109.026 272.542 111.915 273.829 111.915 273.829C110.33 277.392 106.155 278.995 102.589 277.41C99.0233 275.825 97.4254 271.647 99.0097 268.079L99.0143 268.084Z" fill="url(#paint61_linear_12754_71308)" fill-opacity="0.15"/>
<path d="M74.9392 267.275C74.9392 267.275 77.6205 268.951 80.9291 271.019C84.2378 273.088 86.919 274.763 86.919 274.763C84.8517 278.074 80.4958 279.081 77.1871 277.012C73.8785 274.944 72.8719 270.586 74.9392 267.275Z" fill="url(#paint62_linear_12754_71308)" fill-opacity="0.15"/>
<path d="M51.5796 266.119C51.5796 266.119 53.7778 268.396 56.4861 271.205C59.1945 274.014 61.3927 276.29 61.3927 276.29C58.5851 279 54.1164 278.923 51.4081 276.114C48.6998 273.305 48.7765 268.834 51.5841 266.124L51.5796 266.119Z" fill="url(#paint63_linear_12754_71308)" fill-opacity="0.15"/>
<path d="M28.3371 265.374C28.3371 265.374 29.917 268.116 31.8669 271.494C33.8169 274.872 35.3968 277.614 35.3968 277.614C32.0204 279.565 27.7007 278.409 25.7507 275.026C23.8007 271.648 24.9562 267.325 28.3371 265.374Z" fill="url(#paint64_linear_12754_71308)" fill-opacity="0.15"/>
<path d="M5.15991 265.139C5.15991 265.139 6.03108 268.179 7.10538 271.932C8.17967 275.685 9.05086 278.725 9.05086 278.725C5.29984 279.8 1.39084 277.632 0.316528 273.879C-0.757782 270.125 1.40891 266.214 5.15991 265.139Z" fill="url(#paint65_linear_12754_71308)" fill-opacity="0.15"/>
<path d="M14.8871 8.13354C14.8871 8.13354 11.7229 8.13354 7.82297 8.13354C3.923 8.13354 0.758789 8.13354 0.758789 8.13354C0.758789 4.23137 3.923 1.06537 7.82297 1.06537C11.7229 1.06537 14.8871 4.23137 14.8871 8.13354Z" fill="url(#paint66_linear_12754_71308)" fill-opacity="0.15"/>
<path d="M14.8871 30.3182C14.8871 30.3182 11.7229 30.3182 7.82297 30.3182C3.923 30.3182 0.758789 30.3182 0.758789 30.3182C0.758789 26.416 3.923 23.2501 7.82297 23.2501C11.7229 23.2501 14.8871 26.416 14.8871 30.3182Z" fill="url(#paint67_linear_12754_71308)" fill-opacity="0.15"/>
<path d="M13.3746 54.5892L6.68954 52.313C2.99271 51.0574 0 50.0367 0 50.0367C1.25485 46.3423 5.26767 44.3641 8.96001 45.6242C12.6523 46.8797 14.6294 50.8948 13.3701 54.5892H13.3746Z" fill="url(#paint68_linear_12754_71308)" fill-opacity="0.15"/>
<path d="M11.5115 80.2243L5.76988 76.1099C2.59665 73.8427 0.0282593 72 0.0282593 72C2.29874 68.8249 6.70877 68.0933 9.88202 70.365C13.0553 72.6368 13.7865 77.0493 11.516 80.2243H11.5115Z" fill="url(#paint69_linear_12754_71308)" fill-opacity="0.15"/>
<path d="M9.51811 106.596C9.51811 106.596 7.53201 104.134 5.07648 101.099C2.62546 98.0644 0.634857 95.6029 0.634857 95.6029C3.66818 93.1505 8.1143 93.6202 10.5653 96.6553C13.0163 99.6903 12.5469 104.139 9.5136 106.591L9.51811 106.596Z" fill="url(#paint70_linear_12754_71308)" fill-opacity="0.15"/>
<path d="M7.45384 133.138L4.59659 126.675C3.01672 123.107 1.73932 120.212 1.73932 120.212C5.30527 118.632 9.47606 120.244 11.0559 123.812C12.6358 127.38 11.0243 131.553 7.45836 133.134L7.45384 133.138Z" fill="url(#paint71_linear_12754_71308)" fill-opacity="0.15"/>
<path d="M32.0439 133.161L29.4124 126.603C27.9589 122.981 26.7808 120.045 26.7808 120.045C30.4009 118.591 34.513 120.348 35.9665 123.97C37.4199 127.592 35.664 131.707 32.0439 133.161Z" fill="url(#paint72_linear_12754_71308)" fill-opacity="0.15"/>
<path d="M56.6315 133.17L54.2301 126.526C52.9031 122.854 51.8288 119.883 51.8288 119.883C55.4985 118.555 59.5475 120.456 60.87 124.124C62.1971 127.795 60.2968 131.847 56.6315 133.17Z" fill="url(#paint73_linear_12754_71308)" fill-opacity="0.15"/>
<path d="M81.2188 133.17C81.2188 133.17 80.2483 130.158 79.0521 126.446C77.856 122.733 76.8855 119.721 76.8855 119.721C80.5959 118.524 84.5771 120.561 85.7732 124.278C86.9694 127.99 84.9337 131.974 81.2188 133.17Z" fill="url(#paint74_linear_12754_71308)" fill-opacity="0.15"/>
<path d="M105.804 133.156C105.804 133.156 104.937 130.112 103.872 126.359C102.807 122.606 101.94 119.562 101.94 119.562C105.691 118.496 109.6 120.673 110.665 124.426C111.731 128.179 109.555 132.091 105.804 133.156Z" fill="url(#paint75_linear_12754_71308)" fill-opacity="0.15"/>
<path d="M130.389 133.13L128.696 126.27C127.762 122.48 127.003 119.409 127.003 119.409C130.79 118.474 134.618 120.787 135.552 124.576C136.487 128.365 134.176 132.195 130.389 133.13Z" fill="url(#paint76_linear_12754_71308)" fill-opacity="0.15"/>
<path d="M154.976 133.089L153.522 126.174C152.719 122.353 152.069 119.259 152.069 119.259C155.887 118.455 159.629 120.903 160.433 124.72C161.236 128.541 158.79 132.285 154.976 133.089Z" fill="url(#paint77_linear_12754_71308)" fill-opacity="0.15"/>
<path d="M179.558 133.039L178.348 126.079C177.68 122.236 177.138 119.12 177.138 119.12C180.98 118.451 184.64 121.026 185.308 124.869C185.976 128.712 183.404 132.375 179.562 133.044L179.558 133.039Z" fill="url(#paint78_linear_12754_71308)" fill-opacity="0.15"/>
<path d="M203.896 132.899L203.174 125.872C202.777 121.988 202.452 118.844 202.452 118.844C206.333 118.447 209.8 121.269 210.202 125.149C210.599 129.033 207.778 132.502 203.901 132.904L203.896 132.899Z" fill="url(#paint79_linear_12754_71308)" fill-opacity="0.15"/>
<path d="M228.24 132.714L228.01 125.65C227.884 121.748 227.78 118.587 227.78 118.587C231.68 118.46 234.944 121.518 235.07 125.42C235.196 129.322 232.14 132.587 228.24 132.714Z" fill="url(#paint80_linear_12754_71308)" fill-opacity="0.15"/>
<path d="M252.582 132.474C252.582 132.474 252.7 129.313 252.844 125.41C252.989 121.508 253.106 118.347 253.106 118.347C257.006 118.491 260.048 121.77 259.904 125.672C259.759 129.575 256.482 132.619 252.582 132.474Z" fill="url(#paint81_linear_12754_71308)" fill-opacity="0.15"/>
<path d="M34.1232 106.699C34.1232 106.699 32.2229 104.17 29.8802 101.049C27.5375 97.9285 25.6372 95.3993 25.6372 95.3993C28.7563 93.0553 33.1843 93.6786 35.527 96.7994C37.8697 99.9202 37.2468 104.351 34.1277 106.695L34.1232 106.699Z" fill="url(#paint82_linear_12754_71308)" fill-opacity="0.15"/>
<path d="M58.7262 106.795C58.7262 106.795 56.9161 104.202 54.6818 101C52.4474 97.8025 50.6374 95.2056 50.6374 95.2056C53.8332 92.9699 58.2387 93.7513 60.4731 96.9489C62.7074 100.147 61.9265 104.555 58.7307 106.79L58.7262 106.795Z" fill="url(#paint83_linear_12754_71308)" fill-opacity="0.15"/>
<path d="M83.0961 106.957C83.0961 106.957 81.4712 104.243 79.4625 100.896C77.4584 97.5494 75.8289 94.835 75.8289 94.835C79.1736 92.8297 83.5114 93.9137 85.5201 97.2603C87.5242 100.607 86.4409 104.947 83.0961 106.957Z" fill="url(#paint84_linear_12754_71308)" fill-opacity="0.15"/>
<path d="M107.464 107.075C107.464 107.075 106.034 104.256 104.264 100.774C102.495 97.2966 101.064 94.4738 101.064 94.4738C104.54 92.7034 108.792 94.0899 110.561 97.5721C112.33 101.05 110.945 105.304 107.464 107.075Z" fill="url(#paint85_linear_12754_71308)" fill-opacity="0.15"/>
<path d="M131.819 107.147C131.819 107.147 130.586 104.233 129.065 100.638C127.544 97.0434 126.312 94.1303 126.312 94.1303C129.905 92.6083 134.049 94.2884 135.57 97.8834C137.091 101.478 135.412 105.625 131.819 107.147Z" fill="url(#paint86_linear_12754_71308)" fill-opacity="0.15"/>
<path d="M156.17 107.173C156.17 107.173 155.145 104.179 153.877 100.489C152.608 96.7992 151.584 93.8048 151.584 93.8048C155.272 92.5357 159.289 94.5049 160.557 98.1948C161.826 101.885 159.858 105.904 156.17 107.173Z" fill="url(#paint87_linear_12754_71308)" fill-opacity="0.15"/>
<path d="M180.518 107.146C180.518 107.146 179.701 104.089 178.695 100.318C177.688 96.5464 176.871 93.4888 176.871 93.4888C180.64 92.4816 184.508 94.7217 185.515 98.4929C186.522 102.264 184.283 106.135 180.514 107.142L180.518 107.146Z" fill="url(#paint88_linear_12754_71308)" fill-opacity="0.15"/>
<path d="M204.861 107.074C204.861 107.074 204.261 103.967 203.52 100.137C202.78 96.3074 202.18 93.2001 202.18 93.2001C206.008 92.4594 209.713 94.966 210.454 98.7959C211.194 102.626 208.689 106.334 204.861 107.074Z" fill="url(#paint89_linear_12754_71308)" fill-opacity="0.15"/>
<path d="M229.201 106.952C229.201 106.952 228.818 103.813 228.348 99.9383C227.874 96.0632 227.495 92.9243 227.495 92.9243C231.368 92.4501 234.889 95.2096 235.358 99.0847C235.832 102.96 233.074 106.483 229.201 106.952Z" fill="url(#paint90_linear_12754_71308)" fill-opacity="0.15"/>
<path d="M253.544 106.777C253.544 106.777 253.381 103.615 253.183 99.7174C252.984 95.8197 252.822 92.6582 252.822 92.6582C256.717 92.4595 260.039 95.4539 260.238 99.3515C260.436 103.249 257.444 106.573 253.548 106.772L253.544 106.777Z" fill="url(#paint91_linear_12754_71308)" fill-opacity="0.15"/>
<path d="M35.9354 80.5674C35.9354 80.5674 33.4979 78.5531 30.4917 76.0646C27.4855 73.576 25.048 71.5617 25.048 71.5617C27.5351 68.5538 31.9858 68.1338 34.992 70.6178C37.9983 73.1063 38.418 77.5595 35.9354 80.5674Z" fill="url(#paint92_linear_12754_71308)" fill-opacity="0.15"/>
<path d="M60.3461 80.875L55.2319 76.0018C52.4063 73.3101 50.1178 71.1286 50.1178 71.1286C52.808 68.3014 57.2767 68.193 60.1024 70.8848C62.9281 73.5765 63.0364 78.0478 60.3461 80.875Z" fill="url(#paint93_linear_12754_71308)" fill-opacity="0.15"/>
<path d="M84.7487 81.1504C84.7487 81.1504 82.6181 78.8154 79.9866 75.9339C77.355 73.0525 75.2245 70.7175 75.2245 70.7175C78.1043 68.0844 82.573 68.2876 85.2046 71.1691C87.8362 74.0506 87.633 78.5218 84.7532 81.1549L84.7487 81.1504Z" fill="url(#paint94_linear_12754_71308)" fill-opacity="0.15"/>
<path d="M109.139 81.3892C109.139 81.3892 107.175 78.9097 104.751 75.8521C102.327 72.7945 100.364 70.315 100.364 70.315C103.42 67.8897 107.861 68.4045 110.285 71.4621C112.709 74.5197 112.195 78.9639 109.139 81.3892Z" fill="url(#paint95_linear_12754_71308)" fill-opacity="0.15"/>
<path d="M133.055 81.7508C133.055 81.7508 131.453 79.0229 129.48 75.6582C127.508 72.2935 122.542 71.5392 125.905 69.5656C129.268 67.5919 133.597 68.7165 135.569 72.0812C137.542 75.4459 136.418 79.7772 133.055 81.7508Z" fill="url(#paint96_linear_12754_71308)" fill-opacity="0.15"/>
<path d="M156.952 81.9403C156.952 81.9403 155.746 79.0137 154.257 75.4051C152.772 71.7965 151.562 68.8699 151.562 68.8699C155.169 67.384 159.299 69.1002 160.784 72.7088C162.269 76.3174 160.554 80.4499 156.947 81.9358L156.952 81.9403Z" fill="url(#paint97_linear_12754_71308)" fill-opacity="0.15"/>
<path d="M180.826 81.9447C180.826 81.9447 180.041 78.8825 179.07 75.1023C178.1 71.3221 177.314 68.26 177.314 68.26C181.093 67.2889 184.943 69.5652 185.913 73.3454C186.884 77.1257 184.609 80.9782 180.831 81.9492L180.826 81.9447Z" fill="url(#paint98_linear_12754_71308)" fill-opacity="0.15"/>
<path d="M205.291 81.8909C205.291 81.8909 204.664 78.7882 203.892 74.9628C203.12 71.1374 202.493 68.0346 202.493 68.0346C206.316 67.2623 210.04 69.7373 210.812 73.5627C211.584 77.3881 209.11 81.1141 205.287 81.8864L205.291 81.8909Z" fill="url(#paint99_linear_12754_71308)" fill-opacity="0.15"/>
<path d="M229.752 81.8049C229.752 81.8049 229.291 78.675 228.718 74.8135C228.149 70.952 227.684 67.8221 227.684 67.8221C231.544 67.2531 235.132 69.9177 235.705 73.7793C236.274 77.6408 233.611 81.2313 229.752 81.8049Z" fill="url(#paint100_linear_12754_71308)" fill-opacity="0.15"/>
<path d="M254.212 81.6921C254.212 81.6921 253.914 78.5441 253.544 74.6555C253.178 70.7714 252.876 67.6189 252.876 67.6189C256.758 67.2531 260.206 70.103 260.572 73.9871C260.938 77.8712 258.089 81.3217 254.207 81.6875L254.212 81.6921Z" fill="url(#paint101_linear_12754_71308)" fill-opacity="0.15"/>
<path d="M37.8576 55.0319L31.3441 52.295C27.7465 50.782 24.8306 49.5581 24.8306 49.5581C26.3427 45.9585 30.4819 44.2694 34.0795 45.7778C37.677 47.2908 39.3652 51.4324 37.8576 55.0319Z" fill="url(#paint102_linear_12754_71308)" fill-opacity="0.15"/>
<path d="M62.3272 55.4564C62.3272 55.4564 59.5061 54.0292 56.0214 52.2724C52.5412 50.5155 49.7155 49.0883 49.7155 49.0883C51.4714 45.6062 55.7235 44.2061 59.2036 45.963C62.6838 47.7198 64.0831 51.9743 62.3272 55.4564Z" fill="url(#paint103_linear_12754_71308)" fill-opacity="0.15"/>
<path d="M86.7859 55.8537C86.7859 55.8537 84.0686 54.2323 80.7193 52.2361C77.37 50.2398 74.6527 48.6184 74.6527 48.6184C76.6478 45.2673 80.9856 44.1653 84.3349 46.166C87.6842 48.1623 88.7855 52.5025 86.7859 55.8537Z" fill="url(#paint104_linear_12754_71308)" fill-opacity="0.15"/>
<path d="M111.223 56.233C111.223 56.233 108.628 54.4264 105.423 52.1998C102.218 49.9732 99.6224 48.1667 99.6224 48.1667C101.848 44.96 106.249 44.1697 109.454 46.3963C112.658 48.6228 113.448 53.0263 111.223 56.233Z" fill="url(#paint105_linear_12754_71308)" fill-opacity="0.15"/>
<path d="M135.652 56.5766C135.652 56.5766 133.187 54.5939 130.145 52.1505C127.102 49.7072 124.638 47.7244 124.638 47.7244C127.08 44.6804 131.526 44.1971 134.568 46.6405C137.611 49.0839 138.094 53.5325 135.652 56.5766Z" fill="url(#paint106_linear_12754_71308)" fill-opacity="0.15"/>
<path d="M160.063 56.8922C160.063 56.8922 157.743 54.7424 154.881 52.0913C152.019 49.4402 149.699 47.2904 149.699 47.2904C152.348 44.427 156.817 44.2553 159.679 46.9065C162.541 49.5576 162.712 54.0288 160.063 56.8922Z" fill="url(#paint107_linear_12754_71308)" fill-opacity="0.15"/>
<path d="M184.021 57.4258L179.557 51.952C177.092 48.926 175.092 46.4781 175.092 46.4781C178.117 44.0121 182.563 44.4638 185.032 47.4853C187.501 50.5067 187.045 54.9599 184.025 57.4304L184.021 57.4258Z" fill="url(#paint108_linear_12754_71308)" fill-opacity="0.15"/>
<path d="M207.945 57.8095C207.945 57.8095 206.306 55.1042 204.284 51.7665C202.262 48.4289 200.623 45.7236 200.623 45.7236C203.959 43.7003 208.301 44.7661 210.323 48.1037C212.346 51.4414 211.28 55.7861 207.945 57.8095Z" fill="url(#paint109_linear_12754_71308)" fill-opacity="0.15"/>
<path d="M231.841 58.017L229.056 51.5224C227.517 47.9364 226.271 45.0278 226.271 45.0278C229.855 43.4878 234.008 45.1498 235.547 48.7358C237.086 52.3218 235.425 56.4769 231.841 58.017Z" fill="url(#paint110_linear_12754_71308)" fill-opacity="0.15"/>
<path d="M254.277 57.6014L253.754 50.5558C253.465 46.6627 253.23 43.5102 253.23 43.5102C257.121 43.2212 260.507 46.1433 260.795 50.0319C261.084 53.9251 258.164 57.3124 254.277 57.6014Z" fill="url(#paint111_linear_12754_71308)" fill-opacity="0.15"/>
<path d="M39.4512 30.8011C39.4512 30.8011 36.296 30.5798 32.405 30.3088C28.5141 30.0378 25.3589 29.8165 25.3589 29.8165C25.6297 25.9234 29.0061 22.9877 32.897 23.2587C36.788 23.5297 39.722 26.9079 39.4512 30.8011Z" fill="url(#paint112_linear_12754_71308)" fill-opacity="0.15"/>
<path d="M63.993 31.2849L57.001 30.3003C53.1371 29.7583 50.009 29.3157 50.009 29.3157C50.5507 25.4497 54.1212 22.7579 57.985 23.2999C61.8489 23.8418 64.5391 27.4143 63.9975 31.2803L63.993 31.2849Z" fill="url(#paint113_linear_12754_71308)" fill-opacity="0.15"/>
<path d="M88.5216 31.7587L81.6154 30.2909C77.8012 29.4779 74.7092 28.8231 74.7092 28.8231C75.5217 25.0067 79.2727 22.5678 83.0869 23.3808C86.9011 24.1937 89.3386 27.9469 88.5261 31.7632L88.5216 31.7587Z" fill="url(#paint114_linear_12754_71308)" fill-opacity="0.15"/>
<path d="M113.037 32.2238L106.248 30.2772C102.497 29.2023 99.4593 28.3307 99.4593 28.3307C100.534 24.5775 104.447 22.4097 108.194 23.4846C111.94 24.5595 114.111 28.4752 113.037 32.2238Z" fill="url(#paint115_linear_12754_71308)" fill-opacity="0.15"/>
<path d="M137.173 33.109C137.173 33.109 134.284 31.8219 130.723 30.2366C127.161 28.6514 124.273 27.3642 124.273 27.3642C125.857 23.8007 130.032 22.1974 133.598 23.7827C137.164 25.3679 138.762 29.5456 137.178 33.1136L137.173 33.109Z" fill="url(#paint116_linear_12754_71308)" fill-opacity="0.15"/>
<path d="M161.246 33.9132C161.246 33.9132 158.565 32.2376 155.256 30.1691C151.947 28.1006 149.266 26.425 149.266 26.425C151.334 23.1145 155.689 22.1073 158.998 24.1758C162.307 26.2443 163.313 30.6026 161.246 33.9132Z" fill="url(#paint117_linear_12754_71308)" fill-opacity="0.15"/>
<path d="M185.267 34.6218C185.267 34.6218 182.843 32.5894 179.855 30.0783C176.866 27.5717 174.442 25.5348 174.442 25.5348C176.948 22.5449 181.403 22.1565 184.391 24.6631C187.379 27.1697 187.767 31.6274 185.262 34.6173L185.267 34.6218Z" fill="url(#paint118_linear_12754_71308)" fill-opacity="0.15"/>
<path d="M209.24 35.2044C209.24 35.2044 207.123 32.8513 204.514 29.9518C201.905 27.0523 199.788 24.6992 199.788 24.6992C202.686 22.0888 207.155 22.3236 209.764 25.2231C212.373 28.1227 212.138 32.5939 209.24 35.2044Z" fill="url(#paint119_linear_12754_71308)" fill-opacity="0.15"/>
<path d="M232.472 35.8822C232.472 35.8822 230.987 33.0865 229.154 29.6405C227.321 26.1945 225.836 23.3989 225.836 23.3989C229.28 21.5652 233.555 22.875 235.388 26.321C237.22 29.767 235.911 34.044 232.467 35.8777L232.472 35.8822Z" fill="url(#paint120_linear_12754_71308)" fill-opacity="0.15"/>
<path d="M255.647 36.0313C255.647 36.0313 254.884 32.9602 253.937 29.1754C252.993 25.3907 252.226 22.3195 252.226 22.3195C256.008 21.3756 259.845 23.679 260.789 27.4682C261.732 31.2575 259.43 35.0919 255.643 36.0358L255.647 36.0313Z" fill="url(#paint121_linear_12754_71308)" fill-opacity="0.15"/>
<path d="M39.6522 8.25532C39.6522 8.25532 36.4925 8.20112 32.5925 8.13337C28.6925 8.06563 25.5328 8.01143 25.5328 8.01143C25.6005 4.10926 28.8189 1.00198 32.7189 1.06972C36.6189 1.13747 39.7244 4.35766 39.6567 8.25983L39.6522 8.25532Z" fill="url(#paint122_linear_12754_71308)" fill-opacity="0.15"/>
<path d="M64.4132 8.37742C64.4132 8.37742 61.2535 8.26903 57.3535 8.12902C53.4536 7.99353 50.2939 7.88062 50.2939 7.88062C50.4293 3.97845 53.7018 0.929878 57.5973 1.06537C61.4927 1.20086 64.5441 4.47525 64.4087 8.37291L64.4132 8.37742Z" fill="url(#paint123_linear_12754_71308)" fill-opacity="0.15"/>
<path d="M89.0356 8.74285C89.0356 8.74285 85.8849 8.46735 81.9985 8.12862C78.112 7.78989 74.9614 7.51439 74.9614 7.51439C75.2999 3.62577 78.7259 0.748824 82.6124 1.09207C86.4988 1.4308 89.3741 4.85875 89.0311 8.74737L89.0356 8.74285Z" fill="url(#paint124_linear_12754_71308)" fill-opacity="0.15"/>
<path d="M113.656 9.10453C113.656 9.10453 110.524 8.66644 106.664 8.11995C102.8 7.57799 99.6724 7.13538 99.6724 7.13538C100.214 3.26934 103.785 0.577566 107.648 1.11953C111.512 1.6615 114.202 5.23397 113.661 9.10001L113.656 9.10453Z" fill="url(#paint125_linear_12754_71308)" fill-opacity="0.15"/>
<path d="M137.855 10.0348C137.855 10.0348 134.817 9.1631 131.066 8.0882C127.315 7.0133 124.277 6.14163 124.277 6.14163C125.351 2.3885 129.265 0.220631 133.011 1.29553C136.762 2.37044 138.929 6.28616 137.855 10.0348Z" fill="url(#paint126_linear_12754_71308)" fill-opacity="0.15"/>
<path d="M161.984 10.9157C161.984 10.9157 159.095 9.62857 155.534 8.04331C151.972 6.45806 149.084 5.17088 149.084 5.17088C150.668 1.60293 154.843 -0.000397086 158.405 1.58486C161.966 3.17012 163.568 7.34779 161.984 10.9157Z" fill="url(#paint127_linear_12754_71308)" fill-opacity="0.15"/>
<path d="M186.061 11.7241C186.061 11.7241 183.38 10.0486 180.071 7.98004C176.763 5.91153 174.082 4.23595 174.082 4.23595C176.149 0.925427 180.505 -0.0817306 183.813 1.98678C187.122 4.05529 188.129 8.41362 186.061 11.7241Z" fill="url(#paint128_linear_12754_71308)" fill-opacity="0.15"/>
<path d="M209.423 12.8851C209.423 12.8851 207.225 10.6088 204.517 7.79958C201.808 4.99038 199.61 2.71412 199.61 2.71412C202.418 0.00427604 206.886 0.0810544 209.595 2.89026C212.303 5.69946 212.226 10.1707 209.419 12.8805L209.423 12.8851Z" fill="url(#paint129_linear_12754_71308)" fill-opacity="0.15"/>
<path d="M232.663 13.6297C232.663 13.6297 231.084 10.8882 229.134 7.50994C227.184 4.13167 225.604 1.39022 225.604 1.39022C228.98 -0.560869 233.3 0.59533 235.25 3.97811C237.2 7.35638 236.044 11.6786 232.663 13.6297Z" fill="url(#paint130_linear_12754_71308)" fill-opacity="0.15"/>
<path d="M255.843 13.8606C255.843 13.8606 254.972 10.8211 253.897 7.06797C252.823 3.31484 251.952 0.2753 251.952 0.2753C255.703 -0.799604 259.612 1.36827 260.686 5.1214C261.76 8.87453 259.594 12.7857 255.843 13.8606Z" fill="url(#paint131_linear_12754_71308)" fill-opacity="0.15"/>
<defs>
<linearGradient id="paint0_linear_12754_71308" x1="261" y1="139.5" x2="38.4347" y2="139.5" gradientUnits="userSpaceOnUse">
<stop stop-color="#C6DDA9"/>
<stop offset="1" stop-color="#C6DDA9" stop-opacity="0"/>
</linearGradient>
<linearGradient id="paint1_linear_12754_71308" x1="261" y1="139.5" x2="38.4347" y2="139.5" gradientUnits="userSpaceOnUse">
<stop stop-color="#C6DDA9"/>
<stop offset="1" stop-color="#C6DDA9" stop-opacity="0"/>
</linearGradient>
<linearGradient id="paint2_linear_12754_71308" x1="261" y1="139.5" x2="38.4347" y2="139.5" gradientUnits="userSpaceOnUse">
<stop stop-color="#C6DDA9"/>
<stop offset="1" stop-color="#C6DDA9" stop-opacity="0"/>
</linearGradient>
<linearGradient id="paint3_linear_12754_71308" x1="261" y1="139.5" x2="38.4347" y2="139.5" gradientUnits="userSpaceOnUse">
<stop stop-color="#C6DDA9"/>
<stop offset="1" stop-color="#C6DDA9" stop-opacity="0"/>
</linearGradient>
<linearGradient id="paint4_linear_12754_71308" x1="261" y1="139.5" x2="38.4347" y2="139.5" gradientUnits="userSpaceOnUse">
<stop stop-color="#C6DDA9"/>
<stop offset="1" stop-color="#C6DDA9" stop-opacity="0"/>
</linearGradient>
<linearGradient id="paint5_linear_12754_71308" x1="261" y1="139.5" x2="38.4347" y2="139.5" gradientUnits="userSpaceOnUse">
<stop stop-color="#C6DDA9"/>
<stop offset="1" stop-color="#C6DDA9" stop-opacity="0"/>
</linearGradient>
<linearGradient id="paint6_linear_12754_71308" x1="261" y1="139.5" x2="38.4347" y2="139.5" gradientUnits="userSpaceOnUse">
<stop stop-color="#C6DDA9"/>
<stop offset="1" stop-color="#C6DDA9" stop-opacity="0"/>
</linearGradient>
<linearGradient id="paint7_linear_12754_71308" x1="261" y1="139.5" x2="38.4347" y2="139.5" gradientUnits="userSpaceOnUse">
<stop stop-color="#C6DDA9"/>
<stop offset="1" stop-color="#C6DDA9" stop-opacity="0"/>
</linearGradient>
<linearGradient id="paint8_linear_12754_71308" x1="261" y1="139.5" x2="38.4347" y2="139.5" gradientUnits="userSpaceOnUse">
<stop stop-color="#C6DDA9"/>
<stop offset="1" stop-color="#C6DDA9" stop-opacity="0"/>
</linearGradient>
<linearGradient id="paint9_linear_12754_71308" x1="261" y1="139.5" x2="38.4347" y2="139.5" gradientUnits="userSpaceOnUse">
<stop stop-color="#C6DDA9"/>
<stop offset="1" stop-color="#C6DDA9" stop-opacity="0"/>
</linearGradient>
<linearGradient id="paint10_linear_12754_71308" x1="261" y1="139.5" x2="38.4347" y2="139.5" gradientUnits="userSpaceOnUse">
<stop stop-color="#C6DDA9"/>
<stop offset="1" stop-color="#C6DDA9" stop-opacity="0"/>
</linearGradient>
<linearGradient id="paint11_linear_12754_71308" x1="261" y1="139.5" x2="38.4347" y2="139.5" gradientUnits="userSpaceOnUse">
<stop stop-color="#C6DDA9"/>
<stop offset="1" stop-color="#C6DDA9" stop-opacity="0"/>
</linearGradient>
<linearGradient id="paint12_linear_12754_71308" x1="261" y1="139.5" x2="38.4347" y2="139.5" gradientUnits="userSpaceOnUse">
<stop stop-color="#C6DDA9"/>
<stop offset="1" stop-color="#C6DDA9" stop-opacity="0"/>
</linearGradient>
<linearGradient id="paint13_linear_12754_71308" x1="261" y1="139.5" x2="38.4347" y2="139.5" gradientUnits="userSpaceOnUse">
<stop stop-color="#C6DDA9"/>
<stop offset="1" stop-color="#C6DDA9" stop-opacity="0"/>
</linearGradient>
<linearGradient id="paint14_linear_12754_71308" x1="261" y1="139.5" x2="38.4347" y2="139.5" gradientUnits="userSpaceOnUse">
<stop stop-color="#C6DDA9"/>
<stop offset="1" stop-color="#C6DDA9" stop-opacity="0"/>
</linearGradient>
<linearGradient id="paint15_linear_12754_71308" x1="261" y1="139.5" x2="38.4347" y2="139.5" gradientUnits="userSpaceOnUse">
<stop stop-color="#C6DDA9"/>
<stop offset="1" stop-color="#C6DDA9" stop-opacity="0"/>
</linearGradient>
<linearGradient id="paint16_linear_12754_71308" x1="261" y1="139.5" x2="38.4347" y2="139.5" gradientUnits="userSpaceOnUse">
<stop stop-color="#C6DDA9"/>
<stop offset="1" stop-color="#C6DDA9" stop-opacity="0"/>
</linearGradient>
<linearGradient id="paint17_linear_12754_71308" x1="261" y1="139.5" x2="38.4347" y2="139.5" gradientUnits="userSpaceOnUse">
<stop stop-color="#C6DDA9"/>
<stop offset="1" stop-color="#C6DDA9" stop-opacity="0"/>
</linearGradient>
<linearGradient id="paint18_linear_12754_71308" x1="261" y1="139.5" x2="38.4347" y2="139.5" gradientUnits="userSpaceOnUse">
<stop stop-color="#C6DDA9"/>
<stop offset="1" stop-color="#C6DDA9" stop-opacity="0"/>
</linearGradient>
<linearGradient id="paint19_linear_12754_71308" x1="261" y1="139.5" x2="38.4347" y2="139.5" gradientUnits="userSpaceOnUse">
<stop stop-color="#C6DDA9"/>
<stop offset="1" stop-color="#C6DDA9" stop-opacity="0"/>
</linearGradient>
<linearGradient id="paint20_linear_12754_71308" x1="261" y1="139.5" x2="38.4347" y2="139.5" gradientUnits="userSpaceOnUse">
<stop stop-color="#C6DDA9"/>
<stop offset="1" stop-color="#C6DDA9" stop-opacity="0"/>
</linearGradient>
<linearGradient id="paint21_linear_12754_71308" x1="261" y1="139.5" x2="38.4347" y2="139.5" gradientUnits="userSpaceOnUse">
<stop stop-color="#C6DDA9"/>
<stop offset="1" stop-color="#C6DDA9" stop-opacity="0"/>
</linearGradient>
<linearGradient id="paint22_linear_12754_71308" x1="261" y1="139.5" x2="38.4347" y2="139.5" gradientUnits="userSpaceOnUse">
<stop stop-color="#C6DDA9"/>
<stop offset="1" stop-color="#C6DDA9" stop-opacity="0"/>
</linearGradient>
<linearGradient id="paint23_linear_12754_71308" x1="261" y1="139.5" x2="38.4347" y2="139.5" gradientUnits="userSpaceOnUse">
<stop stop-color="#C6DDA9"/>
<stop offset="1" stop-color="#C6DDA9" stop-opacity="0"/>
</linearGradient>
<linearGradient id="paint24_linear_12754_71308" x1="261" y1="139.5" x2="38.4347" y2="139.5" gradientUnits="userSpaceOnUse">
<stop stop-color="#C6DDA9"/>
<stop offset="1" stop-color="#C6DDA9" stop-opacity="0"/>
</linearGradient>
<linearGradient id="paint25_linear_12754_71308" x1="261" y1="139.5" x2="38.4347" y2="139.5" gradientUnits="userSpaceOnUse">
<stop stop-color="#C6DDA9"/>
<stop offset="1" stop-color="#C6DDA9" stop-opacity="0"/>
</linearGradient>
<linearGradient id="paint26_linear_12754_71308" x1="261" y1="139.5" x2="38.4347" y2="139.5" gradientUnits="userSpaceOnUse">
<stop stop-color="#C6DDA9"/>
<stop offset="1" stop-color="#C6DDA9" stop-opacity="0"/>
</linearGradient>
<linearGradient id="paint27_linear_12754_71308" x1="261" y1="139.5" x2="38.4347" y2="139.5" gradientUnits="userSpaceOnUse">
<stop stop-color="#C6DDA9"/>
<stop offset="1" stop-color="#C6DDA9" stop-opacity="0"/>
</linearGradient>
<linearGradient id="paint28_linear_12754_71308" x1="261" y1="139.5" x2="38.4347" y2="139.5" gradientUnits="userSpaceOnUse">
<stop stop-color="#C6DDA9"/>
<stop offset="1" stop-color="#C6DDA9" stop-opacity="0"/>
</linearGradient>
<linearGradient id="paint29_linear_12754_71308" x1="261" y1="139.5" x2="38.4347" y2="139.5" gradientUnits="userSpaceOnUse">
<stop stop-color="#C6DDA9"/>
<stop offset="1" stop-color="#C6DDA9" stop-opacity="0"/>
</linearGradient>
<linearGradient id="paint30_linear_12754_71308" x1="261" y1="139.5" x2="38.4347" y2="139.5" gradientUnits="userSpaceOnUse">
<stop stop-color="#C6DDA9"/>
<stop offset="1" stop-color="#C6DDA9" stop-opacity="0"/>
</linearGradient>
<linearGradient id="paint31_linear_12754_71308" x1="261" y1="139.5" x2="38.4347" y2="139.5" gradientUnits="userSpaceOnUse">
<stop stop-color="#C6DDA9"/>
<stop offset="1" stop-color="#C6DDA9" stop-opacity="0"/>
</linearGradient>
<linearGradient id="paint32_linear_12754_71308" x1="261" y1="139.5" x2="38.4347" y2="139.5" gradientUnits="userSpaceOnUse">
<stop stop-color="#C6DDA9"/>
<stop offset="1" stop-color="#C6DDA9" stop-opacity="0"/>
</linearGradient>
<linearGradient id="paint33_linear_12754_71308" x1="261" y1="139.5" x2="38.4347" y2="139.5" gradientUnits="userSpaceOnUse">
<stop stop-color="#C6DDA9"/>
<stop offset="1" stop-color="#C6DDA9" stop-opacity="0"/>
</linearGradient>
<linearGradient id="paint34_linear_12754_71308" x1="261" y1="139.5" x2="38.4347" y2="139.5" gradientUnits="userSpaceOnUse">
<stop stop-color="#C6DDA9"/>
<stop offset="1" stop-color="#C6DDA9" stop-opacity="0"/>
</linearGradient>
<linearGradient id="paint35_linear_12754_71308" x1="261" y1="139.5" x2="38.4347" y2="139.5" gradientUnits="userSpaceOnUse">
<stop stop-color="#C6DDA9"/>
<stop offset="1" stop-color="#C6DDA9" stop-opacity="0"/>
</linearGradient>
<linearGradient id="paint36_linear_12754_71308" x1="261" y1="139.5" x2="38.4347" y2="139.5" gradientUnits="userSpaceOnUse">
<stop stop-color="#C6DDA9"/>
<stop offset="1" stop-color="#C6DDA9" stop-opacity="0"/>
</linearGradient>
<linearGradient id="paint37_linear_12754_71308" x1="261" y1="139.5" x2="38.4347" y2="139.5" gradientUnits="userSpaceOnUse">
<stop stop-color="#C6DDA9"/>
<stop offset="1" stop-color="#C6DDA9" stop-opacity="0"/>
</linearGradient>
<linearGradient id="paint38_linear_12754_71308" x1="261" y1="139.5" x2="38.4347" y2="139.5" gradientUnits="userSpaceOnUse">
<stop stop-color="#C6DDA9"/>
<stop offset="1" stop-color="#C6DDA9" stop-opacity="0"/>
</linearGradient>
<linearGradient id="paint39_linear_12754_71308" x1="261" y1="139.5" x2="38.4347" y2="139.5" gradientUnits="userSpaceOnUse">
<stop stop-color="#C6DDA9"/>
<stop offset="1" stop-color="#C6DDA9" stop-opacity="0"/>
</linearGradient>
<linearGradient id="paint40_linear_12754_71308" x1="261" y1="139.5" x2="38.4347" y2="139.5" gradientUnits="userSpaceOnUse">
<stop stop-color="#C6DDA9"/>
<stop offset="1" stop-color="#C6DDA9" stop-opacity="0"/>
</linearGradient>
<linearGradient id="paint41_linear_12754_71308" x1="261" y1="139.5" x2="38.4347" y2="139.5" gradientUnits="userSpaceOnUse">
<stop stop-color="#C6DDA9"/>
<stop offset="1" stop-color="#C6DDA9" stop-opacity="0"/>
</linearGradient>
<linearGradient id="paint42_linear_12754_71308" x1="261" y1="139.5" x2="38.4347" y2="139.5" gradientUnits="userSpaceOnUse">
<stop stop-color="#C6DDA9"/>
<stop offset="1" stop-color="#C6DDA9" stop-opacity="0"/>
</linearGradient>
<linearGradient id="paint43_linear_12754_71308" x1="261" y1="139.5" x2="38.4347" y2="139.5" gradientUnits="userSpaceOnUse">
<stop stop-color="#C6DDA9"/>
<stop offset="1" stop-color="#C6DDA9" stop-opacity="0"/>
</linearGradient>
<linearGradient id="paint44_linear_12754_71308" x1="261" y1="139.5" x2="38.4347" y2="139.5" gradientUnits="userSpaceOnUse">
<stop stop-color="#C6DDA9"/>
<stop offset="1" stop-color="#C6DDA9" stop-opacity="0"/>
</linearGradient>
<linearGradient id="paint45_linear_12754_71308" x1="261" y1="139.5" x2="38.4347" y2="139.5" gradientUnits="userSpaceOnUse">
<stop stop-color="#C6DDA9"/>
<stop offset="1" stop-color="#C6DDA9" stop-opacity="0"/>
</linearGradient>
<linearGradient id="paint46_linear_12754_71308" x1="261" y1="139.5" x2="38.4347" y2="139.5" gradientUnits="userSpaceOnUse">
<stop stop-color="#C6DDA9"/>
<stop offset="1" stop-color="#C6DDA9" stop-opacity="0"/>
</linearGradient>
<linearGradient id="paint47_linear_12754_71308" x1="261" y1="139.5" x2="38.4347" y2="139.5" gradientUnits="userSpaceOnUse">
<stop stop-color="#C6DDA9"/>
<stop offset="1" stop-color="#C6DDA9" stop-opacity="0"/>
</linearGradient>
<linearGradient id="paint48_linear_12754_71308" x1="261" y1="139.5" x2="38.4347" y2="139.5" gradientUnits="userSpaceOnUse">
<stop stop-color="#C6DDA9"/>
<stop offset="1" stop-color="#C6DDA9" stop-opacity="0"/>
</linearGradient>
<linearGradient id="paint49_linear_12754_71308" x1="261" y1="139.5" x2="38.4347" y2="139.5" gradientUnits="userSpaceOnUse">
<stop stop-color="#C6DDA9"/>
<stop offset="1" stop-color="#C6DDA9" stop-opacity="0"/>
</linearGradient>
<linearGradient id="paint50_linear_12754_71308" x1="261" y1="139.5" x2="38.4347" y2="139.5" gradientUnits="userSpaceOnUse">
<stop stop-color="#C6DDA9"/>
<stop offset="1" stop-color="#C6DDA9" stop-opacity="0"/>
</linearGradient>
<linearGradient id="paint51_linear_12754_71308" x1="261" y1="139.5" x2="38.4347" y2="139.5" gradientUnits="userSpaceOnUse">
<stop stop-color="#C6DDA9"/>
<stop offset="1" stop-color="#C6DDA9" stop-opacity="0"/>
</linearGradient>
<linearGradient id="paint52_linear_12754_71308" x1="261" y1="139.5" x2="38.4347" y2="139.5" gradientUnits="userSpaceOnUse">
<stop stop-color="#C6DDA9"/>
<stop offset="1" stop-color="#C6DDA9" stop-opacity="0"/>
</linearGradient>
<linearGradient id="paint53_linear_12754_71308" x1="261" y1="139.5" x2="38.4347" y2="139.5" gradientUnits="userSpaceOnUse">
<stop stop-color="#C6DDA9"/>
<stop offset="1" stop-color="#C6DDA9" stop-opacity="0"/>
</linearGradient>
<linearGradient id="paint54_linear_12754_71308" x1="261" y1="139.5" x2="38.4347" y2="139.5" gradientUnits="userSpaceOnUse">
<stop stop-color="#C6DDA9"/>
<stop offset="1" stop-color="#C6DDA9" stop-opacity="0"/>
</linearGradient>
<linearGradient id="paint55_linear_12754_71308" x1="261" y1="139.5" x2="38.4347" y2="139.5" gradientUnits="userSpaceOnUse">
<stop stop-color="#C6DDA9"/>
<stop offset="1" stop-color="#C6DDA9" stop-opacity="0"/>
</linearGradient>
<linearGradient id="paint56_linear_12754_71308" x1="261" y1="139.5" x2="38.4347" y2="139.5" gradientUnits="userSpaceOnUse">
<stop stop-color="#C6DDA9"/>
<stop offset="1" stop-color="#C6DDA9" stop-opacity="0"/>
</linearGradient>
<linearGradient id="paint57_linear_12754_71308" x1="261" y1="139.5" x2="38.4347" y2="139.5" gradientUnits="userSpaceOnUse">
<stop stop-color="#C6DDA9"/>
<stop offset="1" stop-color="#C6DDA9" stop-opacity="0"/>
</linearGradient>
<linearGradient id="paint58_linear_12754_71308" x1="261" y1="139.5" x2="38.4347" y2="139.5" gradientUnits="userSpaceOnUse">
<stop stop-color="#C6DDA9"/>
<stop offset="1" stop-color="#C6DDA9" stop-opacity="0"/>
</linearGradient>
<linearGradient id="paint59_linear_12754_71308" x1="261" y1="139.5" x2="38.4347" y2="139.5" gradientUnits="userSpaceOnUse">
<stop stop-color="#C6DDA9"/>
<stop offset="1" stop-color="#C6DDA9" stop-opacity="0"/>
</linearGradient>
<linearGradient id="paint60_linear_12754_71308" x1="261" y1="139.5" x2="38.4347" y2="139.5" gradientUnits="userSpaceOnUse">
<stop stop-color="#C6DDA9"/>
<stop offset="1" stop-color="#C6DDA9" stop-opacity="0"/>
</linearGradient>
<linearGradient id="paint61_linear_12754_71308" x1="261" y1="139.5" x2="38.4347" y2="139.5" gradientUnits="userSpaceOnUse">
<stop stop-color="#C6DDA9"/>
<stop offset="1" stop-color="#C6DDA9" stop-opacity="0"/>
</linearGradient>
<linearGradient id="paint62_linear_12754_71308" x1="261" y1="139.5" x2="38.4347" y2="139.5" gradientUnits="userSpaceOnUse">
<stop stop-color="#C6DDA9"/>
<stop offset="1" stop-color="#C6DDA9" stop-opacity="0"/>
</linearGradient>
<linearGradient id="paint63_linear_12754_71308" x1="261" y1="139.5" x2="38.4347" y2="139.5" gradientUnits="userSpaceOnUse">
<stop stop-color="#C6DDA9"/>
<stop offset="1" stop-color="#C6DDA9" stop-opacity="0"/>
</linearGradient>
<linearGradient id="paint64_linear_12754_71308" x1="261" y1="139.5" x2="38.4347" y2="139.5" gradientUnits="userSpaceOnUse">
<stop stop-color="#C6DDA9"/>
<stop offset="1" stop-color="#C6DDA9" stop-opacity="0"/>
</linearGradient>
<linearGradient id="paint65_linear_12754_71308" x1="261" y1="139.5" x2="38.4347" y2="139.5" gradientUnits="userSpaceOnUse">
<stop stop-color="#C6DDA9"/>
<stop offset="1" stop-color="#C6DDA9" stop-opacity="0"/>
</linearGradient>
<linearGradient id="paint66_linear_12754_71308" x1="261" y1="139.5" x2="38.4347" y2="139.5" gradientUnits="userSpaceOnUse">
<stop stop-color="#C6DDA9"/>
<stop offset="1" stop-color="#C6DDA9" stop-opacity="0"/>
</linearGradient>
<linearGradient id="paint67_linear_12754_71308" x1="261" y1="139.5" x2="38.4347" y2="139.5" gradientUnits="userSpaceOnUse">
<stop stop-color="#C6DDA9"/>
<stop offset="1" stop-color="#C6DDA9" stop-opacity="0"/>
</linearGradient>
<linearGradient id="paint68_linear_12754_71308" x1="261" y1="139.5" x2="38.4347" y2="139.5" gradientUnits="userSpaceOnUse">
<stop stop-color="#C6DDA9"/>
<stop offset="1" stop-color="#C6DDA9" stop-opacity="0"/>
</linearGradient>
<linearGradient id="paint69_linear_12754_71308" x1="261" y1="139.5" x2="38.4347" y2="139.5" gradientUnits="userSpaceOnUse">
<stop stop-color="#C6DDA9"/>
<stop offset="1" stop-color="#C6DDA9" stop-opacity="0"/>
</linearGradient>
<linearGradient id="paint70_linear_12754_71308" x1="261" y1="139.5" x2="38.4347" y2="139.5" gradientUnits="userSpaceOnUse">
<stop stop-color="#C6DDA9"/>
<stop offset="1" stop-color="#C6DDA9" stop-opacity="0"/>
</linearGradient>
<linearGradient id="paint71_linear_12754_71308" x1="261" y1="139.5" x2="38.4347" y2="139.5" gradientUnits="userSpaceOnUse">
<stop stop-color="#C6DDA9"/>
<stop offset="1" stop-color="#C6DDA9" stop-opacity="0"/>
</linearGradient>
<linearGradient id="paint72_linear_12754_71308" x1="261" y1="139.5" x2="38.4347" y2="139.5" gradientUnits="userSpaceOnUse">
<stop stop-color="#C6DDA9"/>
<stop offset="1" stop-color="#C6DDA9" stop-opacity="0"/>
</linearGradient>
<linearGradient id="paint73_linear_12754_71308" x1="261" y1="139.5" x2="38.4347" y2="139.5" gradientUnits="userSpaceOnUse">
<stop stop-color="#C6DDA9"/>
<stop offset="1" stop-color="#C6DDA9" stop-opacity="0"/>
</linearGradient>
<linearGradient id="paint74_linear_12754_71308" x1="261" y1="139.5" x2="38.4347" y2="139.5" gradientUnits="userSpaceOnUse">
<stop stop-color="#C6DDA9"/>
<stop offset="1" stop-color="#C6DDA9" stop-opacity="0"/>
</linearGradient>
<linearGradient id="paint75_linear_12754_71308" x1="261" y1="139.5" x2="38.4347" y2="139.5" gradientUnits="userSpaceOnUse">
<stop stop-color="#C6DDA9"/>
<stop offset="1" stop-color="#C6DDA9" stop-opacity="0"/>
</linearGradient>
<linearGradient id="paint76_linear_12754_71308" x1="261" y1="139.5" x2="38.4347" y2="139.5" gradientUnits="userSpaceOnUse">
<stop stop-color="#C6DDA9"/>
<stop offset="1" stop-color="#C6DDA9" stop-opacity="0"/>
</linearGradient>
<linearGradient id="paint77_linear_12754_71308" x1="261" y1="139.5" x2="38.4347" y2="139.5" gradientUnits="userSpaceOnUse">
<stop stop-color="#C6DDA9"/>
<stop offset="1" stop-color="#C6DDA9" stop-opacity="0"/>
</linearGradient>
<linearGradient id="paint78_linear_12754_71308" x1="261" y1="139.5" x2="38.4347" y2="139.5" gradientUnits="userSpaceOnUse">
<stop stop-color="#C6DDA9"/>
<stop offset="1" stop-color="#C6DDA9" stop-opacity="0"/>
</linearGradient>
<linearGradient id="paint79_linear_12754_71308" x1="261" y1="139.5" x2="38.4347" y2="139.5" gradientUnits="userSpaceOnUse">
<stop stop-color="#C6DDA9"/>
<stop offset="1" stop-color="#C6DDA9" stop-opacity="0"/>
</linearGradient>
<linearGradient id="paint80_linear_12754_71308" x1="261" y1="139.5" x2="38.4347" y2="139.5" gradientUnits="userSpaceOnUse">
<stop stop-color="#C6DDA9"/>
<stop offset="1" stop-color="#C6DDA9" stop-opacity="0"/>
</linearGradient>
<linearGradient id="paint81_linear_12754_71308" x1="261" y1="139.5" x2="38.4347" y2="139.5" gradientUnits="userSpaceOnUse">
<stop stop-color="#C6DDA9"/>
<stop offset="1" stop-color="#C6DDA9" stop-opacity="0"/>
</linearGradient>
<linearGradient id="paint82_linear_12754_71308" x1="261" y1="139.5" x2="38.4347" y2="139.5" gradientUnits="userSpaceOnUse">
<stop stop-color="#C6DDA9"/>
<stop offset="1" stop-color="#C6DDA9" stop-opacity="0"/>
</linearGradient>
<linearGradient id="paint83_linear_12754_71308" x1="261" y1="139.5" x2="38.4347" y2="139.5" gradientUnits="userSpaceOnUse">
<stop stop-color="#C6DDA9"/>
<stop offset="1" stop-color="#C6DDA9" stop-opacity="0"/>
</linearGradient>
<linearGradient id="paint84_linear_12754_71308" x1="261" y1="139.5" x2="38.4347" y2="139.5" gradientUnits="userSpaceOnUse">
<stop stop-color="#C6DDA9"/>
<stop offset="1" stop-color="#C6DDA9" stop-opacity="0"/>
</linearGradient>
<linearGradient id="paint85_linear_12754_71308" x1="261" y1="139.5" x2="38.4347" y2="139.5" gradientUnits="userSpaceOnUse">
<stop stop-color="#C6DDA9"/>
<stop offset="1" stop-color="#C6DDA9" stop-opacity="0"/>
</linearGradient>
<linearGradient id="paint86_linear_12754_71308" x1="261" y1="139.5" x2="38.4347" y2="139.5" gradientUnits="userSpaceOnUse">
<stop stop-color="#C6DDA9"/>
<stop offset="1" stop-color="#C6DDA9" stop-opacity="0"/>
</linearGradient>
<linearGradient id="paint87_linear_12754_71308" x1="261" y1="139.5" x2="38.4347" y2="139.5" gradientUnits="userSpaceOnUse">
<stop stop-color="#C6DDA9"/>
<stop offset="1" stop-color="#C6DDA9" stop-opacity="0"/>
</linearGradient>
<linearGradient id="paint88_linear_12754_71308" x1="261" y1="139.5" x2="38.4347" y2="139.5" gradientUnits="userSpaceOnUse">
<stop stop-color="#C6DDA9"/>
<stop offset="1" stop-color="#C6DDA9" stop-opacity="0"/>
</linearGradient>
<linearGradient id="paint89_linear_12754_71308" x1="261" y1="139.5" x2="38.4347" y2="139.5" gradientUnits="userSpaceOnUse">
<stop stop-color="#C6DDA9"/>
<stop offset="1" stop-color="#C6DDA9" stop-opacity="0"/>
</linearGradient>
<linearGradient id="paint90_linear_12754_71308" x1="261" y1="139.5" x2="38.4347" y2="139.5" gradientUnits="userSpaceOnUse">
<stop stop-color="#C6DDA9"/>
<stop offset="1" stop-color="#C6DDA9" stop-opacity="0"/>
</linearGradient>
<linearGradient id="paint91_linear_12754_71308" x1="261" y1="139.5" x2="38.4347" y2="139.5" gradientUnits="userSpaceOnUse">
<stop stop-color="#C6DDA9"/>
<stop offset="1" stop-color="#C6DDA9" stop-opacity="0"/>
</linearGradient>
<linearGradient id="paint92_linear_12754_71308" x1="261" y1="139.5" x2="38.4347" y2="139.5" gradientUnits="userSpaceOnUse">
<stop stop-color="#C6DDA9"/>
<stop offset="1" stop-color="#C6DDA9" stop-opacity="0"/>
</linearGradient>
<linearGradient id="paint93_linear_12754_71308" x1="261" y1="139.5" x2="38.4347" y2="139.5" gradientUnits="userSpaceOnUse">
<stop stop-color="#C6DDA9"/>
<stop offset="1" stop-color="#C6DDA9" stop-opacity="0"/>
</linearGradient>
<linearGradient id="paint94_linear_12754_71308" x1="261" y1="139.5" x2="38.4347" y2="139.5" gradientUnits="userSpaceOnUse">
<stop stop-color="#C6DDA9"/>
<stop offset="1" stop-color="#C6DDA9" stop-opacity="0"/>
</linearGradient>
<linearGradient id="paint95_linear_12754_71308" x1="261" y1="139.5" x2="38.4347" y2="139.5" gradientUnits="userSpaceOnUse">
<stop stop-color="#C6DDA9"/>
<stop offset="1" stop-color="#C6DDA9" stop-opacity="0"/>
</linearGradient>
<linearGradient id="paint96_linear_12754_71308" x1="261" y1="139.5" x2="38.4347" y2="139.5" gradientUnits="userSpaceOnUse">
<stop stop-color="#C6DDA9"/>
<stop offset="1" stop-color="#C6DDA9" stop-opacity="0"/>
</linearGradient>
<linearGradient id="paint97_linear_12754_71308" x1="261" y1="139.5" x2="38.4347" y2="139.5" gradientUnits="userSpaceOnUse">
<stop stop-color="#C6DDA9"/>
<stop offset="1" stop-color="#C6DDA9" stop-opacity="0"/>
</linearGradient>
<linearGradient id="paint98_linear_12754_71308" x1="261" y1="139.5" x2="38.4347" y2="139.5" gradientUnits="userSpaceOnUse">
<stop stop-color="#C6DDA9"/>
<stop offset="1" stop-color="#C6DDA9" stop-opacity="0"/>
</linearGradient>
<linearGradient id="paint99_linear_12754_71308" x1="261" y1="139.5" x2="38.4347" y2="139.5" gradientUnits="userSpaceOnUse">
<stop stop-color="#C6DDA9"/>
<stop offset="1" stop-color="#C6DDA9" stop-opacity="0"/>
</linearGradient>
<linearGradient id="paint100_linear_12754_71308" x1="261" y1="139.5" x2="38.4347" y2="139.5" gradientUnits="userSpaceOnUse">
<stop stop-color="#C6DDA9"/>
<stop offset="1" stop-color="#C6DDA9" stop-opacity="0"/>
</linearGradient>
<linearGradient id="paint101_linear_12754_71308" x1="261" y1="139.5" x2="38.4347" y2="139.5" gradientUnits="userSpaceOnUse">
<stop stop-color="#C6DDA9"/>
<stop offset="1" stop-color="#C6DDA9" stop-opacity="0"/>
</linearGradient>
<linearGradient id="paint102_linear_12754_71308" x1="261" y1="139.5" x2="38.4347" y2="139.5" gradientUnits="userSpaceOnUse">
<stop stop-color="#C6DDA9"/>
<stop offset="1" stop-color="#C6DDA9" stop-opacity="0"/>
</linearGradient>
<linearGradient id="paint103_linear_12754_71308" x1="261" y1="139.5" x2="38.4347" y2="139.5" gradientUnits="userSpaceOnUse">
<stop stop-color="#C6DDA9"/>
<stop offset="1" stop-color="#C6DDA9" stop-opacity="0"/>
</linearGradient>
<linearGradient id="paint104_linear_12754_71308" x1="261" y1="139.5" x2="38.4347" y2="139.5" gradientUnits="userSpaceOnUse">
<stop stop-color="#C6DDA9"/>
<stop offset="1" stop-color="#C6DDA9" stop-opacity="0"/>
</linearGradient>
<linearGradient id="paint105_linear_12754_71308" x1="261" y1="139.5" x2="38.4347" y2="139.5" gradientUnits="userSpaceOnUse">
<stop stop-color="#C6DDA9"/>
<stop offset="1" stop-color="#C6DDA9" stop-opacity="0"/>
</linearGradient>
<linearGradient id="paint106_linear_12754_71308" x1="261" y1="139.5" x2="38.4347" y2="139.5" gradientUnits="userSpaceOnUse">
<stop stop-color="#C6DDA9"/>
<stop offset="1" stop-color="#C6DDA9" stop-opacity="0"/>
</linearGradient>
<linearGradient id="paint107_linear_12754_71308" x1="261" y1="139.5" x2="38.4347" y2="139.5" gradientUnits="userSpaceOnUse">
<stop stop-color="#C6DDA9"/>
<stop offset="1" stop-color="#C6DDA9" stop-opacity="0"/>
</linearGradient>
<linearGradient id="paint108_linear_12754_71308" x1="261" y1="139.5" x2="38.4347" y2="139.5" gradientUnits="userSpaceOnUse">
<stop stop-color="#C6DDA9"/>
<stop offset="1" stop-color="#C6DDA9" stop-opacity="0"/>
</linearGradient>
<linearGradient id="paint109_linear_12754_71308" x1="261" y1="139.5" x2="38.4347" y2="139.5" gradientUnits="userSpaceOnUse">
<stop stop-color="#C6DDA9"/>
<stop offset="1" stop-color="#C6DDA9" stop-opacity="0"/>
</linearGradient>
<linearGradient id="paint110_linear_12754_71308" x1="261" y1="139.5" x2="38.4347" y2="139.5" gradientUnits="userSpaceOnUse">
<stop stop-color="#C6DDA9"/>
<stop offset="1" stop-color="#C6DDA9" stop-opacity="0"/>
</linearGradient>
<linearGradient id="paint111_linear_12754_71308" x1="261" y1="139.5" x2="38.4347" y2="139.5" gradientUnits="userSpaceOnUse">
<stop stop-color="#C6DDA9"/>
<stop offset="1" stop-color="#C6DDA9" stop-opacity="0"/>
</linearGradient>
<linearGradient id="paint112_linear_12754_71308" x1="261" y1="139.5" x2="38.4347" y2="139.5" gradientUnits="userSpaceOnUse">
<stop stop-color="#C6DDA9"/>
<stop offset="1" stop-color="#C6DDA9" stop-opacity="0"/>
</linearGradient>
<linearGradient id="paint113_linear_12754_71308" x1="261" y1="139.5" x2="38.4347" y2="139.5" gradientUnits="userSpaceOnUse">
<stop stop-color="#C6DDA9"/>
<stop offset="1" stop-color="#C6DDA9" stop-opacity="0"/>
</linearGradient>
<linearGradient id="paint114_linear_12754_71308" x1="261" y1="139.5" x2="38.4347" y2="139.5" gradientUnits="userSpaceOnUse">
<stop stop-color="#C6DDA9"/>
<stop offset="1" stop-color="#C6DDA9" stop-opacity="0"/>
</linearGradient>
<linearGradient id="paint115_linear_12754_71308" x1="261" y1="139.5" x2="38.4347" y2="139.5" gradientUnits="userSpaceOnUse">
<stop stop-color="#C6DDA9"/>
<stop offset="1" stop-color="#C6DDA9" stop-opacity="0"/>
</linearGradient>
<linearGradient id="paint116_linear_12754_71308" x1="261" y1="139.5" x2="38.4347" y2="139.5" gradientUnits="userSpaceOnUse">
<stop stop-color="#C6DDA9"/>
<stop offset="1" stop-color="#C6DDA9" stop-opacity="0"/>
</linearGradient>
<linearGradient id="paint117_linear_12754_71308" x1="261" y1="139.5" x2="38.4347" y2="139.5" gradientUnits="userSpaceOnUse">
<stop stop-color="#C6DDA9"/>
<stop offset="1" stop-color="#C6DDA9" stop-opacity="0"/>
</linearGradient>
<linearGradient id="paint118_linear_12754_71308" x1="261" y1="139.5" x2="38.4347" y2="139.5" gradientUnits="userSpaceOnUse">
<stop stop-color="#C6DDA9"/>
<stop offset="1" stop-color="#C6DDA9" stop-opacity="0"/>
</linearGradient>
<linearGradient id="paint119_linear_12754_71308" x1="261" y1="139.5" x2="38.4347" y2="139.5" gradientUnits="userSpaceOnUse">
<stop stop-color="#C6DDA9"/>
<stop offset="1" stop-color="#C6DDA9" stop-opacity="0"/>
</linearGradient>
<linearGradient id="paint120_linear_12754_71308" x1="261" y1="139.5" x2="38.4347" y2="139.5" gradientUnits="userSpaceOnUse">
<stop stop-color="#C6DDA9"/>
<stop offset="1" stop-color="#C6DDA9" stop-opacity="0"/>
</linearGradient>
<linearGradient id="paint121_linear_12754_71308" x1="261" y1="139.5" x2="38.4347" y2="139.5" gradientUnits="userSpaceOnUse">
<stop stop-color="#C6DDA9"/>
<stop offset="1" stop-color="#C6DDA9" stop-opacity="0"/>
</linearGradient>
<linearGradient id="paint122_linear_12754_71308" x1="261" y1="139.5" x2="38.4347" y2="139.5" gradientUnits="userSpaceOnUse">
<stop stop-color="#C6DDA9"/>
<stop offset="1" stop-color="#C6DDA9" stop-opacity="0"/>
</linearGradient>
<linearGradient id="paint123_linear_12754_71308" x1="261" y1="139.5" x2="38.4347" y2="139.5" gradientUnits="userSpaceOnUse">
<stop stop-color="#C6DDA9"/>
<stop offset="1" stop-color="#C6DDA9" stop-opacity="0"/>
</linearGradient>
<linearGradient id="paint124_linear_12754_71308" x1="261" y1="139.5" x2="38.4347" y2="139.5" gradientUnits="userSpaceOnUse">
<stop stop-color="#C6DDA9"/>
<stop offset="1" stop-color="#C6DDA9" stop-opacity="0"/>
</linearGradient>
<linearGradient id="paint125_linear_12754_71308" x1="261" y1="139.5" x2="38.4347" y2="139.5" gradientUnits="userSpaceOnUse">
<stop stop-color="#C6DDA9"/>
<stop offset="1" stop-color="#C6DDA9" stop-opacity="0"/>
</linearGradient>
<linearGradient id="paint126_linear_12754_71308" x1="261" y1="139.5" x2="38.4347" y2="139.5" gradientUnits="userSpaceOnUse">
<stop stop-color="#C6DDA9"/>
<stop offset="1" stop-color="#C6DDA9" stop-opacity="0"/>
</linearGradient>
<linearGradient id="paint127_linear_12754_71308" x1="261" y1="139.5" x2="38.4347" y2="139.5" gradientUnits="userSpaceOnUse">
<stop stop-color="#C6DDA9"/>
<stop offset="1" stop-color="#C6DDA9" stop-opacity="0"/>
</linearGradient>
<linearGradient id="paint128_linear_12754_71308" x1="261" y1="139.5" x2="38.4347" y2="139.5" gradientUnits="userSpaceOnUse">
<stop stop-color="#C6DDA9"/>
<stop offset="1" stop-color="#C6DDA9" stop-opacity="0"/>
</linearGradient>
<linearGradient id="paint129_linear_12754_71308" x1="261" y1="139.5" x2="38.4347" y2="139.5" gradientUnits="userSpaceOnUse">
<stop stop-color="#C6DDA9"/>
<stop offset="1" stop-color="#C6DDA9" stop-opacity="0"/>
</linearGradient>
<linearGradient id="paint130_linear_12754_71308" x1="261" y1="139.5" x2="38.4347" y2="139.5" gradientUnits="userSpaceOnUse">
<stop stop-color="#C6DDA9"/>
<stop offset="1" stop-color="#C6DDA9" stop-opacity="0"/>
</linearGradient>
<linearGradient id="paint131_linear_12754_71308" x1="261" y1="139.5" x2="38.4347" y2="139.5" gradientUnits="userSpaceOnUse">
<stop stop-color="#C6DDA9"/>
<stop offset="1" stop-color="#C6DDA9" stop-opacity="0"/>
</linearGradient>
</defs>
</svg>
