<svg xmlns="http://www.w3.org/2000/svg" width="92" height="20" viewBox="0 0 92 20" fill="none" style="&#10;    color: red;&#10;">
<path d="M81.6299 2.72203L82 0.624999L82.3701 2.72203C83.1102 6.17598 85.824 8.8898 89.278 9.62993L91.375 10L89.278 10.3701C85.824 11.1102 83.1102 13.824 82.3701 17.278L82 19.375L81.6299 17.278C80.8898 13.824 78.176 11.1102 74.722 10.3701L72.625 10L74.722 9.62993C78.176 8.8898 80.8898 6.17598 81.6299 2.72203Z" fill="currentColor"/>
<path d="M45.6299 2.72203L46 0.624999L46.3701 2.72203C47.1102 6.17598 49.824 8.8898 53.278 9.62993L55.375 10L53.278 10.3701C49.824 11.1102 47.1102 13.824 46.3701 17.278L46 19.375L45.6299 17.278C44.8898 13.824 42.176 11.1102 38.722 10.3701L36.625 10L38.722 9.62993C42.176 8.8898 44.8898 6.17598 45.6299 2.72203Z" fill="currentColor"/>
<path d="M9.62993 2.72203L10 0.624999L10.3701 2.72203C11.1102 6.17598 13.824 8.8898 17.278 9.62993L19.375 10L17.278 10.3701C13.824 11.1102 11.1102 13.824 10.3701 17.278L10 19.375L9.62993 17.278C8.8898 13.824 6.17599 11.1102 2.72204 10.3701L0.625001 10L2.72204 9.62993C6.17599 8.8898 8.8898 6.17598 9.62993 2.72203Z" fill="currentColor"/>
</svg>