<svg width="196" height="412" viewBox="0 0 196 412" fill="none" xmlns="http://www.w3.org/2000/svg">
<path d="M16.0736 25.9169L15.5 29.0625L14.9264 25.9169C13.7792 20.736 9.57278 16.6653 4.21916 15.5551L0.96875 15L4.21916 14.4449C9.57278 13.3347 13.7792 9.26398 14.9264 4.08305L15.5 0.9375L16.0736 4.08305C17.2208 9.26398 21.4272 13.3347 26.7808 14.4449L30.0312 15L26.7808 15.5551C21.4272 16.6653 17.2208 20.736 16.0736 25.9169Z" fill="white"/>
<path d="M71.0736 25.9169L70.5 29.0625L69.9264 25.9169C68.7792 20.736 64.5728 16.6653 59.2192 15.5551L55.9688 15L59.2192 14.4449C64.5728 13.3347 68.7792 9.26398 69.9264 4.08305L70.5 0.9375L71.0736 4.08305C72.2208 9.26398 76.4272 13.3347 81.7808 14.4449L85.0312 15L81.7808 15.5551C76.4272 16.6653 72.2208 20.736 71.0736 25.9169Z" fill="white"/>
<path d="M126.074 25.9169L125.5 29.0625L124.926 25.9169C123.779 20.736 119.573 16.6653 114.219 15.5551L110.969 15L114.219 14.4449C119.573 13.3347 123.779 9.26398 124.926 4.08305L125.5 0.9375L126.074 4.08305C127.221 9.26398 131.427 13.3347 136.781 14.4449L140.031 15L136.781 15.5551C131.427 16.6653 127.221 20.736 126.074 25.9169Z" fill="white"/>
<path d="M181.074 25.9169L180.5 29.0625L179.926 25.9169C178.779 20.736 174.573 16.6653 169.219 15.5551L165.969 15L169.219 14.4449C174.573 13.3347 178.779 9.26398 179.926 4.08305L180.5 0.9375L181.074 4.08305C182.221 9.26398 186.427 13.3347 191.781 14.4449L195.031 15L191.781 15.5551C186.427 16.6653 182.221 20.736 181.074 25.9169Z" fill="white"/>
<path d="M16.0736 80.7808L15.5 84.0312L14.9264 80.7808C13.7792 75.4272 9.57278 71.2208 4.21916 70.0736L0.96875 69.5L4.21916 68.9264C9.57278 67.7792 13.7792 63.5728 14.9264 58.2192L15.5 54.9688L16.0736 58.2192C17.2208 63.5728 21.4272 67.7792 26.7808 68.9264L30.0312 69.5L26.7808 70.0736C21.4272 71.2208 17.2208 75.4272 16.0736 80.7808Z" fill="white"/>
<path d="M16.0736 135.781L15.5 139.031L14.9264 135.781C13.7792 130.427 9.57278 126.221 4.21916 125.074L0.96875 124.5L4.21916 123.926C9.57278 122.779 13.7792 118.573 14.9264 113.219L15.5 109.969L16.0736 113.219C17.2208 118.573 21.4272 122.779 26.7808 123.926L30.0312 124.5L26.7808 125.074C21.4272 126.221 17.2208 130.427 16.0736 135.781Z" fill="white"/>
<path d="M16.0736 190.781L15.5 194.031L14.9264 190.781C13.7792 185.427 9.57278 181.221 4.21916 180.074L0.96875 179.5L4.21916 178.926C9.57278 177.779 13.7792 173.573 14.9264 168.219L15.5 164.969L16.0736 168.219C17.2208 173.573 21.4272 177.779 26.7808 178.926L30.0312 179.5L26.7808 180.074C21.4272 181.221 17.2208 185.427 16.0736 190.781Z" fill="white"/>
<path d="M16.0736 244.917L15.5 248.062L14.9264 244.917C13.7792 239.736 9.57278 235.665 4.21916 234.555L0.96875 234L4.21916 233.445C9.57278 232.335 13.7792 228.264 14.9264 223.083L15.5 219.938L16.0736 223.083C17.2208 228.264 21.4272 232.335 26.7808 233.445L30.0312 234L26.7808 234.555C21.4272 235.665 17.2208 239.736 16.0736 244.917Z" fill="white"/>
<path d="M16.0736 298.917L15.5 302.062L14.9264 298.917C13.7792 293.736 9.57278 289.665 4.21916 288.555L0.96875 288L4.21916 287.445C9.57278 286.335 13.7792 282.264 14.9264 277.083L15.5 273.938L16.0736 277.083C17.2208 282.264 21.4272 286.335 26.7808 287.445L30.0312 288L26.7808 288.555C21.4272 289.665 17.2208 293.736 16.0736 298.917Z" fill="white"/>
<path d="M16.0736 352.917L15.5 356.062L14.9264 352.917C13.7792 347.736 9.57278 343.665 4.21916 342.555L0.96875 342L4.21916 341.445C9.57278 340.335 13.7792 336.264 14.9264 331.083L15.5 327.938L16.0736 331.083C17.2208 336.264 21.4272 340.335 26.7808 341.445L30.0312 342L26.7808 342.555C21.4272 343.665 17.2208 347.736 16.0736 352.917Z" fill="white"/>
<path d="M16.0736 407.781L15.5 411.031L14.9264 407.781C13.7792 402.427 9.57278 398.221 4.21916 397.074L0.96875 396.5L4.21916 395.926C9.57278 394.779 13.7792 390.573 14.9264 385.219L15.5 381.969L16.0736 385.219C17.2208 390.573 21.4272 394.779 26.7808 395.926L30.0312 396.5L26.7808 397.074C21.4272 398.221 17.2208 402.427 16.0736 407.781Z" fill="white"/>
<path d="M71.0736 80.7808L70.5 84.0312L69.9264 80.7808C68.7792 75.4272 64.5728 71.2208 59.2192 70.0736L55.9688 69.5L59.2192 68.9264C64.5728 67.7792 68.7792 63.5728 69.9264 58.2192L70.5 54.9688L71.0736 58.2192C72.2208 63.5728 76.4272 67.7792 81.7808 68.9264L85.0312 69.5L81.7808 70.0736C76.4272 71.2208 72.2208 75.4272 71.0736 80.7808Z" fill="white"/>
<path d="M71.0736 135.781L70.5 139.031L69.9264 135.781C68.7792 130.427 64.5728 126.221 59.2192 125.074L55.9688 124.5L59.2192 123.926C64.5728 122.779 68.7792 118.573 69.9264 113.219L70.5 109.969L71.0736 113.219C72.2208 118.573 76.4272 122.779 81.7808 123.926L85.0312 124.5L81.7808 125.074C76.4272 126.221 72.2208 130.427 71.0736 135.781Z" fill="white"/>
<path d="M71.0736 190.781L70.5 194.031L69.9264 190.781C68.7792 185.427 64.5728 181.221 59.2192 180.074L55.9688 179.5L59.2192 178.926C64.5728 177.779 68.7792 173.573 69.9264 168.219L70.5 164.969L71.0736 168.219C72.2208 173.573 76.4272 177.779 81.7808 178.926L85.0312 179.5L81.7808 180.074C76.4272 181.221 72.2208 185.427 71.0736 190.781Z" fill="white"/>
<path d="M71.0736 244.917L70.5 248.062L69.9264 244.917C68.7792 239.736 64.5728 235.665 59.2192 234.555L55.9688 234L59.2192 233.445C64.5728 232.335 68.7792 228.264 69.9264 223.083L70.5 219.938L71.0736 223.083C72.2208 228.264 76.4272 232.335 81.7808 233.445L85.0312 234L81.7808 234.555C76.4272 235.665 72.2208 239.736 71.0736 244.917Z" fill="white"/>
<path d="M71.0736 298.917L70.5 302.062L69.9264 298.917C68.7792 293.736 64.5728 289.665 59.2192 288.555L55.9688 288L59.2192 287.445C64.5728 286.335 68.7792 282.264 69.9264 277.083L70.5 273.938L71.0736 277.083C72.2208 282.264 76.4272 286.335 81.7808 287.445L85.0312 288L81.7808 288.555C76.4272 289.665 72.2208 293.736 71.0736 298.917Z" fill="white"/>
<path d="M71.0736 352.917L70.5 356.062L69.9264 352.917C68.7792 347.736 64.5728 343.665 59.2192 342.555L55.9688 342L59.2192 341.445C64.5728 340.335 68.7792 336.264 69.9264 331.083L70.5 327.938L71.0736 331.083C72.2208 336.264 76.4272 340.335 81.7808 341.445L85.0312 342L81.7808 342.555C76.4272 343.665 72.2208 347.736 71.0736 352.917Z" fill="white"/>
<path d="M71.0736 407.781L70.5 411.031L69.9264 407.781C68.7792 402.427 64.5728 398.221 59.2192 397.074L55.9688 396.5L59.2192 395.926C64.5728 394.779 68.7792 390.573 69.9264 385.219L70.5 381.969L71.0736 385.219C72.2208 390.573 76.4272 394.779 81.7808 395.926L85.0312 396.5L81.7808 397.074C76.4272 398.221 72.2208 402.427 71.0736 407.781Z" fill="white"/>
<path d="M126.074 80.7808L125.5 84.0312L124.926 80.7808C123.779 75.4272 119.573 71.2208 114.219 70.0736L110.969 69.5L114.219 68.9264C119.573 67.7792 123.779 63.5728 124.926 58.2192L125.5 54.9688L126.074 58.2192C127.221 63.5728 131.427 67.7792 136.781 68.9264L140.031 69.5L136.781 70.0736C131.427 71.2208 127.221 75.4272 126.074 80.7808Z" fill="white"/>
<path d="M126.074 135.781L125.5 139.031L124.926 135.781C123.779 130.427 119.573 126.221 114.219 125.074L110.969 124.5L114.219 123.926C119.573 122.779 123.779 118.573 124.926 113.219L125.5 109.969L126.074 113.219C127.221 118.573 131.427 122.779 136.781 123.926L140.031 124.5L136.781 125.074C131.427 126.221 127.221 130.427 126.074 135.781Z" fill="white"/>
<path d="M126.074 190.781L125.5 194.031L124.926 190.781C123.779 185.427 119.573 181.221 114.219 180.074L110.969 179.5L114.219 178.926C119.573 177.779 123.779 173.573 124.926 168.219L125.5 164.969L126.074 168.219C127.221 173.573 131.427 177.779 136.781 178.926L140.031 179.5L136.781 180.074C131.427 181.221 127.221 185.427 126.074 190.781Z" fill="white"/>
<path d="M126.074 244.917L125.5 248.062L124.926 244.917C123.779 239.736 119.573 235.665 114.219 234.555L110.969 234L114.219 233.445C119.573 232.335 123.779 228.264 124.926 223.083L125.5 219.938L126.074 223.083C127.221 228.264 131.427 232.335 136.781 233.445L140.031 234L136.781 234.555C131.427 235.665 127.221 239.736 126.074 244.917Z" fill="white"/>
<path d="M126.074 298.917L125.5 302.062L124.926 298.917C123.779 293.736 119.573 289.665 114.219 288.555L110.969 288L114.219 287.445C119.573 286.335 123.779 282.264 124.926 277.083L125.5 273.938L126.074 277.083C127.221 282.264 131.427 286.335 136.781 287.445L140.031 288L136.781 288.555C131.427 289.665 127.221 293.736 126.074 298.917Z" fill="white"/>
<path d="M126.074 352.917L125.5 356.062L124.926 352.917C123.779 347.736 119.573 343.665 114.219 342.555L110.969 342L114.219 341.445C119.573 340.335 123.779 336.264 124.926 331.083L125.5 327.938L126.074 331.083C127.221 336.264 131.427 340.335 136.781 341.445L140.031 342L136.781 342.555C131.427 343.665 127.221 347.736 126.074 352.917Z" fill="white"/>
<path d="M126.074 407.781L125.5 411.031L124.926 407.781C123.779 402.427 119.573 398.221 114.219 397.074L110.969 396.5L114.219 395.926C119.573 394.779 123.779 390.573 124.926 385.219L125.5 381.969L126.074 385.219C127.221 390.573 131.427 394.779 136.781 395.926L140.031 396.5L136.781 397.074C131.427 398.221 127.221 402.427 126.074 407.781Z" fill="white"/>
<path d="M181.074 80.7808L180.5 84.0312L179.926 80.7808C178.779 75.4272 174.573 71.2208 169.219 70.0736L165.969 69.5L169.219 68.9264C174.573 67.7792 178.779 63.5728 179.926 58.2192L180.5 54.9688L181.074 58.2192C182.221 63.5728 186.427 67.7792 191.781 68.9264L195.031 69.5L191.781 70.0736C186.427 71.2208 182.221 75.4272 181.074 80.7808Z" fill="white"/>
<path d="M181.074 135.781L180.5 139.031L179.926 135.781C178.779 130.427 174.573 126.221 169.219 125.074L165.969 124.5L169.219 123.926C174.573 122.779 178.779 118.573 179.926 113.219L180.5 109.969L181.074 113.219C182.221 118.573 186.427 122.779 191.781 123.926L195.031 124.5L191.781 125.074C186.427 126.221 182.221 130.427 181.074 135.781Z" fill="white"/>
<path d="M181.074 190.781L180.5 194.031L179.926 190.781C178.779 185.427 174.573 181.221 169.219 180.074L165.969 179.5L169.219 178.926C174.573 177.779 178.779 173.573 179.926 168.219L180.5 164.969L181.074 168.219C182.221 173.573 186.427 177.779 191.781 178.926L195.031 179.5L191.781 180.074C186.427 181.221 182.221 185.427 181.074 190.781Z" fill="white"/>
<path d="M181.074 244.917L180.5 248.062L179.926 244.917C178.779 239.736 174.573 235.665 169.219 234.555L165.969 234L169.219 233.445C174.573 232.335 178.779 228.264 179.926 223.083L180.5 219.938L181.074 223.083C182.221 228.264 186.427 232.335 191.781 233.445L195.031 234L191.781 234.555C186.427 235.665 182.221 239.736 181.074 244.917Z" fill="white"/>
<path d="M181.074 298.917L180.5 302.062L179.926 298.917C178.779 293.736 174.573 289.665 169.219 288.555L165.969 288L169.219 287.445C174.573 286.335 178.779 282.264 179.926 277.083L180.5 273.938L181.074 277.083C182.221 282.264 186.427 286.335 191.781 287.445L195.031 288L191.781 288.555C186.427 289.665 182.221 293.736 181.074 298.917Z" fill="white"/>
<path d="M181.074 352.917L180.5 356.062L179.926 352.917C178.779 347.736 174.573 343.665 169.219 342.555L165.969 342L169.219 341.445C174.573 340.335 178.779 336.264 179.926 331.083L180.5 327.938L181.074 331.083C182.221 336.264 186.427 340.335 191.781 341.445L195.031 342L191.781 342.555C186.427 343.665 182.221 347.736 181.074 352.917Z" fill="white"/>
<path d="M181.074 407.781L180.5 411.031L179.926 407.781C178.779 402.427 174.573 398.221 169.219 397.074L165.969 396.5L169.219 395.926C174.573 394.779 178.779 390.573 179.926 385.219L180.5 381.969L181.074 385.219C182.221 390.573 186.427 394.779 191.781 395.926L195.031 396.5L191.781 397.074C186.427 398.221 182.221 402.427 181.074 407.781Z" fill="white"/>
</svg>
