<svg width="116" height="24" viewBox="0 0 116 24" fill="none" xmlns="http://www.w3.org/2000/svg">
<path d="M21.3158 11.9411L24 12.399L21.3158 12.857C16.8947 13.7728 13.4211 17.131 12.4737 21.405L12 24L11.5263 21.405C10.5789 17.131 7.10526 13.7728 2.68421 12.857L-5.24537e-07 12.399L2.68421 11.9411C7.10526 11.0252 10.5789 7.66704 11.5263 3.393L12 0.798038L12.4737 3.393C13.4211 7.66704 16.8947 11.0252 21.3158 11.9411Z" fill="white"/>
<path d="M66.5521 11.9411L69.2363 12.399L66.5521 12.857C62.1311 13.7728 58.6574 17.131 57.71 21.405L57.2363 24L56.7626 21.405C55.8153 17.131 52.3416 13.7728 47.9205 12.857L45.2363 12.399L47.9205 11.9411C52.3416 11.0252 55.8153 7.66704 56.7626 3.393L57.2363 0.798038L57.71 3.393C58.6574 7.66704 62.1311 11.0252 66.5521 11.9411Z" fill="white"/>
<path d="M112.57 11.9411L115.254 12.399L112.57 12.857C108.149 13.7728 104.675 17.131 103.728 21.405L103.254 24L102.78 21.405C101.833 17.131 98.3592 13.7728 93.9381 12.857L91.2539 12.399L93.9381 11.9411C98.3592 11.0252 101.833 7.66704 102.78 3.393L103.254 0.798038L103.728 3.393C104.675 7.66704 108.149 11.0252 112.57 11.9411Z" fill="white"/>
</svg>
