<svg width="474" height="227" viewBox="0 0 474 227" fill="none" xmlns="http://www.w3.org/2000/svg">
<path d="M162.771 226.71H158.747L0 0H4.02441L162.771 226.71ZM184.058 226.71H180.035L21.293 0H25.3164L184.058 226.71ZM205.345 226.71H201.321L42.5791 0H46.6025L205.345 226.71ZM226.631 226.71H222.607L63.8662 0H67.8887L226.631 226.71ZM247.918 226.71H243.895L85.1523 0H89.1758L247.918 226.71ZM269.21 226.71H265.187L106.439 0H110.463L269.21 226.71ZM290.497 226.71H286.473L127.726 0H131.75L290.497 226.71ZM311.783 226.71H307.761L149.019 0H153.042L311.783 226.71ZM333.07 226.71H329.047L170.305 0H174.328L333.07 226.71ZM354.356 226.71H350.334L191.592 0H195.615L354.356 226.71ZM375.649 226.71H371.626L212.878 0H216.902L375.649 226.71ZM396.936 226.71H392.912L234.165 0H238.188L396.936 226.71ZM418.223 226.71H414.198L255.451 0H259.476L418.223 226.71ZM439.509 226.71H435.486L276.744 0H280.768L439.509 226.71ZM460.796 226.71H456.772L298.031 0H302.054L460.796 226.71ZM482.082 226.71H478.06L319.317 0H323.341L482.082 226.71ZM503.375 226.71H499.351L340.604 0H344.628L503.375 226.71ZM524.661 226.71H520.638L361.891 0H365.914L524.661 226.71ZM545.948 226.71H541.924L383.177 0H387.201L545.948 226.71ZM567.235 226.71H563.212L404.47 0H408.493L567.235 226.71ZM588.521 226.71H584.498L425.757 0H429.779L588.521 226.71ZM609.814 226.71H605.79L447.043 0H451.067L609.814 226.71ZM631.101 226.71H627.077L468.329 0H472.354L631.101 226.71Z" fill="#FEC35A"/>
</svg>
