<?xml version="1.0" encoding="utf-8"?>
<!-- Generator: Adobe Illustrator 25.3.1, SVG Export Plug-In . SVG Version: 6.00 Build 0)  -->
<svg version="1.1" id="Layer_1" xmlns="http://www.w3.org/2000/svg" xmlns:xlink="http://www.w3.org/1999/xlink" x="0px" y="0px"
	 viewBox="0 0 1200 256" style="enable-background:new 0 0 1200 256;" xml:space="preserve">
<style type="text/css">
	.st0{fill:#D01F33;}
	.st1{fill:none;stroke:#000000;stroke-width:0.5;stroke-miterlimit:10;}
	.st2{fill:none;stroke:#000000;stroke-width:0.5;stroke-miterlimit:10;stroke-dasharray:12.3947,12.3947;}
	.st3{fill:#F1F2F2;}
	.st4{fill:#E6E7E8;}
	.st5{fill:#D1D3D4;}
</style>
<g>
	<path class="st0" d="M30.1,109.5H6.2V41.3h23.4c23.7,0,36.1,13.7,36.1,34C65.8,95.6,53.1,109.5,30.1,109.5z M29.2,54.5h-6.1v41.9
		h6.1c12.1,0,19.6-6.3,19.6-20.9C48.8,61.1,40.8,54.5,29.2,54.5z"/>
	<path class="st0" d="M75.9,109.5V41.3h42.5v13.5H92.5v12.4h19.8l2.2,13.9H92.5V96h26.8v13.5H75.9z"/>
	<path class="st0" d="M149.9,86.9h-4.3v22.6h-16.9V41.3h21.9c16.6,0,26.8,7.4,26.8,22.2C177.4,79,166.4,86.9,149.9,86.9z
		 M149.6,54.1h-4.2v20.1h4c7.5,0,11.7-3.3,11.7-10.3C161,57.4,157.1,54.1,149.6,54.1z"/>
	<path class="st0" d="M223.5,110.2l-5.1-14.8H195l-4.7,14.1h-16.5l24.5-68.4h18.6l23.7,66.4L223.5,110.2z M206.6,58.4l-7.7,23.7
		h15.4L206.6,58.4z"/>
	<path class="st0" d="M301.7,107.3l-17.3,2.9l-14.9-24.1h-4.6v23.4H248V41.3h23.8c16.5,0,26.2,7.5,26.2,21.5
		c0,9.4-4.5,15.8-12.6,19.4L301.7,107.3z M270.1,54.1h-5.4v19.9h5.2c7.2,0,11.5-3.6,11.5-10.1C281.4,57.5,277.5,54.1,270.1,54.1z"/>
	<path class="st0" d="M339.1,55.7v53.8h-17V55.7h-18.9V41.3h53.9l2.4,14.3H339.1z"/>
	<path class="st0" d="M425.7,109.5l-3-45.3l-12.9,45.4H394l-12.9-45.4l-3,45.3h-14.7l4.9-68.2h21.8l13.2,46.9l13.3-46.9H438
		l4.9,68.2H425.7z"/>
	<path class="st0" d="M453.4,109.5V41.3h42.5v13.5H470v12.4h19.8l2.2,13.9H470V96h26.8v13.5H453.4z"/>
	<path class="st0" d="M548.8,109.5l-26.9-40.8v40.8h-15.7V41.3h16.4l25.1,38.1V41.3h15.7v68.2H548.8z"/>
	<path class="st0" d="M608,55.7v53.8h-17V55.7h-18.9V41.3H626l2.4,14.3H608z"/>
	<path class="st0" d="M686.6,110.8c-19.6,0-32.4-14.2-32.4-35.3c0-21.1,12.8-35.5,32.6-35.5s32.5,14.2,32.5,35.3
		S706.4,110.8,686.6,110.8z M686.7,53.3c-9.9,0-15.6,8.6-15.6,22.1s5.8,22.1,15.6,22.1c9.9,0,15.6-8.6,15.6-22.1
		S696.5,53.3,686.7,53.3z"/>
	<path class="st0" d="M746,55.5v13.8h17.8l2.4,14.3H746v25.9h-16.8V41.3H770v14.1H746z"/>
	<path class="st0" d="M840.1,109.5V81.6h-23.6v27.9h-16.9V41.3h16.9v25.5h23.6V41.3H857v68.2H840.1z"/>
	<path class="st0" d="M869.8,109.5V41.3h16.9v68.2H869.8z"/>
	<path class="st0" d="M920.6,110.3c-9.2,0-16.9-2-23.8-5.1l2.5-14.4c7,3.8,14.8,6.3,21.6,6.3c4.8,0,8.2-2.1,8.2-6.1
		c0-3.9-2-5.6-11.6-9.3c-13.6-5.2-19.6-9.7-19.6-20.9c0-13.1,10.3-20.1,23.3-20.1c8.9,0,14.6,1.7,20.5,4.5l-2.6,14.2
		c-6.1-3.6-12.5-5.5-17.8-5.5c-5.1,0-7.6,2.2-7.6,5.3c0,3.5,1.9,5.1,10.4,8.4C939,73,945,78.1,945,89
		C945,103.8,934.1,110.3,920.6,110.3z"/>
	<path class="st0" d="M985,55.7v53.8h-17V55.7h-18.9V41.3h53.9l2.4,14.3H985z"/>
	<path class="st0" d="M1039.8,110.8c-19.6,0-32.4-14.2-32.4-35.3c0-21.1,12.8-35.5,32.6-35.5s32.5,14.2,32.5,35.3
		S1059.6,110.8,1039.8,110.8z M1039.9,53.3c-9.9,0-15.6,8.6-15.6,22.1s5.8,22.1,15.6,22.1c9.9,0,15.6-8.6,15.6-22.1
		S1049.8,53.3,1039.9,53.3z"/>
	<path class="st0" d="M1136.1,107.3l-17.3,2.9l-14.9-24.1h-4.6v23.4h-16.8V41.3h23.8c16.5,0,26.2,7.5,26.2,21.5
		c0,9.4-4.5,15.8-12.6,19.4L1136.1,107.3z M1104.6,54.1h-5.4v19.9h5.2c7.2,0,11.5-3.6,11.5-10.1
		C1115.8,57.5,1111.9,54.1,1104.6,54.1z"/>
	<path class="st0" d="M1174.9,84.4v25.1h-17V84.6l-23.5-41.5l18-2.5l14.8,28.3l14.5-27.7h17.7L1174.9,84.4z"/>
</g>
<line class="st1" x1="1025.6" y1="130.1" x2="8.1" y2="130.1"/>
<g>
	<g>
		<line class="st1" x1="1025.6" y1="130.1" x2="1031.6" y2="130.1"/>
		<line class="st2" x1="1044" y1="130.1" x2="1186.5" y2="130.1"/>
		<line class="st1" x1="1192.7" y1="130.1" x2="1198.7" y2="130.1"/>
	</g>
</g>
<line class="st1" x1="133.9" y1="130.1" x2="133.9" y2="150.5"/>
<line class="st1" x1="593.9" y1="130.1" x2="593.9" y2="150.5"/>
<polygon class="st3" points="1179.1,205.7 823.2,205.7 823.2,163.9 1179.1,163.9 1200.1,184.8 "/>
<line class="st1" x1="1025.9" y1="130.1" x2="1025.9" y2="150.5"/>
<polygon class="st4" points="821.5,205.6 298.6,205.6 298.6,163.7 821.5,163.7 841.5,184.7 "/>
<polygon class="st5" points="321.3,205.7 -0.6,205.7 -0.6,163.9 321.3,163.9 341.3,184.8 "/>
<g>
	<path d="M44.7,196.4V173H47v21.3h9l0.3,2.1H44.7z"/>
	<path d="M60.5,196.4V173h12.2v2.1h-9.9v8h7.8l0.3,2.1h-8.1v9.1H73v2.1H60.5z"/>
	<path d="M94.3,196.6l-3-7.8H81l-2.9,7.6h-2.4l9.2-23.5h2.4l9.2,23.3L94.3,196.6z M86.2,175.6l-4.3,11.2h8.6L86.2,175.6z"/>
	<path d="M116.4,196.1l-2.4,0.5l-7.6-10.6h-3v10.3H101V173h6c4.6,0,7.5,2.3,7.5,6.4c0,3.6-2.3,5.7-5.6,6.4L116.4,196.1z M106.9,175
		h-3.5v9h3.1c3.5,0,5.6-1.6,5.6-4.5C112.1,176.6,110.3,175,106.9,175z"/>
	<path d="M136.1,196.4l-13.7-19.7v19.7h-2.2V173h2.2l13.3,19.1V173h2.2v23.4H136.1z"/>
	<path d="M159.8,175.1v21.3h-2.3v-21.3h-7.6V173h17.2l0.3,2.1H159.8z"/>
	<path d="M186.9,196.4v-11.2h-13v11.2h-2.3V173h2.3v10.1h13V173h2.3v23.4H186.9z"/>
	<path d="M195.4,196.4V173h12.2v2.1h-9.9v8h7.8l0.3,2.1h-8.1v9.1H208v2.1H195.4z"/>
	<path d="M225.4,186.5h-2.9v9.9h-2.3V173h5.8c4.7,0,7.7,2.4,7.7,6.6C233.7,184.2,230.2,186.5,225.4,186.5z M225.8,175h-3.3v9.4h3
		c3.6,0,5.7-1.6,5.7-4.8C231.3,176.6,229.4,175,225.8,175z"/>
	<path d="M252.7,196.6l-3-7.8h-10.2l-2.9,7.6h-2.4l9.2-23.5h2.4l9.2,23.3L252.7,196.6z M244.5,175.6l-4.3,11.2h8.6L244.5,175.6z"/>
	<path d="M264.6,196.6c-2.6,0-4.7-0.6-6.2-1.5l0.3-2.4c1.4,0.9,3.6,1.8,6,1.8c2.7,0,4.8-1.6,4.8-4.2c0-2.3-1.2-3.5-4.7-5
		c-4.5-2-6.1-3.5-6.1-6.8c0-3.5,2.8-5.9,6.7-5.9c2.2,0,3.9,0.5,5.2,1.2l-0.3,2.3c-1.3-0.9-3-1.5-4.9-1.5c-2.7,0-4.3,1.6-4.3,3.7
		c0,2.1,1.1,3.2,4.7,4.7c4.3,1.9,6.1,3.6,6.1,7C271.8,194.2,268.7,196.6,264.6,196.6z"/>
	<path d="M284.3,175.1v21.3H282v-21.3h-7.6V173h17.2l0.3,2.1H284.3z"/>
	<path d="M387.8,196.8c-5.5,0-8.8-3.7-8.8-9.1V173h2.3v14.3c0,4.3,2.1,7.3,6.4,7.3c4.2,0,6.5-2.7,6.5-7.2V173h2.3v14.5
		C396.7,193.1,393.3,196.8,387.8,196.8z"/>
	<path d="M418.4,196.4l-13.7-19.7v19.7h-2.2V173h2.2l13.3,19.1V173h2.2v23.4H418.4z"/>
	<path d="M432.7,196.4h-6.3V173h6.4c7.8,0,12.2,4.7,12.2,11.7C445,191.8,440.3,196.4,432.7,196.4z M432.9,175.1h-4.1v19.2h4.1
		c5.9,0,9.7-3.2,9.7-9.6C442.6,178.4,438.7,175.1,432.9,175.1z"/>
	<path d="M450.2,196.4V173h12.2v2.1h-9.9v8h7.8l0.3,2.1h-8.1v9.1h10.2v2.1H450.2z"/>
	<path d="M482.7,196.1l-2.4,0.5l-7.6-10.6h-3v10.3h-2.3V173h6c4.6,0,7.5,2.3,7.5,6.4c0,3.6-2.3,5.7-5.6,6.4L482.7,196.1z M473.2,175
		h-3.5v9h3.1c3.5,0,5.6-1.6,5.6-4.5C478.4,176.6,476.6,175,473.2,175z"/>
	<path d="M491.7,196.6c-2.6,0-4.7-0.6-6.2-1.5l0.3-2.4c1.4,0.9,3.6,1.8,6,1.8c2.7,0,4.8-1.6,4.8-4.2c0-2.3-1.2-3.5-4.7-5
		c-4.5-2-6.1-3.5-6.1-6.8c0-3.5,2.8-5.9,6.7-5.9c2.2,0,3.9,0.5,5.2,1.2l-0.3,2.3c-1.3-0.9-3-1.5-4.9-1.5c-2.7,0-4.3,1.6-4.3,3.7
		c0,2.1,1.1,3.2,4.7,4.7c4.3,1.9,6.1,3.6,6.1,7C499,194.2,495.8,196.6,491.7,196.6z"/>
	<path d="M511.4,175.1v21.3h-2.3v-21.3h-7.6V173h17.2l0.3,2.1H511.4z"/>
	<path d="M536.8,196.6l-3-7.8h-10.2l-2.9,7.6h-2.4l9.2-23.5h2.4l9.2,23.3L536.8,196.6z M528.7,175.6l-4.3,11.2h8.6L528.7,175.6z"/>
	<path d="M559.4,196.4l-13.7-19.7v19.7h-2.2V173h2.2l13.3,19.1V173h2.2v23.4H559.4z"/>
	<path d="M573.7,196.4h-6.3V173h6.4c7.8,0,12.2,4.7,12.2,11.7C586,191.8,581.3,196.4,573.7,196.4z M573.9,175.1h-4.1v19.2h4.1
		c5.9,0,9.7-3.2,9.7-9.6C583.6,178.4,579.7,175.1,573.9,175.1z"/>
	<path d="M606.9,175.1v21.3h-2.3v-21.3H597V173h17.2l0.3,2.1H606.9z"/>
	<path d="M633.9,196.4v-11.2h-13v11.2h-2.3V173h2.3v10.1h13V173h2.3v23.4H633.9z"/>
	<path d="M642.5,196.4V173h12.2v2.1h-9.9v8h7.8l0.3,2.1h-8.1v9.1h10.2v2.1H642.5z"/>
	<path d="M672.5,186.5h-2.9v9.9h-2.3V173h5.8c4.7,0,7.7,2.4,7.7,6.6C680.7,184.2,677.3,186.5,672.5,186.5z M672.9,175h-3.3v9.4h3
		c3.6,0,5.7-1.6,5.7-4.8C678.4,176.6,676.5,175,672.9,175z"/>
	<path d="M700.7,196.1l-2.4,0.5l-7.6-10.6h-3v10.3h-2.3V173h6c4.6,0,7.5,2.3,7.5,6.4c0,3.6-2.3,5.7-5.6,6.4L700.7,196.1z M691.2,175
		h-3.5v9h3.1c3.5,0,5.6-1.6,5.6-4.5C696.4,176.6,694.6,175,691.2,175z"/>
	<path d="M704.6,196.4V173h12.2v2.1h-9.9v8h7.8l0.3,2.1h-8.1v9.1h10.2v2.1H704.6z"/>
	<path d="M726.8,196.6c-2.6,0-4.7-0.6-6.2-1.5l0.3-2.4c1.4,0.9,3.6,1.8,6,1.8c2.7,0,4.8-1.6,4.8-4.2c0-2.3-1.2-3.5-4.7-5
		c-4.5-2-6.1-3.5-6.1-6.8c0-3.5,2.8-5.9,6.7-5.9c2.2,0,3.9,0.5,5.2,1.2l-0.3,2.3c-1.3-0.9-3-1.5-4.9-1.5c-2.7,0-4.3,1.6-4.3,3.7
		c0,2.1,1.1,3.2,4.7,4.7c4.3,1.9,6.1,3.6,6.1,7C734.1,194.2,730.9,196.6,726.8,196.6z"/>
	<path d="M739,196.4V173h12.2v2.1h-9.9v8h7.8l0.3,2.1h-8.1v9.1h10.2v2.1H739z"/>
	<path d="M772,196.4l-13.7-19.7v19.7h-2.2V173h2.2l13.3,19.1V173h2.2v23.4H772z"/>
	<path d="M788,175.1v21.3h-2.3v-21.3h-7.6V173h17.2l0.3,2.1H788z"/>
	<path d="M879.2,196.6c-2.6,0-4.7-0.6-6.2-1.5l0.3-2.4c1.4,0.9,3.6,1.8,6,1.8c2.7,0,4.8-1.6,4.8-4.2c0-2.3-1.2-3.5-4.7-5
		c-4.5-2-6.1-3.5-6.1-6.8c0-3.5,2.8-5.9,6.7-5.9c2.2,0,3.9,0.5,5.2,1.2l-0.3,2.3c-1.3-0.9-3-1.5-4.9-1.5c-2.7,0-4.3,1.6-4.3,3.7
		c0,2.1,1.1,3.2,4.7,4.7c4.3,1.9,6.1,3.6,6.1,7C886.4,194.2,883.3,196.6,879.2,196.6z"/>
	<path d="M906.7,196.4v-11.2h-13v11.2h-2.3V173h2.3v10.1h13V173h2.3v23.4H906.7z"/>
	<path d="M932,196.6l-3-7.8h-10.2l-2.9,7.6h-2.4l9.2-23.5h2.4l9.2,23.3L932,196.6z M923.9,175.6l-4.3,11.2h8.6L923.9,175.6z"/>
	<path d="M944,186.5h-2.9v9.9h-2.3V173h5.8c4.7,0,7.7,2.4,7.7,6.6C952.2,184.2,948.8,186.5,944,186.5z M944.4,175h-3.3v9.4h3
		c3.6,0,5.7-1.6,5.7-4.8C949.8,176.6,947.9,175,944.4,175z"/>
	<path d="M956.8,196.4V173H969v2.1h-9.9v8h7.8l0.3,2.1h-8.1v9.1h10.2v2.1H956.8z"/>
	<path d="M989.5,175.1v21.3h-2.3v-21.3h-7.6V173h17.2l0.3,2.1H989.5z"/>
	<path d="M1016.6,196.4v-11.2h-13v11.2h-2.3V173h2.3v10.1h13V173h2.3v23.4H1016.6z"/>
	<path d="M1025.2,196.4V173h12.2v2.1h-9.9v8h7.8l0.3,2.1h-8.1v9.1h10.2v2.1H1025.2z"/>
	<path d="M1052.3,175.1v8.4h7.5l0.3,2.1h-7.9v10.8h-2.3V173h11.7v2.1H1052.3z"/>
	<path d="M1074.5,196.8c-5.5,0-8.8-3.7-8.8-9.1V173h2.3v14.3c0,4.3,2.1,7.3,6.4,7.3c4.2,0,6.5-2.7,6.5-7.2V173h2.3v14.5
		C1083.3,193.1,1080,196.8,1074.5,196.8z"/>
	<path d="M1097.2,175.1v21.3h-2.3v-21.3h-7.6V173h17.2l0.3,2.1H1097.2z"/>
	<path d="M1117.3,196.8c-5.5,0-8.8-3.7-8.8-9.1V173h2.3v14.3c0,4.3,2.1,7.3,6.4,7.3c4.2,0,6.5-2.7,6.5-7.2V173h2.3v14.5
		C1126.1,193.1,1122.8,196.8,1117.3,196.8z"/>
	<path d="M1147.3,196.1l-2.4,0.5l-7.6-10.6h-3v10.3h-2.3V173h6c4.6,0,7.5,2.3,7.5,6.4c0,3.6-2.3,5.7-5.6,6.4L1147.3,196.1z
		 M1137.9,175h-3.5v9h3.1c3.5,0,5.6-1.6,5.6-4.5C1143.1,176.6,1141.3,175,1137.9,175z"/>
	<path d="M1151.2,196.4V173h12.2v2.1h-9.9v8h7.8l0.3,2.1h-8.1v9.1h10.2v2.1H1151.2z"/>
</g>
<circle class="st0" cx="133.9" cy="130.1" r="7.3"/>
<circle class="st0" cx="594.3" cy="130.1" r="7.3"/>
<circle class="st0" cx="1025.6" cy="130.1" r="7.3"/>
</svg>
