<svg width="24" height="116" viewBox="0 0 24 116" fill="none" xmlns="http://www.w3.org/2000/svg">
<g id="Group 14">
<path id="Vector" d="M11.143 94.2926L11.6009 91.6084L12.0589 94.2926C12.9747 98.7137 16.3329 102.187 20.6069 103.135L23.2019 103.608L20.6069 104.082C16.3329 105.029 12.9747 108.503 12.0589 112.924L11.6009 115.608L11.143 112.924C10.2271 108.503 6.86894 105.029 2.5949 104.082L-5.82695e-05 103.608L2.5949 103.135C6.86894 102.187 10.2271 98.7137 11.143 94.2926Z" fill="white"/>
<path id="Vector_2" d="M11.143 49.0563L11.6009 46.3721L12.0589 49.0563C12.9747 53.4773 16.3329 56.951 20.6069 57.8984L23.2019 58.3721L20.6069 58.8458C16.3329 59.7931 12.9747 63.2668 12.0589 67.6879L11.6009 70.3721L11.143 67.6879C10.2271 63.2668 6.86894 59.7931 2.5949 58.8458L-5.82695e-05 58.3721L2.5949 57.8984C6.86894 56.951 10.2271 53.4773 11.143 49.0563Z" fill="white"/>
<path id="Vector_3" d="M11.143 3.0387L11.6009 0.354493L12.0589 3.0387C12.9747 7.45975 16.3329 10.9334 20.6069 11.8808L23.2019 12.3545L20.6069 12.8282C16.3329 13.7756 12.9747 17.2492 12.0589 21.6703L11.6009 24.3545L11.143 21.6703C10.2271 17.2492 6.86894 13.7756 2.5949 12.8282L-5.82521e-05 12.3545L2.5949 11.8808C6.86894 10.9334 10.2271 7.45975 11.143 3.0387Z" fill="white"/>
</g>
</svg>
