<svg width="183" height="32" viewBox="0 0 183 32" fill="none" xmlns="http://www.w3.org/2000/svg">
<path d="M-125.022 149H-127.667L-232 0H-229.355L-125.022 149ZM-111.031 149H-113.676L-218.005 0H-215.36L-111.031 149ZM-97.041 149H-99.6855L-204.015 0H-201.37L-97.041 149ZM-83.0508 149H-85.6953L-190.024 0H-187.38L-83.0508 149ZM-69.0605 149H-71.7051L-176.034 0H-173.39L-69.0605 149ZM-55.0664 149H-57.7109L-162.044 0H-159.399L-55.0664 149ZM-41.0762 149H-43.7207L-148.054 0H-145.409L-41.0762 149ZM-27.0869 149H-29.7314L-134.061 0H-131.416L-27.0869 149ZM-13.0967 149H-15.7412L-120.07 0H-117.426L-13.0967 149ZM0.893555 149H-1.75098L-106.08 0H-103.436L0.893555 149ZM14.8887 149H12.2432L-92.0898 0H-89.4453L14.8887 149ZM28.8789 149H26.2334L-78.0996 0H-75.4551L28.8789 149ZM42.8691 149H40.2236L-64.1094 0H-61.4648L42.8691 149ZM56.8584 149H54.2139L-50.1152 0H-47.4707L56.8584 149ZM70.8486 149H68.2041L-36.125 0H-33.4805L70.8486 149ZM84.8389 149H82.1943L-22.1348 0H-19.4902L84.8389 149ZM98.833 149H96.1885L-8.14453 0H-5.5L98.833 149ZM112.823 149H110.179L5.8457 0H8.49023L112.823 149ZM126.813 149H124.169L19.8359 0H22.4805L126.813 149ZM140.804 149H138.159L33.8301 0H36.4746L140.804 149ZM154.794 149H152.149L47.8203 0H50.4648L154.794 149ZM168.788 149H166.144L61.8105 0H64.4551L168.788 149ZM182.778 149H180.134L75.8008 0H78.4453L182.778 149Z" fill="#FEC35A"/>
</svg>
