<svg width="414" height="194" viewBox="0 0 414 194" fill="none" xmlns="http://www.w3.org/2000/svg">
<g clip-path="url(#clip0_74_678)">
<path d="M14.8034 25.2525L14.1609 28.3772L13.5185 25.2525C12.4477 20.0088 8.35201 15.9052 3.11862 14.8323L0 14.1886L3.11862 13.5449C8.35201 12.472 12.4477 8.36831 13.5185 3.12471L14.1609 0L14.8034 3.12471C15.8742 8.36831 19.9699 12.472 25.2033 13.5449L28.3219 14.1886L25.2033 14.8323C19.9699 15.9052 15.8742 20.0088 14.8034 25.2525Z" fill="#FDC25A"/>
<path d="M69.8946 25.2525L69.2521 28.3772L68.6097 25.2525C67.5389 20.0088 63.4432 15.9052 58.2098 14.8323L55.0912 14.1886L58.2098 13.5449C63.4432 12.472 67.5389 8.36831 68.6097 3.12471L69.2521 0L69.8946 3.12471C70.9654 8.36831 75.0611 12.472 80.2944 13.5449L83.4131 14.1886L80.2944 14.8323C75.0611 15.9052 70.9654 20.0088 69.8946 25.2525Z" fill="#FDC25A"/>
<path d="M124.986 25.2525L124.343 28.3772L123.701 25.2525C122.63 20.0088 118.534 15.9052 113.301 14.8323L110.182 14.1886L113.301 13.5449C118.534 12.472 122.63 8.36831 123.701 3.12471L124.343 0L124.986 3.12471C126.056 8.36831 130.152 12.472 135.386 13.5449L138.504 14.1886L135.386 14.8323C130.152 15.9052 126.056 20.0088 124.986 25.2525Z" fill="#FDC25A"/>
<path d="M180.09 25.2525L179.448 28.3772L178.805 25.2525C177.735 20.0088 173.639 15.9052 168.405 14.8323L165.287 14.1886L168.405 13.5449C173.639 12.472 177.735 8.36831 178.805 3.12471L179.448 0L180.09 3.12471C181.161 8.36831 185.257 12.472 190.49 13.5449L193.609 14.1886L190.49 14.8323C185.257 15.9052 181.161 20.0088 180.09 25.2525Z" fill="#FDC25A"/>
<path d="M235.181 25.2525L234.539 28.3772L233.896 25.2525C232.826 20.0088 228.73 15.9052 223.497 14.8323L220.378 14.1886L223.497 13.5449C228.73 12.472 232.826 8.36831 233.896 3.12471L234.539 0L235.181 3.12471C236.252 8.36831 240.348 12.472 245.581 13.5449L248.7 14.1886L245.581 14.8323C240.348 15.9052 236.252 20.0088 235.181 25.2525Z" fill="#FDC25A"/>
<path d="M290.273 25.2525L289.63 28.3772L288.988 25.2525C287.917 20.0088 283.821 15.9052 278.588 14.8323L275.469 14.1886L278.588 13.5449C283.821 12.472 287.917 8.36831 288.988 3.12471L289.63 0L290.273 3.12471C291.343 8.36831 295.439 12.472 300.672 13.5449L303.791 14.1886L300.672 14.8323C295.439 15.9052 291.343 20.0088 290.273 25.2525Z" fill="#FDC25A"/>
<path d="M345.377 25.2525L344.735 28.3772L344.092 25.2525C343.021 20.0088 338.926 15.9052 333.692 14.8323L330.574 14.1886L333.692 13.5449C338.926 12.472 343.021 8.36831 344.092 3.12471L344.735 0L345.377 3.12471C346.448 8.36831 350.543 12.472 355.777 13.5449L358.896 14.1886L355.777 14.8323C350.543 15.9052 346.448 20.0088 345.377 25.2525Z" fill="#FDC25A"/>
<path d="M400.468 25.2525L399.826 28.3772L399.183 25.2525C398.112 20.0088 394.017 15.9052 388.783 14.8323L385.665 14.1886L388.783 13.5449C394.017 12.472 398.112 8.36831 399.183 3.12471L399.826 0L400.468 3.12471C401.539 8.36831 405.635 12.472 410.868 13.5449L413.987 14.1886L410.868 14.8323C405.635 15.9052 401.539 20.0088 400.468 25.2525Z" fill="#FDC25A"/>
<path d="M14.8034 80.4644L14.1609 83.5891L13.5185 80.4644C12.4477 75.2208 8.35201 71.1171 3.11862 70.0442L0 69.4005L3.11862 68.7568C8.35201 67.6839 12.4477 63.5802 13.5185 58.3366L14.1609 55.2119L14.8034 58.3366C15.8742 63.5802 19.9699 67.6839 25.2033 68.7568L28.3219 69.4005L25.2033 70.0442C19.9699 71.1171 15.8742 75.2208 14.8034 80.4644Z" fill="#FDC25A"/>
<path d="M69.8946 80.4644L69.2521 83.5891L68.6097 80.4644C67.5389 75.2208 63.4432 71.1171 58.2098 70.0442L55.0912 69.4005L58.2098 68.7568C63.4432 67.6839 67.5389 63.5802 68.6097 58.3366L69.2521 55.2119L69.8946 58.3366C70.9654 63.5802 75.0611 67.6839 80.2944 68.7568L83.4131 69.4005L80.2944 70.0442C75.0611 71.1171 70.9654 75.2208 69.8946 80.4644Z" fill="#FDC25A"/>
<path d="M124.986 80.4644L124.343 83.5891L123.701 80.4644C122.63 75.2208 118.534 71.1171 113.301 70.0442L110.182 69.4005L113.301 68.7568C118.534 67.6839 122.63 63.5802 123.701 58.3366L124.343 55.2119L124.986 58.3366C126.056 63.5802 130.152 67.6839 135.386 68.7568L138.504 69.4005L135.386 70.0442C130.152 71.1171 126.056 75.2208 124.986 80.4644Z" fill="#FDC25A"/>
<path d="M180.09 80.4644L179.448 83.5891L178.805 80.4644C177.735 75.2208 173.639 71.1171 168.405 70.0442L165.287 69.4005L168.405 68.7568C173.639 67.6839 177.735 63.5802 178.805 58.3366L179.448 55.2119L180.09 58.3366C181.161 63.5802 185.257 67.6839 190.49 68.7568L193.609 69.4005L190.49 70.0442C185.257 71.1171 181.161 75.2208 180.09 80.4644Z" fill="#FDC25A"/>
<path d="M235.181 80.4644L234.539 83.5891L233.896 80.4644C232.826 75.2208 228.73 71.1171 223.497 70.0442L220.378 69.4005L223.497 68.7568C228.73 67.6839 232.826 63.5802 233.896 58.3366L234.539 55.2119L235.181 58.3366C236.252 63.5802 240.348 67.6839 245.581 68.7568L248.7 69.4005L245.581 70.0442C240.348 71.1171 236.252 75.2208 235.181 80.4644Z" fill="#FDC25A"/>
<path d="M290.273 80.4644L289.63 83.5891L288.988 80.4644C287.917 75.2208 283.821 71.1171 278.588 70.0442L275.469 69.4005L278.588 68.7568C283.821 67.6839 287.917 63.5802 288.988 58.3366L289.63 55.2119L290.273 58.3366C291.343 63.5802 295.439 67.6839 300.672 68.7568L303.791 69.4005L300.672 70.0442C295.439 71.1171 291.343 75.2208 290.273 80.4644Z" fill="#FDC25A"/>
<path d="M345.377 80.4644L344.735 83.5891L344.092 80.4644C343.021 75.2208 338.926 71.1171 333.692 70.0442L330.574 69.4005L333.692 68.7568C338.926 67.6839 343.021 63.5802 344.092 58.3366L344.735 55.2119L345.377 58.3366C346.448 63.5802 350.543 67.6839 355.777 68.7568L358.896 69.4005L355.777 70.0442C350.543 71.1171 346.448 75.2208 345.377 80.4644Z" fill="#FDC25A"/>
<path d="M400.468 80.4644L399.826 83.5891L399.183 80.4644C398.112 75.2208 394.017 71.1171 388.783 70.0442L385.665 69.4005L388.783 68.7568C394.017 67.6839 398.112 63.5802 399.183 58.3366L399.826 55.2119L400.468 58.3366C401.539 63.5802 405.635 67.6839 410.868 68.7568L413.987 69.4005L410.868 70.0442C405.635 71.1171 401.539 75.2208 400.468 80.4644Z" fill="#FDC25A"/>
<path d="M14.8034 135.663L14.1609 138.788L13.5185 135.663C12.4477 130.419 8.35201 126.316 3.11862 125.243L0 124.599L3.11862 123.956C8.35201 122.883 12.4477 118.779 13.5185 113.535L14.1609 110.411L14.8034 113.535C15.8742 118.779 19.9699 122.883 25.2033 123.956L28.3219 124.599L25.2033 125.243C19.9699 126.316 15.8742 130.419 14.8034 135.663Z" fill="#FDC25A"/>
<path d="M69.8946 135.663L69.2521 138.788L68.6097 135.663C67.5389 130.419 63.4432 126.316 58.2098 125.243L55.0912 124.599L58.2098 123.956C63.4432 122.883 67.5389 118.779 68.6097 113.535L69.2521 110.411L69.8946 113.535C70.9654 118.779 75.0611 122.883 80.2944 123.956L83.4131 124.599L80.2944 125.243C75.0611 126.316 70.9654 130.419 69.8946 135.663Z" fill="#FDC25A"/>
<path d="M124.986 135.663L124.343 138.788L123.701 135.663C122.63 130.419 118.534 126.316 113.301 125.243L110.182 124.599L113.301 123.956C118.534 122.883 122.63 118.779 123.701 113.535L124.343 110.411L124.986 113.535C126.056 118.779 130.152 122.883 135.386 123.956L138.504 124.599L135.386 125.243C130.152 126.316 126.056 130.419 124.986 135.663Z" fill="#FDC25A"/>
<path d="M180.09 135.663L179.448 138.788L178.805 135.663C177.735 130.419 173.639 126.316 168.405 125.243L165.287 124.599L168.405 123.956C173.639 122.883 177.735 118.779 178.805 113.535L179.448 110.411L180.09 113.535C181.161 118.779 185.257 122.883 190.49 123.956L193.609 124.599L190.49 125.243C185.257 126.316 181.161 130.419 180.09 135.663Z" fill="#FDC25A"/>
<path d="M235.181 135.663L234.539 138.788L233.896 135.663C232.826 130.419 228.73 126.316 223.497 125.243L220.378 124.599L223.497 123.956C228.73 122.883 232.826 118.779 233.896 113.535L234.539 110.411L235.181 113.535C236.252 118.779 240.348 122.883 245.581 123.956L248.7 124.599L245.581 125.243C240.348 126.316 236.252 130.419 235.181 135.663Z" fill="#FDC25A"/>
<path d="M290.273 135.663L289.63 138.788L288.988 135.663C287.917 130.419 283.821 126.316 278.588 125.243L275.469 124.599L278.588 123.956C283.821 122.883 287.917 118.779 288.988 113.535L289.63 110.411L290.273 113.535C291.343 118.779 295.439 122.883 300.672 123.956L303.791 124.599L300.672 125.243C295.439 126.316 291.343 130.419 290.273 135.663Z" fill="#FDC25A"/>
<path d="M345.377 135.663L344.735 138.788L344.092 135.663C343.021 130.419 338.926 126.316 333.692 125.243L330.574 124.599L333.692 123.956C338.926 122.883 343.021 118.779 344.092 113.535L344.735 110.411L345.377 113.535C346.448 118.779 350.543 122.883 355.777 123.956L358.896 124.599L355.777 125.243C350.543 126.316 346.448 130.419 345.377 135.663Z" fill="#FDC25A"/>
<path d="M400.468 135.663L399.826 138.788L399.183 135.663C398.112 130.419 394.017 126.316 388.783 125.243L385.665 124.599L388.783 123.956C394.017 122.883 398.112 118.779 399.183 113.535L399.826 110.411L400.468 113.535C401.539 118.779 405.635 122.883 410.868 123.956L413.987 124.599L410.868 125.243C405.635 126.316 401.539 130.419 400.468 135.663Z" fill="#FDC25A"/>
<path d="M14.8034 190.862L14.1609 193.987L13.5185 190.862C12.4477 185.618 8.35201 181.515 3.11862 180.442L0 179.798L3.11862 179.154C8.35201 178.081 12.4477 173.978 13.5185 168.734L14.1609 165.609L14.8034 168.734C15.8742 173.978 19.9699 178.081 25.2033 179.154L28.3219 179.798L25.2033 180.442C19.9699 181.515 15.8742 185.618 14.8034 190.862Z" fill="#FDC25A"/>
<path d="M69.8946 190.862L69.2521 193.987L68.6097 190.862C67.5389 185.618 63.4432 181.515 58.2098 180.442L55.0912 179.798L58.2098 179.154C63.4432 178.081 67.5389 173.978 68.6097 168.734L69.2521 165.609L69.8946 168.734C70.9654 173.978 75.0611 178.081 80.2944 179.154L83.4131 179.798L80.2944 180.442C75.0611 181.515 70.9654 185.618 69.8946 190.862Z" fill="#FDC25A"/>
<path d="M124.986 190.862L124.343 193.987L123.701 190.862C122.63 185.618 118.534 181.515 113.301 180.442L110.182 179.798L113.301 179.154C118.534 178.081 122.63 173.978 123.701 168.734L124.343 165.609L124.986 168.734C126.056 173.978 130.152 178.081 135.386 179.154L138.504 179.798L135.386 180.442C130.152 181.515 126.056 185.618 124.986 190.862Z" fill="#FDC25A"/>
<path d="M180.09 190.862L179.448 193.987L178.805 190.862C177.735 185.618 173.639 181.515 168.405 180.442L165.287 179.798L168.405 179.154C173.639 178.081 177.735 173.978 178.805 168.734L179.448 165.609L180.09 168.734C181.161 173.978 185.257 178.081 190.49 179.154L193.609 179.798L190.49 180.442C185.257 181.515 181.161 185.618 180.09 190.862Z" fill="#FDC25A"/>
<path d="M235.181 190.862L234.539 193.987L233.896 190.862C232.826 185.618 228.73 181.515 223.497 180.442L220.378 179.798L223.497 179.154C228.73 178.081 232.826 173.978 233.896 168.734L234.539 165.609L235.181 168.734C236.252 173.978 240.348 178.081 245.581 179.154L248.7 179.798L245.581 180.442C240.348 181.515 236.252 185.618 235.181 190.862Z" fill="#FDC25A"/>
<path d="M290.273 190.862L289.63 193.987L288.988 190.862C287.917 185.618 283.821 181.515 278.588 180.442L275.469 179.798L278.588 179.154C283.821 178.081 287.917 173.978 288.988 168.734L289.63 165.609L290.273 168.734C291.343 173.978 295.439 178.081 300.672 179.154L303.791 179.798L300.672 180.442C295.439 181.515 291.343 185.618 290.273 190.862Z" fill="#FDC25A"/>
<path d="M345.377 190.862L344.735 193.987L344.092 190.862C343.021 185.618 338.926 181.515 333.692 180.442L330.574 179.798L333.692 179.154C338.926 178.081 343.021 173.978 344.092 168.734L344.735 165.609L345.377 168.734C346.448 173.978 350.543 178.081 355.777 179.154L358.896 179.798L355.777 180.442C350.543 181.515 346.448 185.618 345.377 190.862Z" fill="#FDC25A"/>
<path d="M400.468 190.862L399.826 193.987L399.183 190.862C398.112 185.618 394.017 181.515 388.783 180.442L385.665 179.798L388.783 179.154C394.017 178.081 398.112 173.978 399.183 168.734L399.826 165.609L400.468 168.734C401.539 173.978 405.635 178.081 410.868 179.154L413.987 179.798L410.868 180.442C405.635 181.515 401.539 185.618 400.468 190.862Z" fill="#FDC25A"/>
</g>
<defs>
<clipPath id="clip0_74_678">
<rect width="414" height="194" fill="white"/>
</clipPath>
</defs>
</svg>
