<svg width="186" height="227" viewBox="0 0 186 227" fill="none" xmlns="http://www.w3.org/2000/svg">
<path d="M-283.229 226.71H-287.253L-446.001 0H-441.977L-283.229 226.71ZM-261.942 226.71H-265.965L-424.707 0H-420.684L-261.942 226.71ZM-240.655 226.71H-244.679L-403.421 0H-399.397L-240.655 226.71ZM-219.369 226.71H-223.393L-382.134 0H-378.111L-219.369 226.71ZM-198.082 226.71H-202.105L-360.848 0H-356.824L-198.082 226.71ZM-176.79 226.71H-180.813L-339.561 0H-335.537L-176.79 226.71ZM-155.503 226.71H-159.527L-318.274 0H-314.25L-155.503 226.71ZM-134.217 226.71H-138.239L-296.981 0H-292.958L-134.217 226.71ZM-112.93 226.71H-116.953L-275.695 0H-271.672L-112.93 226.71ZM-91.6436 226.71H-95.666L-254.408 0H-250.385L-91.6436 226.71ZM-70.3506 226.71H-74.374L-233.122 0H-229.098L-70.3506 226.71ZM-49.0645 226.71H-53.0879L-211.835 0H-207.812L-49.0645 226.71ZM-27.7773 226.71H-31.8018L-190.549 0H-186.524L-27.7773 226.71ZM-6.49121 226.71H-10.5137L-169.256 0H-165.232L-6.49121 226.71ZM14.7959 226.71H10.7725L-147.969 0H-143.946L14.7959 226.71ZM36.082 226.71H32.0596L-126.683 0H-122.659L36.082 226.71ZM57.375 226.71H53.3506L-105.396 0H-101.372L57.375 226.71ZM78.6611 226.71H74.6377L-84.1094 0H-80.0859L78.6611 226.71ZM99.9482 226.71H95.9238L-62.8232 0H-58.7988L99.9482 226.71ZM121.235 226.71H117.212L-41.5303 0H-37.5068L121.235 226.71ZM142.521 226.71H138.498L-20.2432 0H-16.2207L142.521 226.71ZM163.814 226.71H159.79L1.04297 0H5.06738L163.814 226.71ZM185.101 226.71H181.077L22.3291 0H26.3535L185.101 226.71Z" fill="#FEC35A"/>
</svg>
