<svg width="28" height="22" viewBox="0 0 28 22" fill="none" xmlns="http://www.w3.org/2000/svg">
<g id="surface494">
<path id="Vector" d="M26.7781 2.92741C26.4725 1.78158 25.5628 0.871853 24.417 0.566298C22.3406 0.0107422 14.0003 0.0107422 14.0003 0.0107422C14.0003 0.0107422 5.66005 0.0107422 3.58366 0.566298C2.43783 0.871853 1.5281 1.78158 1.22255 2.92741C0.666992 5.0038 0.666992 10.6774 0.666992 10.6774C0.666992 10.6774 0.666992 16.351 1.22255 18.4274C1.5281 19.5732 2.43783 20.483 3.58366 20.7885C5.66005 21.3441 14.0003 21.3441 14.0003 21.3441C14.0003 21.3441 22.3406 21.3441 24.417 20.7885C25.5698 20.483 26.4725 19.5732 26.7781 18.4274C27.3337 16.351 27.3337 10.6774 27.3337 10.6774C27.3337 10.6774 27.3337 5.0038 26.7781 2.92741ZM11.3337 15.2955V6.05935L19.3337 10.6774L11.3337 15.2955Z" fill="#FDC25A"/>
</g>
</svg>
